<?xml version="1.0" encoding="iso-8859-1"?>
<!-- Generator: Adobe Illustrator 19.0.0, SVG Export Plug-In . SVG Version: 6.00 Build 0)  -->
<svg version="1.1" id="Capa_1" xmlns="http://www.w3.org/2000/svg" xmlns:xlink="http://www.w3.org/1999/xlink" x="0px" y="0px"
	 viewBox="0 0 468.293 468.293" style="enable-background:new 0 0 468.293 468.293;" xml:space="preserve">
<rect x="92.073" y="85.042" style="fill:#3B566A;" width="284.147" height="179.718"/>
<path style="fill:#29A1DA;" d="M417.234,102.255H51.059c-10.345,0-18.732-8.386-18.732-18.732V18.732
	C32.327,8.386,40.714,0,51.059,0h366.174c10.345,0,18.732,8.386,18.732,18.732v64.792
	C435.965,93.868,427.579,102.255,417.234,102.255z"/>
<path style="fill:#647989;" d="M346.794,423.035H246.636v-73.213H221.66v73.213H121.501c-6.896,0-12.488,5.591-12.488,12.488
	s5.591,12.488,12.488,12.488h225.293c6.896,0,12.488-5.591,12.488-12.488S353.69,423.035,346.794,423.035z"/>
<path style="fill:#E56354;" d="M261.926,468.293h-55.559c-3.448,0-6.244-2.796-6.244-6.244V406.49c0-3.448,2.796-6.244,6.244-6.244
	h55.559c3.448,0,6.244,2.795,6.244,6.244v55.559C268.17,465.497,265.374,468.293,261.926,468.293z"/>
<circle style="fill:#FAD362;" cx="85.354" cy="51.125" r="18.857"/>
<circle style="fill:#EBEFF2;" cx="141.861" cy="51.125" r="18.857"/>
<circle style="fill:#E56354;" cx="195.703" cy="51.125" r="18.857"/>
<path style="fill:#D4D5DB;" d="M395.512,69.964H246.544c-3.448,0-6.244-2.795-6.244-6.244V38.535c0-3.448,2.795-6.244,6.244-6.244
	h148.967c3.448,0,6.244,2.795,6.244,6.244V63.72C401.756,67.168,398.96,69.964,395.512,69.964z"/>
<path style="fill:#4EBD9E;" d="M417.234,226.037H51.059c-10.345,0-18.732-8.386-18.732-18.732v-64.792
	c0-10.345,8.386-18.732,18.732-18.732h366.174c10.345,0,18.732,8.386,18.732,18.732v64.792
	C435.965,217.651,427.579,226.037,417.234,226.037z"/>
<circle style="fill:#FAD362;" cx="85.354" cy="174.91" r="18.857"/>
<circle style="fill:#EBEFF2;" cx="141.861" cy="174.91" r="18.857"/>
<circle style="fill:#E56354;" cx="195.703" cy="174.91" r="18.857"/>
<path style="fill:#D4D5DB;" d="M395.512,193.746H246.544c-3.448,0-6.244-2.795-6.244-6.244v-25.185c0-3.448,2.795-6.244,6.244-6.244
	h148.967c3.448,0,6.244,2.796,6.244,6.244v25.185C401.756,190.951,398.96,193.746,395.512,193.746z"/>
<path style="fill:#FAD362;" d="M417.234,349.82H51.059c-10.345,0-18.732-8.386-18.732-18.732v-64.792
	c0-10.345,8.386-18.732,18.732-18.732h366.174c10.345,0,18.732,8.386,18.732,18.732v64.792
	C435.965,341.433,427.579,349.82,417.234,349.82z"/>
<circle style="fill:#29A1DA;" cx="85.354" cy="298.708" r="18.857"/>
<circle style="fill:#EBEFF2;" cx="141.861" cy="298.708" r="18.857"/>
<circle style="fill:#E56354;" cx="195.703" cy="298.708" r="18.857"/>
<path style="fill:#D4D5DB;" d="M395.512,317.528H246.544c-3.448,0-6.244-2.795-6.244-6.244V286.1c0-3.448,2.795-6.244,6.244-6.244
	h148.967c3.448,0,6.244,2.795,6.244,6.244v25.185C401.756,314.733,398.96,317.528,395.512,317.528z"/>
<g>
</g>
<g>
</g>
<g>
</g>
<g>
</g>
<g>
</g>
<g>
</g>
<g>
</g>
<g>
</g>
<g>
</g>
<g>
</g>
<g>
</g>
<g>
</g>
<g>
</g>
<g>
</g>
<g>
</g>
</svg>
