<?xml version="1.0" encoding="utf-8"?>
<!-- Generator: Adobe Illustrator 16.0.0, SVG Export Plug-In . SVG Version: 6.00 Build 0)  -->
<!DOCTYPE svg PUBLIC "-//W3C//DTD SVG 1.1//EN" "http://www.w3.org/Graphics/SVG/1.1/DTD/svg11.dtd">
<svg version="1.1" id="Layer_1" xmlns="http://www.w3.org/2000/svg" xmlns:xlink="http://www.w3.org/1999/xlink" x="0px" y="0px"
	 width="296.334px" height="296.335px" viewBox="0 0 296.334 296.335" enable-background="new 0 0 296.334 296.335"
	 xml:space="preserve">
<g>
	<circle fill="#E5E5E5" cx="148.167" cy="148.167" r="148.156"/>
	<g opacity="0.36">
		<path fill="#FDFEFF" d="M207.622,33.061c65.607,46.692,88.844,127.634,54.486,184.55c38.119-61.705,23.795-142.107-34.236-183.407
			c-19.176-13.647-40.824-21.379-62.87-23.597C179.645,15.923,194.03,23.389,207.622,33.061z"/>
		<path fill="#FDFEFF" d="M60.474,239.821c-16.233-11.552-29.865-25.203-40.681-40.065c8.939,23.895,24.699,45.314,46.811,61.051
			c60.545,43.089,145.727,27.293,190.26-35.281c0.146-0.206,0.285-0.415,0.432-0.621
			C216.502,281.541,128.542,288.264,60.474,239.821z"/>
	</g>
	<circle fill="#D8D9D8" cx="148.167" cy="148.167" r="109.575"/>
	<path fill="#C9C9C9" d="M65.033,93.367C99,45.639,165.228,34.483,212.956,68.45c29.115,20.72,44.619,53.444,44.574,86.651
		c2.283-36.55-13.795-73.413-45.826-96.209C162.397,23.802,93.982,35.327,58.892,84.632c-35.09,49.306-23.565,117.721,25.74,152.811
		c0.696,0.495,1.396,0.978,2.098,1.454C41.74,204.287,31.845,140,65.033,93.367z"/>
	<path opacity="0.09" fill="#030303" d="M241.329,162.474l26.578-2.251c4.908-0.414,8.551-4.732,8.137-9.64l-1.045-12.326
		c-0.416-4.908-4.732-8.551-9.641-8.136l-26.578,2.25C227.569,86.096,184,53.63,135.085,57.773
		c-54.034,4.575-94.127,52.087-89.552,106.12c4.576,54.034,52.087,94.127,106.121,89.552
		C200.569,249.303,238.059,209.975,241.329,162.474z"/>
	<path fill="#F4F4F4" d="M246.02,156.605l26.578-2.25c4.908-0.416,8.553-4.732,8.137-9.641l-1.045-12.326
		c-0.414-4.908-4.732-8.551-9.641-8.135l-26.578,2.25c-11.211-46.274-54.779-78.74-103.693-74.598
		c-54.034,4.575-94.127,52.087-89.553,106.12c4.576,54.034,52.087,94.127,106.122,89.553
		C205.262,243.436,242.75,204.107,246.02,156.605z"/>
	<circle fill="#3A1813" cx="147.964" cy="150.737" r="84.428"/>
	<path opacity="0.23" fill="#3A1813" d="M90.589,194.292c3.054-34.118,31.323-69.986,68.667-64.697
		c9.456,1.339,18.142,4.893,26.129,10.102c9.118,5.946,17.472,13.62,27.446,18.149c5.602,2.543,12.25,4.488,18.705,4.979
		c4.357-30.295-7.965-61.904-34.619-80.874c-37.99-27.037-90.705-18.158-117.741,19.833
		c-25.304,35.556-19.145,84.009,12.895,112.238C90.707,207.545,90.002,200.852,90.589,194.292z"/>
	<path opacity="0.23" fill="#3A1813" d="M83.716,122.202c29.111-40.906,88.56-48.553,132.782-17.081
		c1.598,1.136,3.148,2.312,4.66,3.518c-5.877-10.234-13.994-19.397-24.24-26.689c-37.99-27.037-90.705-18.158-117.741,19.833
		C62.78,124.824,59.6,153.279,68.108,178.139C66.841,158.572,71.828,138.906,83.716,122.202z"/>
	<g opacity="0.56">
		<circle fill="#61322D" cx="206.623" cy="194.716" r="1.272"/>
		<circle fill="#61322D" cx="200.976" cy="197.17" r="1.926"/>
		<circle fill="#61322D" cx="205.814" cy="199.464" r="1.646"/>
		<circle fill="#61322D" cx="202.512" cy="202.946" r="1.271"/>
		<circle fill="#61322D" cx="199.648" cy="206.324" r="1.926"/>
		<circle fill="#61322D" cx="197.059" cy="202.116" r="1.645"/>
		<circle fill="#61322D" cx="196.301" cy="196.643" r="1.271"/>
		<circle fill="#61322D" cx="192.123" cy="200.968" r="1.926"/>
		<circle fill="#61322D" cx="193.667" cy="207.439" r="1.646"/>
		<circle fill="#61322D" cx="196.556" cy="211.056" r="1.272"/>
		<circle fill="#61322D" cx="190.675" cy="212.771" r="1.926"/>
		<circle fill="#61322D" cx="189.253" cy="207.19" r="1.646"/>
		<circle fill="#61322D" cx="163.123" cy="220.91" r="1.272"/>
		<circle fill="#61322D" cx="169.274" cy="221.166" r="1.926"/>
		<circle fill="#61322D" cx="165.923" cy="216.99" r="1.645"/>
		<circle fill="#61322D" cx="170.413" cy="215.298" r="1.272"/>
		<circle fill="#61322D" cx="174.464" cy="213.508" r="1.926"/>
		<circle fill="#61322D" cx="174.958" cy="218.424" r="1.645"/>
		<circle fill="#61322D" cx="179.442" cy="220.978" r="1.271"/>
		<circle fill="#61322D" cx="184.26" cy="205.842" r="1.926"/>
		<circle fill="#61322D" cx="180.332" cy="215.115" r="1.645"/>
		<circle fill="#61322D" cx="179.312" cy="210.601" r="1.272"/>
		<circle fill="#61322D" cx="184.811" cy="211.24" r="1.926"/>
		<circle fill="#61322D" cx="185.265" cy="218.027" r="1.646"/>
	</g>
</g>
</svg>
