<?xml version="1.0" encoding="utf-8"?>
<!-- Generator: Adobe Illustrator 16.0.0, SVG Export Plug-In . SVG Version: 6.00 Build 0)  -->
<!DOCTYPE svg PUBLIC "-//W3C//DTD SVG 1.1//EN" "http://www.w3.org/Graphics/SVG/1.1/DTD/svg11.dtd">
<svg version="1.1" id="Layer_1" xmlns="http://www.w3.org/2000/svg" xmlns:xlink="http://www.w3.org/1999/xlink" x="0px" y="0px"
	 width="373.689px" height="466.403px" viewBox="0 0 373.689 466.403" enable-background="new 0 0 373.689 466.403"
	 xml:space="preserve">
<g>
	<g>
		<g>
			<path fill="#FFFFFF" d="M270.491,164.058c0.017-0.292,0.029-0.58,0.046-0.864C270.52,163.479,270.507,163.766,270.491,164.058z"
				/>
			<path fill="#FFFFFF" d="M253.395,267.515c0.167-0.893,0.332-1.771,0.497-2.651C253.727,265.745,253.562,266.623,253.395,267.515z
				"/>
			<path fill="#FFFFFF" d="M254.248,262.963c0.187-0.99,0.368-1.968,0.552-2.945C254.616,260.996,254.434,261.972,254.248,262.963z"
				/>
			<path fill="#FFFFFF" d="M264.142,209.368c0.088-0.504,0.175-1.002,0.262-1.502C264.317,208.366,264.23,208.863,264.142,209.368z"
				/>
			<path fill="#FFFFFF" d="M270.368,165.922c0.022-0.307,0.043-0.611,0.062-0.913C270.411,165.311,270.39,165.616,270.368,165.922z"
				/>
			<path fill="#FFFFFF" d="M255.111,258.355c0.118-0.637,0.236-1.264,0.354-1.895C255.347,257.091,255.229,257.718,255.111,258.355z
				"/>
			<path fill="#FFFFFF" d="M268.649,181.41c0.056-0.397,0.11-0.797,0.163-1.187C268.759,180.613,268.705,181.013,268.649,181.41z"/>
			<path fill="#FFFFFF" d="M249.417,288.925c0.131-0.703,0.262-1.412,0.389-2.108C249.678,287.513,249.547,288.222,249.417,288.925z
				"/>
			<path fill="#FFFFFF" d="M256.603,250.384c0.017-0.084,0.032-0.167,0.047-0.251C256.635,250.217,256.62,250.3,256.603,250.384z"/>
			<path fill="#FFFFFF" d="M270.635,160.597c0.008-0.265,0.011-0.524,0.015-0.785C270.646,160.073,270.643,160.333,270.635,160.597z
				"/>
			<path fill="#FFFFFF" d="M248.448,294.184c0.144-0.77,0.284-1.543,0.425-2.307C248.732,292.641,248.591,293.415,248.448,294.184z"
				/>
			<path fill="#FFFFFF" d="M264.727,206.021c0.081-0.462,0.158-0.913,0.235-1.368C264.885,205.107,264.808,205.559,264.727,206.021z
				"/>
			<path fill="#FFFFFF" d="M270.58,162.281c0.013-0.278,0.022-0.549,0.03-0.82C270.602,161.732,270.592,162.003,270.58,162.281z"/>
			<path fill="#FFFFFF" d="M250.364,283.809c0.12-0.652,0.242-1.31,0.361-1.953C250.606,282.5,250.484,283.157,250.364,283.809z"/>
			<path fill="#FFFFFF" d="M251.573,277.29c0.016-0.084,0.032-0.17,0.048-0.255C251.605,277.12,251.588,277.207,251.573,277.29z"/>
			<path fill="#FFFFFF" d="M268.982,178.933c0.053-0.384,0.103-0.767,0.15-1.146C269.084,178.167,269.035,178.549,268.982,178.933z"
				/>
			<path fill="#FFFFFF" d="M260.91,227.245c0.103-0.551,0.203-1.099,0.304-1.645C261.113,226.146,261.012,226.693,260.91,227.245z"
				/>
			<path fill="#FFFFFF" d="M262.909,216.281c0.098-0.539,0.194-1.074,0.289-1.609C263.103,215.208,263.006,215.742,262.909,216.281z
				"/>
			<path fill="#FFFFFF" d="M260.202,231.092c0.103-0.558,0.206-1.116,0.308-1.669C260.408,229.977,260.304,230.534,260.202,231.092z
				"/>
			<path fill="#FFFFFF" d="M269.811,172.03c0.038-0.345,0.073-0.688,0.106-1.028C269.886,171.342,269.849,171.685,269.811,172.03z"
				/>
			<path fill="#FFFFFF" d="M262.26,219.875c0.104-0.575,0.207-1.144,0.31-1.714C262.467,218.73,262.364,219.299,262.26,219.875z"/>
			<path fill="#FFFFFF" d="M261.596,223.519c0.102-0.567,0.204-1.129,0.308-1.689C261.8,222.389,261.698,222.952,261.596,223.519z"
				/>
			<path fill="#FFFFFF" d="M257.224,247.064c0.09-0.474,0.179-0.949,0.267-1.418C257.403,246.115,257.314,246.59,257.224,247.064z"
				/>
			<path fill="#FFFFFF" d="M257.953,243.177c0.113-0.608,0.228-1.218,0.341-1.819C258.179,241.96,258.066,242.569,257.953,243.177z"
				/>
			<path fill="#FFFFFF" d="M270.214,167.873c0.028-0.322,0.054-0.641,0.078-0.957C270.268,167.231,270.243,167.55,270.214,167.873z"
				/>
			<path fill="#FFFFFF" d="M263.541,212.754c0.095-0.515,0.182-1.023,0.271-1.533C263.722,211.73,263.635,212.239,263.541,212.754z"
				/>
			<path fill="#FFFFFF" d="M247.486,299.435c0.149-0.811,0.297-1.626,0.444-2.431C247.783,297.809,247.635,298.625,247.486,299.435z
				"/>
			<path fill="#FFFFFF" d="M259.453,235.125c0.114-0.614,0.229-1.227,0.341-1.833C259.681,233.9,259.567,234.51,259.453,235.125z"/>
			<path fill="#FFFFFF" d="M270.029,169.906c0.03-0.332,0.063-0.66,0.092-0.986C270.092,169.246,270.059,169.574,270.029,169.906z"
				/>
			<path fill="#FFFFFF" d="M258.691,239.215c0.127-0.672,0.252-1.343,0.376-2.009C258.943,237.872,258.818,238.542,258.691,239.215z
				"/>
			<path fill="#FFFFFF" d="M270.402,153.479c-0.02-0.188-0.045-0.363-0.071-0.544C270.357,153.116,270.382,153.292,270.402,153.479z
				"/>
			<path fill="#FFFFFF" d="M270.659,158.998c0.002-0.251-0.002-0.494-0.003-0.739C270.657,158.504,270.661,158.746,270.659,158.998z
				"/>
			<path fill="#FFFFFF" d="M237.403,356.355c0.164-0.959,0.326-1.912,0.489-2.868C237.729,354.443,237.567,355.394,237.403,356.355z
				"/>
			<path fill="#FFFFFF" d="M238.447,350.268c0.164-0.957,0.328-1.904,0.493-2.855C238.775,348.364,238.611,349.311,238.447,350.268z
				"/>
			<path fill="#FFFFFF" d="M371.543,51.929c-2.248-1.451-6.71-1.893-11.532,4.211c-4.822,6.108-14.415,16.631-18.132,20.256
				c-3.717,3.625-8.038,8.859-9.914,7.461c-1.878-1.396-0.147-8.315,2.248-13.258c2.394-4.941,7.516-16.851,9.348-22.624
				c1.827-5.774,8.018-19.043,8.815-21.949c0.797-2.902-0.425-6.281-3.751-8.07c-3.332-1.791-7.138-0.821-10.61,6.042
				c-3.471,6.867-6.861,16.191-8.572,20.285c-1.71,4.095-12.447,24.829-14.489,27.559c-2.043,2.725-5.503,0.539-4.719-3.685
				c0.786-4.225,2.161-17.981,2.444-23.976c0.28-5.996,1.028-16.638,1.395-20.545c0.361-3.911,1.605-12.972,1.779-15.399
				c0.17-2.429,0.29-7.312-5.622-8.146c-5.916-0.837-8.521,4.262-9.146,8.701c-0.627,4.438-1.585,11.656-2.585,15.852
				c-1.002,4.193-2.882,16.181-3.481,21.755c-0.597,5.574-0.504,21.424-4.655,21.214c-4.154-0.208-6.432-20.141-7.337-24.416
				c-0.902-4.276-2.055-13.489-3.036-17.21c-0.982-3.722-1.403-19.43-9.879-18.175c-8.473,1.254-7.006,9.568-6.393,14.558
				c0.617,4.987,3.076,23.624,3.746,30.885c0.673,7.259,4.54,30.618,0.645,38.178c-3.896,7.555-5.011,4.759-8.005-0.755
				c-2.989-5.51-5.88-14.404-11.485-19.439c-3.305-2.964-10.204-7.192-14.771-4.252c-4.56,2.937-0.546,5.202,1.441,9.817
				c1.992,4.617,5.971,17.812,8.725,22.352c2.755,4.535,2.602,11.52,3.907,15.069c2.52,6.858,8.604,15.167,11.146,19.863
				c2.543,4.695,9.405,12.079,10.481,15.243c0.293,0.86,0.524,1.858,0.701,2.991c0.725,0.116,1.452,0.217,2.185,0.299
				c7.482,0.826,15.291-1.312,22.335-4.599c3.563,3.354,7.509,6.305,11.771,8.77c1.777,1.028,3.645,1.792,5.556,2.309
				c0.813,0.728,2.524,1.49,3.438,2.123c0.939,0.648,2.779,1.303,3.779,1.84c0,0.002,0,0.003,0,0.006
				c0-3.19,1.986-8.709,4.102-12.591c2.291-4.201,7.989-15.816,9.569-20.873c1.579-5.054,5.139-15.48,6.574-19.237
				c2.169-5.673,3.675-12.103,3.675-12.103s9.38-12.06,12.966-16.079c3.584-4.019,12.992-14.759,15.781-19.83
				C374.774,57.285,373.789,53.375,371.543,51.929z"/>
			<path fill="#FFFFFF" d="M294.25,146.269c-0.755-7.83,0.884-11.855-3.161-23.525c-4.044-11.669-21.956-22.922-24.945-24.748
				c-1.109-0.679-2.088-1.488-2.94-2.398c-0.321-0.277-0.642-0.675-0.975-1.173c-0.843-1.111-1.529-2.332-2.061-3.631
				c-0.021-0.039-0.042-0.077-0.063-0.115c-2.989-5.51-5.88-14.404-11.485-19.439c-3.305-2.964-10.204-7.192-14.771-4.252
				c-4.56,2.937-0.546,5.202,1.441,9.817c1.992,4.617,5.971,17.812,8.725,22.352c2.755,4.535,2.602,11.52,3.907,15.069
				c2.52,6.858,8.604,15.167,11.146,19.863c2.543,4.695,9.405,12.079,10.481,15.243c0.293,0.86,0.524,1.858,0.701,2.991
				c0.725,0.116,1.452,0.217,2.185,0.299c6.383,0.705,14.477,2.217,22.013-4.521C294.382,147.491,294.309,146.882,294.25,146.269z"
				/>
			<path fill="#FFFFFF" d="M267.905,186.572c0.061-0.403,0.122-0.812,0.18-1.208C268.027,185.761,267.965,186.169,267.905,186.572z"
				/>
			<path fill="#FFFFFF" d="M266.324,196.603c0.037-0.224,0.071-0.441,0.106-0.664C266.395,196.162,266.361,196.378,266.324,196.603z
				"/>
			<path fill="#FFFFFF" d="M233.173,381.587c0.143-0.87,0.285-1.734,0.429-2.602C233.458,379.854,233.316,380.717,233.173,381.587z"
				/>
			<path fill="#FFFFFF" d="M239.487,344.253c0.162-0.938,0.325-1.869,0.486-2.799C239.812,342.384,239.649,343.316,239.487,344.253z
				"/>
			<path fill="#FFFFFF" d="M267.501,189.218c0.06-0.381,0.122-0.769,0.178-1.147C267.624,188.449,267.561,188.836,267.501,189.218z"
				/>
			<path fill="#FFFFFF" d="M232.101,388.133c0.132-0.809,0.264-1.605,0.395-2.409C232.365,386.528,232.233,387.325,232.101,388.133z
				"/>
			<path fill="#FFFFFF" d="M267.103,191.774c0.049-0.305,0.1-0.616,0.147-0.917C267.203,191.158,267.152,191.469,267.103,191.774z"
				/>
			<path fill="#FFFFFF" d="M234.24,375.127c0.156-0.93,0.31-1.849,0.463-2.772C234.549,373.279,234.396,374.198,234.24,375.127z"/>
			<path fill="#FFFFFF" d="M235.296,368.802c0.166-0.989,0.332-1.972,0.497-2.957C235.628,366.831,235.462,367.813,235.296,368.802z
				"/>
			<path fill="#FFFFFF" d="M236.346,362.566c0.17-1.003,0.339-1.994,0.507-2.988C236.685,360.572,236.516,361.563,236.346,362.566z"
				/>
			<path fill="#FFFFFF" d="M268.29,183.952c0.059-0.401,0.115-0.807,0.173-1.202C268.405,183.145,268.348,183.551,268.29,183.952z"
				/>
			<path fill="#FFFFFF" d="M243.557,321.152c0.159-0.895,0.32-1.784,0.478-2.673C243.877,319.368,243.716,320.257,243.557,321.152z"
				/>
			<path fill="#FFFFFF" d="M244.551,315.61c0.156-0.875,0.314-1.75,0.471-2.621C244.866,313.86,244.708,314.735,244.551,315.61z"/>
			<path fill="#FFFFFF" d="M265.281,202.805c0.078-0.465,0.157-0.917,0.234-1.377C265.438,201.888,265.359,202.34,265.281,202.805z"
				/>
			<path fill="#FFFFFF" d="M246.514,304.761c0.154-0.847,0.309-1.693,0.462-2.531C246.823,303.068,246.668,303.915,246.514,304.761z
				"/>
			<path fill="#FFFFFF" d="M270.601,156.062c-0.01-0.218-0.024-0.428-0.039-0.641C270.577,155.634,270.591,155.844,270.601,156.062z
				"/>
			<path fill="#FFFFFF" d="M270.648,157.486c-0.005-0.236-0.012-0.46-0.021-0.689C270.636,157.025,270.643,157.25,270.648,157.486z"
				/>
			<path fill="#FFFFFF" d="M245.545,310.11c0.149-0.846,0.305-1.69,0.456-2.529C245.85,308.419,245.695,309.264,245.545,310.11z"/>
			<path fill="#FFFFFF" d="M270.52,154.725c-0.016-0.204-0.036-0.398-0.054-0.594C270.483,154.327,270.504,154.521,270.52,154.725z"
				/>
			<path fill="#FFFFFF" d="M240.51,338.377c0.168-0.957,0.334-1.91,0.502-2.861C240.844,336.467,240.678,337.42,240.51,338.377z"/>
			<path fill="#FFFFFF" d="M242.554,326.787c0.158-0.895,0.317-1.784,0.475-2.672C242.872,325.002,242.712,325.892,242.554,326.787z
				"/>
			<path fill="#FFFFFF" d="M241.531,332.569c0.164-0.933,0.329-1.863,0.492-2.788C241.86,330.706,241.695,331.636,241.531,332.569z"
				/>
			<path fill="#FFFFFF" d="M265.814,199.661c0.069-0.411,0.136-0.811,0.204-1.216C265.95,198.85,265.883,199.25,265.814,199.661z"/>
			<path fill="#FFFFFF" d="M315.536,161.224c-0.914-0.633-2.201-1.359-3.017-2.087c-1.908-0.516-3.988-1.298-5.767-2.326
				c-4.259-2.464-8.314-5.425-11.876-8.779c-7.044,3.287-14.905,5.421-22.387,4.595c-0.733-0.082-1.49-0.185-2.216-0.301l0,0
				c0.031,0.197,0.046,0.407,0.072,0.611c0.024,0.181,0.042,0.355,0.063,0.543c0.023,0.209,0.04,0.434,0.062,0.651
				c0.018,0.196,0.034,0.39,0.05,0.593c0.019,0.226,0.03,0.464,0.042,0.696c0.015,0.213,0.029,0.422,0.039,0.641
				c0.013,0.239,0.019,0.488,0.025,0.735c0.01,0.229,0.017,0.453,0.021,0.689c0.005,0.253,0.006,0.513,0.008,0.773
				c0.001,0.245,0.005,0.487,0.003,0.739c-0.001,0.268-0.005,0.542-0.009,0.814c-0.004,0.261-0.007,0.521-0.015,0.785
				c-0.004,0.282-0.016,0.574-0.025,0.863c-0.008,0.271-0.018,0.542-0.03,0.82c-0.012,0.3-0.027,0.604-0.043,0.913
				c-0.017,0.285-0.029,0.572-0.046,0.864c-0.019,0.313-0.039,0.629-0.062,0.952c-0.019,0.301-0.039,0.606-0.062,0.913
				c-0.023,0.328-0.049,0.66-0.075,0.994c-0.024,0.315-0.05,0.634-0.078,0.957c-0.03,0.344-0.062,0.693-0.094,1.047
				c-0.028,0.326-0.062,0.654-0.092,0.986c-0.036,0.364-0.07,0.728-0.111,1.096c-0.033,0.34-0.068,0.683-0.106,1.028
				c-0.04,0.379-0.854,7.768-0.914,8.203c-0.051,0.39-0.151,0.785-0.203,1.183c-0.063,0.444-0.144,0.884-0.208,1.337
				c-0.059,0.394-0.128,0.799-0.186,1.2c-0.066,0.469-0.14,0.935-0.21,1.412c-0.058,0.396-0.122,0.804-0.183,1.207
				c-0.074,0.498-0.15,0.994-0.228,1.499c-0.057,0.378-0.119,0.766-0.179,1.147c-0.082,0.545-0.166,1.085-0.251,1.639
				c-0.048,0.301-0.099,0.612-0.147,0.917c-0.214,1.359-0.438,2.747-0.673,4.165c-0.035,0.223-0.069,0.439-0.106,0.664
				c-0.1,0.605-0.205,1.227-0.306,1.842c-0.068,0.406-0.135,0.805-0.204,1.216c-0.098,0.583-0.198,1.178-0.299,1.768
				c-0.077,0.46-0.156,0.912-0.234,1.377c-0.104,0.608-0.211,1.229-0.318,1.847c-0.077,0.455-0.154,0.906-0.235,1.368
				c-0.107,0.608-0.215,1.229-0.323,1.845c-0.087,0.5-0.174,0.998-0.262,1.502c-0.108,0.613-0.22,1.233-0.33,1.853
				c-0.09,0.51-0.177,1.019-0.271,1.533c-0.111,0.632-0.228,1.277-0.343,1.918c-0.095,0.535-0.191,1.07-0.289,1.609
				c-0.111,0.621-0.225,1.25-0.339,1.879c-0.103,0.57-0.206,1.139-0.31,1.714c-0.119,0.647-0.238,1.302-0.356,1.955
				c-0.104,0.56-0.206,1.123-0.308,1.689c-0.126,0.688-0.253,1.384-0.383,2.082c-0.101,0.545-0.201,1.093-0.304,1.645
				c-0.132,0.721-0.267,1.448-0.4,2.178c-0.102,0.553-0.205,1.111-0.308,1.669c-0.136,0.729-0.271,1.462-0.408,2.2
				c-0.112,0.605-0.227,1.218-0.341,1.833c-0.127,0.69-0.257,1.381-0.386,2.081c-0.124,0.666-0.249,1.336-0.376,2.009
				c-0.132,0.711-0.266,1.425-0.397,2.143c-0.113,0.602-0.228,1.211-0.341,1.819c-0.153,0.82-0.308,1.639-0.462,2.469
				c-0.088,0.469-0.177,0.944-0.267,1.418c-0.188,1.018-0.38,2.036-0.574,3.069c-0.015,0.084-0.03,0.167-0.047,0.251
				c-0.372,1.993-0.753,4.025-1.138,6.076c-0.118,0.631-0.236,1.258-0.354,1.895c-0.103,0.55-0.207,1.11-0.312,1.663
				c-0.184,0.978-0.365,1.955-0.552,2.945c-0.117,0.627-0.239,1.266-0.355,1.9c-0.165,0.88-0.33,1.759-0.497,2.651
				c-0.58,3.113-1.174,6.287-1.774,9.52c-0.016,0.085-0.032,0.171-0.048,0.255c-0.28,1.51-0.563,3.029-0.848,4.566
				c-0.119,0.644-0.241,1.301-0.361,1.953c-0.187,0.999-0.37,1.994-0.559,3.008c-0.127,0.696-0.258,1.405-0.389,2.108
				c-0.181,0.981-0.362,1.96-0.544,2.952c-0.141,0.764-0.281,1.537-0.425,2.307c-0.17,0.938-0.344,1.873-0.518,2.82
				c-0.147,0.805-0.295,1.62-0.444,2.431c-0.17,0.929-0.34,1.855-0.51,2.795c-0.153,0.838-0.308,1.685-0.462,2.531
				c-0.171,0.937-0.34,1.873-0.513,2.819c-0.151,0.839-0.307,1.684-0.456,2.529c-0.176,0.956-0.348,1.913-0.523,2.879
				c-0.156,0.871-0.314,1.746-0.471,2.621c-0.172,0.954-0.342,1.907-0.517,2.869c-0.157,0.889-0.318,1.778-0.478,2.673
				c-0.176,0.986-0.351,1.971-0.528,2.963c-0.157,0.888-0.316,1.777-0.475,2.672c-0.178,0.994-0.354,1.992-0.531,2.994
				c-0.163,0.925-0.328,1.855-0.492,2.788c-0.172,0.979-0.346,1.961-0.519,2.947c-0.168,0.951-0.334,1.904-0.502,2.861
				c-0.179,1.021-0.357,2.046-0.537,3.077c-0.161,0.93-0.324,1.861-0.486,2.799c-0.183,1.048-0.364,2.103-0.547,3.159
				c-0.165,0.951-0.329,1.898-0.493,2.855c-0.185,1.068-0.368,2.143-0.555,3.219c-0.163,0.956-0.325,1.909-0.489,2.868
				c-0.183,1.068-0.366,2.146-0.55,3.223c-0.168,0.994-0.337,1.985-0.507,2.988c-0.185,1.087-0.368,2.184-0.553,3.279
				c-0.165,0.985-0.331,1.968-0.497,2.957c-0.197,1.179-0.396,2.367-0.594,3.553c-0.153,0.924-0.307,1.843-0.463,2.772
				c-0.211,1.277-0.424,2.568-0.638,3.858c-0.144,0.867-0.286,1.731-0.429,2.602c-0.227,1.369-0.45,2.753-0.678,4.137
				c-0.131,0.804-0.263,1.601-0.395,2.409c-0.356,2.186-7.548,61.973-7.905,64.189l70.766,12.123
				c6.229-70.113,14.067-164.566,17.622-213.287c2.527-34.627,5.651-86.565,5.755-87.421c0.029-0.227,0.977-0.403,0.977-0.667
				c0-0.003,0-0.004,0-0.006C318.315,162.527,316.475,161.873,315.536,161.224z"/>
		</g>
		<path fill="#FFFFFF" d="M264.632,190.184c0,0-41.07,236.687-45.511,262.606l79.481,13.613c0,0,18.747-235.089,18.729-267.193
			C317.332,199.209,277,195.858,264.632,190.184z"/>
		<path fill="#FFFFFF" d="M267.525,188.012c-3.016-1.11-3.493,2.466-3.927,7.579c0,0,6.735,3.72,25.266,6.301
			c18.525,2.583,28.691,1.21,28.691,1.21s2.513-8.611-1.067-8.483c-2.405,0.086-15.109,0.82-27.755-1.493
			C277.221,191.019,270.593,189.138,267.525,188.012z"/>
	</g>
	<g>
		<g>
			<path fill="#FCCCB1" d="M270.491,164.058c0.017-0.292,0.029-0.58,0.046-0.864C270.52,163.479,270.507,163.766,270.491,164.058z"
				/>
			<path fill="#FCCCB1" d="M253.395,267.515c0.167-0.893,0.332-1.771,0.497-2.651C253.727,265.745,253.562,266.623,253.395,267.515z
				"/>
			<path fill="#FCCCB1" d="M254.248,262.963c0.187-0.99,0.368-1.968,0.552-2.945C254.616,260.996,254.434,261.972,254.248,262.963z"
				/>
			<path fill="#FCCCB1" d="M264.142,209.368c0.088-0.504,0.175-1.002,0.262-1.502C264.317,208.366,264.23,208.863,264.142,209.368z"
				/>
			<path fill="#FCCCB1" d="M270.368,165.922c0.022-0.307,0.043-0.611,0.062-0.913C270.411,165.311,270.39,165.616,270.368,165.922z"
				/>
			<path fill="#FCCCB1" d="M255.111,258.355c0.118-0.637,0.236-1.264,0.354-1.895C255.347,257.091,255.229,257.718,255.111,258.355z
				"/>
			<path fill="#FCCCB1" d="M268.649,181.41c0.056-0.397,0.11-0.797,0.163-1.187C268.759,180.613,268.705,181.013,268.649,181.41z"/>
			<path fill="#FCCCB1" d="M249.417,288.925c0.131-0.703,0.262-1.412,0.389-2.108C249.678,287.513,249.547,288.222,249.417,288.925z
				"/>
			<path fill="#FCCCB1" d="M256.603,250.384c0.017-0.084,0.032-0.167,0.047-0.251C256.635,250.217,256.62,250.3,256.603,250.384z"/>
			<path fill="#FCCCB1" d="M270.635,160.597c0.008-0.265,0.011-0.524,0.015-0.785C270.646,160.073,270.643,160.333,270.635,160.597z
				"/>
			<path fill="#FCCCB1" d="M248.448,294.184c0.144-0.77,0.284-1.543,0.425-2.307C248.732,292.641,248.591,293.415,248.448,294.184z"
				/>
			<path fill="#FCCCB1" d="M264.727,206.021c0.081-0.462,0.158-0.913,0.235-1.368C264.885,205.107,264.808,205.559,264.727,206.021z
				"/>
			<path fill="#FCCCB1" d="M270.58,162.281c0.013-0.278,0.022-0.549,0.03-0.82C270.602,161.732,270.592,162.003,270.58,162.281z"/>
			<path fill="#FCCCB1" d="M250.364,283.809c0.12-0.652,0.242-1.31,0.361-1.953C250.606,282.5,250.484,283.157,250.364,283.809z"/>
			<path fill="#FCCCB1" d="M251.573,277.29c0.016-0.084,0.032-0.17,0.048-0.255C251.605,277.12,251.588,277.207,251.573,277.29z"/>
			<path fill="#FCCCB1" d="M268.982,178.933c0.053-0.384,0.103-0.767,0.15-1.146C269.084,178.167,269.035,178.549,268.982,178.933z"
				/>
			<path fill="#FCCCB1" d="M260.91,227.245c0.103-0.551,0.203-1.099,0.304-1.645C261.113,226.146,261.012,226.693,260.91,227.245z"
				/>
			<path fill="#FCCCB1" d="M262.909,216.281c0.098-0.539,0.194-1.074,0.289-1.609C263.103,215.208,263.006,215.742,262.909,216.281z
				"/>
			<path fill="#FCCCB1" d="M260.202,231.092c0.103-0.558,0.206-1.116,0.308-1.669C260.408,229.977,260.304,230.534,260.202,231.092z
				"/>
			<path fill="#FCCCB1" d="M269.811,172.03c0.038-0.345,0.073-0.688,0.106-1.028C269.886,171.342,269.849,171.685,269.811,172.03z"
				/>
			<path fill="#FCCCB1" d="M262.26,219.875c0.104-0.575,0.207-1.144,0.31-1.714C262.467,218.73,262.364,219.299,262.26,219.875z"/>
			<path fill="#FCCCB1" d="M261.596,223.519c0.102-0.567,0.204-1.129,0.308-1.689C261.8,222.389,261.698,222.952,261.596,223.519z"
				/>
			<path fill="#FCCCB1" d="M257.224,247.064c0.09-0.474,0.179-0.949,0.267-1.418C257.403,246.115,257.314,246.59,257.224,247.064z"
				/>
			<path fill="#FCCCB1" d="M257.953,243.177c0.113-0.608,0.228-1.218,0.341-1.819C258.179,241.96,258.066,242.569,257.953,243.177z"
				/>
			<path fill="#FCCCB1" d="M270.214,167.873c0.028-0.322,0.054-0.641,0.078-0.957C270.268,167.231,270.243,167.55,270.214,167.873z"
				/>
			<path fill="#FCCCB1" d="M263.541,212.754c0.095-0.515,0.182-1.023,0.271-1.533C263.722,211.73,263.635,212.239,263.541,212.754z"
				/>
			<path fill="#FCCCB1" d="M247.486,299.435c0.149-0.811,0.297-1.626,0.444-2.431C247.783,297.809,247.635,298.625,247.486,299.435z
				"/>
			<path fill="#FCCCB1" d="M259.453,235.125c0.114-0.614,0.229-1.227,0.341-1.833C259.681,233.9,259.567,234.51,259.453,235.125z"/>
			<path fill="#FCCCB1" d="M270.029,169.906c0.03-0.332,0.063-0.66,0.092-0.986C270.092,169.246,270.059,169.574,270.029,169.906z"
				/>
			<path fill="#FCCCB1" d="M258.691,239.215c0.127-0.672,0.252-1.343,0.376-2.009C258.943,237.872,258.818,238.542,258.691,239.215z
				"/>
			<path fill="#FCCCB1" d="M270.402,153.479c-0.02-0.188-0.045-0.363-0.071-0.544C270.357,153.116,270.382,153.292,270.402,153.479z
				"/>
			<path fill="#FCCCB1" d="M270.659,158.998c0.002-0.251-0.002-0.494-0.003-0.739C270.657,158.504,270.661,158.746,270.659,158.998z
				"/>
			<path fill="#FCCCB1" d="M237.403,356.355c0.164-0.959,0.326-1.912,0.489-2.868C237.729,354.443,237.567,355.394,237.403,356.355z
				"/>
			<path fill="#FCCCB1" d="M238.447,350.268c0.164-0.957,0.328-1.904,0.493-2.855C238.775,348.364,238.611,349.311,238.447,350.268z
				"/>
			<path fill="#FFDBB1" d="M371.543,51.929c-2.248-1.451-6.71-1.893-11.532,4.211c-4.822,6.108-14.415,16.631-18.132,20.256
				c-3.717,3.625-8.038,8.859-9.914,7.461c-1.878-1.396-0.147-8.315,2.248-13.258c2.394-4.941,7.516-16.851,9.348-22.624
				c1.827-5.774,8.018-19.043,8.815-21.949c0.797-2.902-0.425-6.281-3.751-8.07c-3.332-1.791-7.138-0.821-10.61,6.042
				c-3.471,6.867-6.861,16.191-8.572,20.285c-1.71,4.095-12.447,24.829-14.489,27.559c-2.043,2.725-5.503,0.539-4.719-3.685
				c0.786-4.225,2.161-17.981,2.444-23.976c0.28-5.996,1.028-16.638,1.395-20.545c0.361-3.911,1.605-12.972,1.779-15.399
				c0.17-2.429,0.29-7.312-5.622-8.146c-5.916-0.837-8.521,4.262-9.146,8.701c-0.627,4.438-1.585,11.656-2.585,15.852
				c-1.002,4.193-2.882,16.181-3.481,21.755c-0.597,5.574-0.504,21.424-4.655,21.214c-4.154-0.208-6.432-20.141-7.337-24.416
				c-0.902-4.276-2.055-13.489-3.036-17.21c-0.982-3.722-1.403-19.43-9.879-18.175c-8.473,1.254-7.006,9.568-6.393,14.558
				c0.617,4.987,3.076,23.624,3.746,30.885c0.673,7.259,4.54,30.618,0.645,38.178c-3.896,7.555-5.011,4.759-8.005-0.755
				c-2.989-5.51-5.88-14.404-11.485-19.439c-3.305-2.964-10.204-7.192-14.771-4.252c-4.56,2.937-0.546,5.202,1.441,9.817
				c1.992,4.617,5.971,17.812,8.725,22.352c2.755,4.535,2.602,11.52,3.907,15.069c2.52,6.858,8.604,15.167,11.146,19.863
				c2.543,4.695,9.405,12.079,10.481,15.243c0.293,0.86,0.524,1.858,0.701,2.991c0.725,0.116,1.452,0.217,2.185,0.299
				c7.482,0.826,15.291-1.312,22.335-4.599c3.563,3.354,7.509,6.305,11.771,8.77c1.777,1.028,3.645,1.792,5.556,2.309
				c0.813,0.728,2.524,1.49,3.438,2.123c0.939,0.648,2.779,1.303,3.779,1.84c0,0.002,0,0.003,0,0.006
				c0-3.19,1.986-8.709,4.102-12.591c2.291-4.201,7.989-15.816,9.569-20.873c1.579-5.054,5.139-15.48,6.574-19.237
				c2.169-5.673,3.675-12.103,3.675-12.103s9.38-12.06,12.966-16.079c3.584-4.019,12.992-14.759,15.781-19.83
				C374.774,57.285,373.789,53.375,371.543,51.929z"/>
			<path fill="#FFD49A" d="M294.25,146.269c-0.755-7.83,0.884-11.855-3.161-23.525c-4.044-11.669-21.956-22.922-24.945-24.748
				c-1.109-0.679-2.088-1.488-2.94-2.398c-0.321-0.277-0.642-0.675-0.975-1.173c-0.843-1.111-1.529-2.332-2.061-3.631
				c-0.021-0.039-0.042-0.077-0.063-0.115c-2.989-5.51-5.88-14.404-11.485-19.439c-3.305-2.964-10.204-7.192-14.771-4.252
				c-4.56,2.937-0.546,5.202,1.441,9.817c1.992,4.617,5.971,17.812,8.725,22.352c2.755,4.535,2.602,11.52,3.907,15.069
				c2.52,6.858,8.604,15.167,11.146,19.863c2.543,4.695,9.405,12.079,10.481,15.243c0.293,0.86,0.524,1.858,0.701,2.991
				c0.725,0.116,1.452,0.217,2.185,0.299c6.383,0.705,14.477,2.217,22.013-4.521C294.382,147.491,294.309,146.882,294.25,146.269z"
				/>
			<path fill="#FCCCB1" d="M267.905,186.572c0.061-0.403,0.122-0.812,0.18-1.208C268.027,185.761,267.965,186.169,267.905,186.572z"
				/>
			<path fill="#FCCCB1" d="M266.324,196.603c0.037-0.224,0.071-0.441,0.106-0.664C266.395,196.162,266.361,196.378,266.324,196.603z
				"/>
			<path fill="#FCCCB1" d="M233.173,381.587c0.143-0.87,0.285-1.734,0.429-2.602C233.458,379.854,233.316,380.717,233.173,381.587z"
				/>
			<path fill="#FCCCB1" d="M239.487,344.253c0.162-0.938,0.325-1.869,0.486-2.799C239.812,342.384,239.649,343.316,239.487,344.253z
				"/>
			<path fill="#FCCCB1" d="M267.501,189.218c0.06-0.381,0.122-0.769,0.178-1.147C267.624,188.449,267.561,188.836,267.501,189.218z"
				/>
			<path fill="#FCCCB1" d="M232.101,388.133c0.132-0.809,0.264-1.605,0.395-2.409C232.365,386.528,232.233,387.325,232.101,388.133z
				"/>
			<path fill="#FCCCB1" d="M267.103,191.774c0.049-0.305,0.1-0.616,0.147-0.917C267.203,191.158,267.152,191.469,267.103,191.774z"
				/>
			<path fill="#FCCCB1" d="M234.24,375.127c0.156-0.93,0.31-1.849,0.463-2.772C234.549,373.279,234.396,374.198,234.24,375.127z"/>
			<path fill="#FCCCB1" d="M235.296,368.802c0.166-0.989,0.332-1.972,0.497-2.957C235.628,366.831,235.462,367.813,235.296,368.802z
				"/>
			<path fill="#FCCCB1" d="M236.346,362.566c0.17-1.003,0.339-1.994,0.507-2.988C236.685,360.572,236.516,361.563,236.346,362.566z"
				/>
			<path fill="#FCCCB1" d="M268.29,183.952c0.059-0.401,0.115-0.807,0.173-1.202C268.405,183.145,268.348,183.551,268.29,183.952z"
				/>
			<path fill="#FCCCB1" d="M243.557,321.152c0.159-0.895,0.32-1.784,0.478-2.673C243.877,319.368,243.716,320.257,243.557,321.152z"
				/>
			<path fill="#FCCCB1" d="M244.551,315.61c0.156-0.875,0.314-1.75,0.471-2.621C244.866,313.86,244.708,314.735,244.551,315.61z"/>
			<path fill="#FCCCB1" d="M265.281,202.805c0.078-0.465,0.157-0.917,0.234-1.377C265.438,201.888,265.359,202.34,265.281,202.805z"
				/>
			<path fill="#FCCCB1" d="M246.514,304.761c0.154-0.847,0.309-1.693,0.462-2.531C246.823,303.068,246.668,303.915,246.514,304.761z
				"/>
			<path fill="#FCCCB1" d="M270.601,156.062c-0.01-0.218-0.024-0.428-0.039-0.641C270.577,155.634,270.591,155.844,270.601,156.062z
				"/>
			<path fill="#FCCCB1" d="M270.648,157.486c-0.005-0.236-0.012-0.46-0.021-0.689C270.636,157.025,270.643,157.25,270.648,157.486z"
				/>
			<path fill="#FCCCB1" d="M245.545,310.11c0.149-0.846,0.305-1.69,0.456-2.529C245.85,308.419,245.695,309.264,245.545,310.11z"/>
			<path fill="#FCCCB1" d="M270.52,154.725c-0.016-0.204-0.036-0.398-0.054-0.594C270.483,154.327,270.504,154.521,270.52,154.725z"
				/>
			<path fill="#FCCCB1" d="M240.51,338.377c0.168-0.957,0.334-1.91,0.502-2.861C240.844,336.467,240.678,337.42,240.51,338.377z"/>
			<path fill="#FCCCB1" d="M242.554,326.787c0.158-0.895,0.317-1.784,0.475-2.672C242.872,325.002,242.712,325.892,242.554,326.787z
				"/>
			<path fill="#FCCCB1" d="M241.531,332.569c0.164-0.933,0.329-1.863,0.492-2.788C241.86,330.706,241.695,331.636,241.531,332.569z"
				/>
			<path fill="#FCCCB1" d="M265.814,199.661c0.069-0.411,0.136-0.811,0.204-1.216C265.95,198.85,265.883,199.25,265.814,199.661z"/>
			<path fill="#FFD49A" d="M315.536,161.224c-0.914-0.633-2.201-1.359-3.017-2.087c-1.908-0.516-3.988-1.298-5.767-2.326
				c-4.259-2.464-8.314-5.425-11.876-8.779c-7.044,3.287-14.905,5.421-22.387,4.595c-0.733-0.082-1.49-0.185-2.216-0.301l0,0
				c0.031,0.197,0.046,0.407,0.072,0.611c0.024,0.181,0.042,0.355,0.063,0.543c0.023,0.209,0.04,0.434,0.062,0.651
				c0.018,0.196,0.034,0.39,0.05,0.593c0.019,0.226,0.03,0.464,0.042,0.696c0.015,0.213,0.029,0.422,0.039,0.641
				c0.013,0.239,0.019,0.488,0.025,0.735c0.01,0.229,0.017,0.453,0.021,0.689c0.005,0.253,0.006,0.513,0.008,0.773
				c0.001,0.245,0.005,0.487,0.003,0.739c-0.001,0.268-0.005,0.542-0.009,0.814c-0.004,0.261-0.007,0.521-0.015,0.785
				c-0.004,0.282-0.016,0.574-0.025,0.863c-0.008,0.271-0.018,0.542-0.03,0.82c-0.012,0.3-0.027,0.604-0.043,0.913
				c-0.017,0.285-0.029,0.572-0.046,0.864c-0.019,0.313-0.039,0.629-0.062,0.952c-0.019,0.301-0.039,0.606-0.062,0.913
				c-0.023,0.328-0.049,0.66-0.075,0.994c-0.024,0.315-0.05,0.634-0.078,0.957c-0.03,0.344-0.062,0.693-0.094,1.047
				c-0.028,0.326-0.062,0.654-0.092,0.986c-0.036,0.364-0.07,0.728-0.111,1.096c-0.033,0.34-0.068,0.683-0.106,1.028
				c-0.04,0.379-0.854,7.768-0.914,8.203c-0.051,0.39-0.151,0.785-0.203,1.183c-0.063,0.444-0.144,0.884-0.208,1.337
				c-0.059,0.394-0.128,0.799-0.186,1.2c-0.066,0.469-0.14,0.935-0.21,1.412c-0.058,0.396-0.122,0.804-0.183,1.207
				c-0.074,0.498-0.15,0.994-0.228,1.499c-0.057,0.378-0.119,0.766-0.179,1.147c-0.082,0.545-0.166,1.085-0.251,1.639
				c-0.048,0.301-0.099,0.612-0.147,0.917c-0.214,1.359-0.438,2.747-0.673,4.165c-0.035,0.223-0.069,0.439-0.106,0.664
				c-0.1,0.605-0.205,1.227-0.306,1.842c-0.068,0.406-0.135,0.805-0.204,1.216c-0.098,0.583-0.198,1.178-0.299,1.768
				c-0.077,0.46-0.156,0.912-0.234,1.377c-0.104,0.608-0.211,1.229-0.318,1.847c-0.077,0.455-0.154,0.906-0.235,1.368
				c-0.107,0.608-0.215,1.229-0.323,1.845c-0.087,0.5-0.174,0.998-0.262,1.502c-0.108,0.613-0.22,1.233-0.33,1.853
				c-0.09,0.51-0.177,1.019-0.271,1.533c-0.111,0.632-0.228,1.277-0.343,1.918c-0.095,0.535-0.191,1.07-0.289,1.609
				c-0.111,0.621-0.225,1.25-0.339,1.879c-0.103,0.57-0.206,1.139-0.31,1.714c-0.119,0.647-0.238,1.302-0.356,1.955
				c-0.104,0.56-0.206,1.123-0.308,1.689c-0.126,0.688-0.253,1.384-0.383,2.082c-0.101,0.545-0.201,1.093-0.304,1.645
				c-0.132,0.721-0.267,1.448-0.4,2.178c-0.102,0.553-0.205,1.111-0.308,1.669c-0.136,0.729-0.271,1.462-0.408,2.2
				c-0.112,0.605-0.227,1.218-0.341,1.833c-0.127,0.69-0.257,1.381-0.386,2.081c-0.124,0.666-0.249,1.336-0.376,2.009
				c-0.132,0.711-0.266,1.425-0.397,2.143c-0.113,0.602-0.228,1.211-0.341,1.819c-0.153,0.82-0.308,1.639-0.462,2.469
				c-0.088,0.469-0.177,0.944-0.267,1.418c-0.188,1.018-0.38,2.036-0.574,3.069c-0.015,0.084-0.03,0.167-0.047,0.251
				c-0.372,1.993-0.753,4.025-1.138,6.076c-0.118,0.631-0.236,1.258-0.354,1.895c-0.103,0.55-0.207,1.11-0.312,1.663
				c-0.184,0.978-0.365,1.955-0.552,2.945c-0.117,0.627-0.239,1.266-0.355,1.9c-0.165,0.88-0.33,1.759-0.497,2.651
				c-0.58,3.113-1.174,6.287-1.774,9.52c-0.016,0.085-0.032,0.171-0.048,0.255c-0.28,1.51-0.563,3.029-0.848,4.566
				c-0.119,0.644-0.241,1.301-0.361,1.953c-0.187,0.999-0.37,1.994-0.559,3.008c-0.127,0.696-0.258,1.405-0.389,2.108
				c-0.181,0.981-0.362,1.96-0.544,2.952c-0.141,0.764-0.281,1.537-0.425,2.307c-0.17,0.938-0.344,1.873-0.518,2.82
				c-0.147,0.805-0.295,1.62-0.444,2.431c-0.17,0.929-0.34,1.855-0.51,2.795c-0.153,0.838-0.308,1.685-0.462,2.531
				c-0.171,0.937-0.34,1.873-0.513,2.819c-0.151,0.839-0.307,1.684-0.456,2.529c-0.176,0.956-0.348,1.913-0.523,2.879
				c-0.156,0.871-0.314,1.746-0.471,2.621c-0.172,0.954-0.342,1.907-0.517,2.869c-0.157,0.889-0.318,1.778-0.478,2.673
				c-0.176,0.986-0.351,1.971-0.528,2.963c-0.157,0.888-0.316,1.777-0.475,2.672c-0.178,0.994-0.354,1.992-0.531,2.994
				c-0.163,0.925-0.328,1.855-0.492,2.788c-0.172,0.979-0.346,1.961-0.519,2.947c-0.168,0.951-0.334,1.904-0.502,2.861
				c-0.179,1.021-0.357,2.046-0.537,3.077c-0.161,0.93-0.324,1.861-0.486,2.799c-0.183,1.048-0.364,2.103-0.547,3.159
				c-0.165,0.951-0.329,1.898-0.493,2.855c-0.185,1.068-0.368,2.143-0.555,3.219c-0.163,0.956-0.325,1.909-0.489,2.868
				c-0.183,1.068-0.366,2.146-0.55,3.223c-0.168,0.994-0.337,1.985-0.507,2.988c-0.185,1.087-0.368,2.184-0.553,3.279
				c-0.165,0.985-0.331,1.968-0.497,2.957c-0.197,1.179-0.396,2.367-0.594,3.553c-0.153,0.924-0.307,1.843-0.463,2.772
				c-0.211,1.277-0.424,2.568-0.638,3.858c-0.144,0.867-0.286,1.731-0.429,2.602c-0.227,1.369-0.45,2.753-0.678,4.137
				c-0.131,0.804-0.263,1.601-0.395,2.409c-0.356,2.186-7.548,61.973-7.905,64.189l70.766,12.123
				c6.229-70.113,14.067-164.566,17.622-213.287c2.527-34.627,5.651-86.565,5.755-87.421c0.029-0.227,0.977-0.403,0.977-0.667
				c0-0.003,0-0.004,0-0.006C318.315,162.527,316.475,161.873,315.536,161.224z"/>
		</g>
		<path fill="#C1282D" d="M264.632,190.184c0,0-41.07,236.687-45.511,262.606l79.481,13.613c0,0,18.747-235.089,18.729-267.193
			C317.332,199.209,277,195.858,264.632,190.184z"/>
		<path fill="#F79421" d="M267.525,188.012c-3.016-1.11-3.493,2.466-3.927,7.579c0,0,6.735,3.72,25.266,6.301
			c18.525,2.583,28.691,1.21,28.691,1.21s2.513-8.611-1.067-8.483c-2.405,0.086-15.109,0.82-27.755-1.493
			C277.221,191.019,270.593,189.138,267.525,188.012z"/>
	</g>
</g>
<g>
	<g>
		<path fill="#AE785B" d="M195.87,177.45c-0.002,0.096-0.003,0.187-0.004,0.276C195.867,177.636,195.868,177.545,195.87,177.45z"/>
		<path fill="#AE785B" d="M144.651,167.467c-0.105-0.115-0.211-0.231-0.316-0.35C144.441,167.236,144.545,167.351,144.651,167.467z"
			/>
		<path fill="#AE785B" d="M195.971,176.446c-0.002,0.03-0.003,0.063-0.005,0.097C195.968,176.509,195.969,176.476,195.971,176.446z"
			/>
		<path fill="#AE785B" d="M143.938,166.671c-0.185-0.207-0.369-0.417-0.552-0.63C143.57,166.254,143.753,166.464,143.938,166.671z"
			/>
		<path fill="#AE785B" d="M145.453,168.338c-0.089-0.095-0.177-0.19-0.267-0.285C145.276,168.148,145.364,168.244,145.453,168.338z"
			/>
		<path fill="#AE785B" d="M203.533,146.133c0.71-4.72,2.505-11.878,2.97-15.476c0.633-4.874,1.555-8.188,2.121-13.868
			c0,0,6.736-12.037,9.375-16.109c2.637-4.073,9.561-14.938,11.345-19.841c1.782-4.9,0.393-8.249-1.809-9.228
			c-2.198-0.981-6.235-0.759-9.688,5.341c-3.449,6.106-10.543,16.799-13.35,20.542c-2.811,3.738-5.938,8.996-7.801,8.011
			c-1.867-0.982-1.279-7.384,0.172-12.116c1.449-4.729,4.369-16.042,5.202-21.436c0.832-5.396,4.513-18.066,4.823-20.761
			c0.311-2.698-1.244-5.538-4.455-6.671c-3.213-1.136-6.469,0.254-8.615,6.845c-2.143,6.59-3.874,15.363-4.834,19.246
			c-0.958,3.883-7.659,23.827-9.098,26.54c-1.447,2.707-4.83,1.241-4.713-2.63c0.117-3.872-0.556-16.313-1.132-21.691
			c-0.581-5.377-1.38-14.956-1.596-18.486c-0.214-3.533-0.358-11.773-0.539-13.959c-0.183-2.187-0.748-6.553-6.128-6.479
			c-5.384,0.07-7,4.971-6.947,9.011c0.055,4.039,0.199,10.598-0.113,14.474c-0.314,3.873-0.335,14.807-0.101,19.853
			c0.238,5.047,2.509,19.15-1.219,19.536c-3.727,0.387-8.505-17.049-9.9-20.732c-1.394-3.682-3.692-11.728-5.081-14.906
			c-1.387-3.176-3.932-17.109-11.304-14.821c-7.372,2.284-4.918,9.487-3.682,13.846c1.237,4.356,5.996,20.613,7.598,26.987
			c1.599,6.373,8.266,26.641,5.838,33.91c-2.425,7.268-3.806,4.928-7.233,0.433c-3.421-4.498-7.223-12.018-12.913-15.727
			c-3.348-2.184-10.076-4.997-13.736-1.749c-3.655,3.244,0.233,4.707,2.64,8.544c2.409,3.838,7.775,15.041,10.851,18.7
			c3.079,3.657,3.909,9.901,5.558,12.881c3.191,5.761,9.756,12.319,12.668,16.15c1.048,1.378,2.472,3.163,3.991,4.948
			c0.83,0.831,1.646,1.681,2.44,2.546c5.996,6.558,17.209,5.097,23.443-0.334c0.947,1.067,1.893,2.134,2.84,3.204
			c3.48,3.002,8.078,4.538,12.663,4.26c4.308-0.266,8.411-2.158,11.451-5.199c0.305,0.239,0.61,0.476,0.921,0.702
			c0.25-1.559,0.588-3.075,1.051-4.355C198.966,162.01,202.821,150.854,203.533,146.133z"/>
		<path fill="#A16E57" d="M168.774,166.425c-0.377-1.649-0.622-3.373-1.084-5.013c-0.229-0.457-1.247-3.019-1.462-3.5
			c-1.607-3.599-3.331-7.155-5.301-10.571c-0.935-1.62-1.905-3.222-2.927-4.787c-0.277-0.341-2.035-2.806-2.396-3.252
			c-1.364-1.681-2.767-3.336-4.299-4.868c-0.67-0.67-1.346-1.337-2.049-1.978c-0.01-0.006-0.016-0.012-0.027-0.02
			c-1.383-1.072-2.793-2.118-4.299-3.015c-0.583-0.348-1.173-0.687-1.769-1.017c-0.156-0.065-0.351-0.149-0.617-0.266
			c-1.546-0.651-2.951-1.513-4.191-2.531c-1.276,0.591-2.608-1.353-4.713-4.112c-3.421-4.498-7.223-12.018-12.913-15.727
			c-3.348-2.184-10.076-4.997-13.736-1.749c-3.655,3.244,0.233,4.707,2.64,8.544c2.409,3.838,7.775,15.041,10.851,18.7
			c3.079,3.657,3.909,9.901,5.558,12.881c3.191,5.761,9.756,12.319,12.668,16.15c1.048,1.378,2.472,3.163,3.991,4.948
			c0.83,0.831,1.646,1.681,2.44,2.546c5.996,6.558,17.209,5.097,23.443-0.334c0.222,0.25,0.443,0.502,0.666,0.751
			C169.073,167.62,168.911,167.025,168.774,166.425z"/>
		<path fill="#AE785B" d="M196.02,175.467c0.004-0.044,0.006-0.089,0.008-0.134C196.026,175.38,196.024,175.423,196.02,175.467z"/>
		<path fill="#AE785B" d="M143.126,165.742c-0.144-0.165-0.286-0.331-0.427-0.497C142.84,165.411,142.982,165.577,143.126,165.742z"
			/>
		<path fill="#AE785B" d="M146.192,169.113c-0.076-0.078-0.153-0.157-0.229-0.238C146.039,168.956,146.116,169.035,146.192,169.113z
			"/>
		<path fill="#AE785B" d="M148.412,171.214c-0.045-0.04-0.091-0.076-0.137-0.115C148.321,171.138,148.367,171.174,148.412,171.214z"
			/>
		<path fill="#AE785B" d="M149.012,171.699c-0.027-0.02-0.054-0.041-0.08-0.063C148.958,171.658,148.985,171.679,149.012,171.699z"
			/>
		<path fill="#AE785B" d="M195.315,178.28c0,0.093,0,0.185,0,0.273C195.315,178.466,195.315,178.371,195.315,178.28z"/>
		<path fill="#AE785B" d="M149.66,172.151c-0.039-0.025-0.079-0.05-0.118-0.076C149.581,172.101,149.62,172.125,149.66,172.151z"/>
		<path fill="#AE785B" d="M146.982,169.903c-0.052-0.05-0.104-0.098-0.155-0.151C146.878,169.805,146.93,169.853,146.982,169.903z"
			/>
		<path fill="#AE785B" d="M147.67,170.558c-0.05-0.045-0.101-0.094-0.152-0.143C147.569,170.464,147.62,170.513,147.67,170.558z"/>
		<path fill="#A16E57" d="M184.085,174.92c-4.585,0.278-9.183-1.258-12.663-4.26c-0.947-1.07-1.893-2.137-2.84-3.204
			c-6.234,5.431-17.448,6.892-23.443,0.334c-0.795-0.865-1.611-1.715-2.44-2.546l0,0l0,0c0.142,0.166,0.284,0.332,0.427,0.497
			c0.085,0.1,0.173,0.2,0.26,0.3c0.184,0.213,0.368,0.423,0.552,0.63c0.132,0.15,0.265,0.3,0.396,0.446
			c0.105,0.118,0.211,0.234,0.316,0.35c0.179,0.198,0.358,0.393,0.535,0.586c0.09,0.095,0.178,0.19,0.267,0.285
			c0.171,0.182,0.34,0.361,0.51,0.536c0.076,0.081,0.153,0.16,0.229,0.238c0.215,0.22,0.425,0.434,0.635,0.639
			c0.052,0.054,0.103,0.102,0.155,0.151c0.182,0.179,0.36,0.35,0.536,0.513c0.051,0.049,0.103,0.098,0.152,0.143
			c0.207,0.19,0.407,0.372,0.605,0.541c0.046,0.039,0.092,0.075,0.137,0.115c0.178,0.151,0.352,0.292,0.52,0.422
			c0.026,0.021,0.053,0.043,0.08,0.063c0.185,0.142,0.361,0.265,0.53,0.376c0.039,0.026,0.08,0.051,0.118,0.076
			c0.169,0.106,0.333,0.204,0.484,0.276c2.099,1.014,0.917,157.867,0.404,272.128l54.283,2.754
			c-3.788-88.603-9.183-266.401-9.231-268.094c-0.006-0.199-0.285-0.427-0.285-0.662c0-0.089,0-0.181,0-0.273
			c0-0.176,0.273-0.36,0.277-0.554c0-0.09,0.176-0.179,0.177-0.274c0.006-0.29,0.112-0.592,0.128-0.909
			c0.004-0.033,0.039-0.066,0.041-0.097c0.016-0.315,0.048-0.642,0.065-0.979c0.001-0.044,0.015-0.087,0.017-0.134
			c0.077-1.528,0.211-3.242,0.477-4.906c0,0-0.02-0.002-0.021-0.002c-0.312-0.228-0.626-0.465-0.931-0.704
			C192.504,172.764,188.393,174.655,184.085,174.92z"/>
	</g>
	<path fill="#2F6F7E" d="M209.084,447.526c-1.955-35.882-7.793-223.062-7.793-223.062l-53.713,3.47
		c-1.739,13.191,0.038,188.332,0.418,216.491L209.084,447.526z"/>
	<path id="XMLID_2_" fill="#62A9B9" d="M164.997,213.17c-6.959,0.12-18.056-4.113-20.88-0.343
		c-2.825,3.769-0.214,16.903,0.119,21.255c0.334,4.353,14.893,0.599,21.5,0.541c6.605-0.061,19.017,0.785,26.779-0.127
		c7.764-0.91,13.62-0.741,12.616-7.54c-1.003-6.796,1.313-19.247-8.739-17.05C186.34,212.102,181.885,212.88,164.997,213.17z"/>
</g>
<g>
	<g>
		<path fill="#AE785B" d="M41.354,200.802c0.011,0.089,0.02,0.172,0.029,0.256C41.374,200.974,41.364,200.89,41.354,200.802z"/>
		<path fill="#AE785B" d="M87.841,186.701c0.086-0.116,0.174-0.236,0.26-0.353C88.013,186.465,87.929,186.583,87.841,186.701z"/>
		<path fill="#AE785B" d="M41.221,199.872c0.005,0.029,0.01,0.06,0.014,0.09C41.231,199.932,41.226,199.901,41.221,199.872z"/>
		<path fill="#AE785B" d="M88.426,185.896c0.15-0.21,0.301-0.423,0.451-0.636C88.727,185.473,88.577,185.686,88.426,185.896z"/>
		<path fill="#AE785B" d="M87.18,187.584c0.073-0.096,0.146-0.193,0.221-0.291C87.327,187.391,87.253,187.488,87.18,187.584z"/>
		<path fill="#FCCCB1" d="M31.287,172.526c-1.104-4.304-3.445-10.763-4.217-14.05c-1.047-4.455-2.217-7.436-3.278-12.642
			c0,0-7.38-10.509-10.212-14.029c-2.827-3.523-10.269-12.929-12.386-17.3c-2.116-4.37-1.146-7.603,0.799-8.717
			c1.944-1.118,5.703-1.294,9.479,4.027c3.774,5.327,11.357,14.56,14.312,17.759c2.958,3.195,6.351,7.769,7.985,6.679
			c1.635-1.087,0.483-6.959-1.309-11.206c-1.792-4.24-5.569-14.442-6.85-19.356c-1.282-4.919-5.893-16.303-6.436-18.77
			c-0.543-2.47,0.627-5.246,3.494-6.601c2.866-1.357,6.014-0.378,8.626,5.521c2.61,5.902,5.046,13.863,6.303,17.367
			c1.256,3.505,9.353,21.338,10.943,23.717c1.596,2.369,4.59,0.69,4.114-2.883c-0.475-3.576-1.032-15.162-1.009-20.196
			c0.028-5.035-0.141-13.981-0.274-17.271c-0.137-3.294-0.786-10.939-0.823-12.98c-0.038-2.042,0.071-6.138,5.06-6.58
			c4.994-0.446,6.955,3.94,7.289,7.686c0.332,3.746,0.819,9.833,1.477,13.392c0.658,3.557,1.716,13.683,1.977,18.376
			c0.257,4.697-0.508,17.972,2.981,17.978c3.489,0.005,6.259-16.597,7.204-20.142c0.94-3.541,2.305-11.209,3.29-14.284
			c0.984-3.073,2.019-16.219,9.064-14.797c7.044,1.417,5.454,8.318,4.722,12.474c-0.731,4.151-3.596,19.657-4.476,25.712
			c-0.876,6.055-5.129,25.456-2.192,31.958c2.935,6.5,3.992,4.205,6.739-0.286c2.742-4.489,5.549-11.815,10.467-15.788
			c2.896-2.341,8.859-5.585,12.557-2.923c3.693,2.659,0.231,4.383-1.635,8.163c-1.866,3.783-5.772,14.667-8.274,18.347
			c-2.506,3.678-2.683,9.54-3.928,12.455c-2.409,5.64-7.866,12.336-10.2,16.16c-0.839,1.375-1.99,3.165-3.227,4.959
			c-0.689,0.851-1.365,1.713-2.018,2.591c-4.93,6.642-15.455,6.351-21.744,1.914c-0.775,1.078-1.55,2.158-2.326,3.238
			c-2.938,3.109-7.052,4.969-11.324,5.145c-4.014,0.163-7.993-1.201-11.097-3.73c-0.259,0.251-0.521,0.499-0.788,0.739
			c-0.376-1.419-0.835-2.792-1.384-3.935C37.021,186.797,32.394,176.832,31.287,172.526z"/>
		<path fill="#FBC09B" d="M65.402,188.023c0.192-1.564,0.256-3.184,0.528-4.747c0.169-0.445,0.868-2.913,1.022-3.378
			c1.148-3.485,2.406-6.943,3.906-10.293c0.712-1.589,1.459-3.165,2.258-4.71c0.224-0.343,1.617-2.792,1.911-3.24
			c1.103-1.685,2.245-3.353,3.519-4.916c0.557-0.684,1.121-1.367,1.71-2.024c0.009-0.009,0.014-0.016,0.023-0.023
			c1.179-1.124,2.386-2.229,3.695-3.199c0.508-0.377,1.022-0.749,1.542-1.108c0.139-0.075,0.31-0.172,0.546-0.305
			c1.369-0.75,2.589-1.682,3.64-2.741c1.239,0.425,2.288-1.499,3.975-4.256c2.742-4.489,5.549-11.815,10.467-15.788
			c2.896-2.341,8.859-5.585,12.557-2.923c3.693,2.659,0.231,4.383-1.635,8.163c-1.866,3.783-5.772,14.667-8.274,18.347
			c-2.506,3.678-2.683,9.54-3.928,12.455c-2.409,5.64-7.866,12.336-10.2,16.16c-0.839,1.375-1.99,3.165-3.227,4.959
			c-0.689,0.851-1.365,1.713-2.018,2.591c-4.93,6.642-15.455,6.351-21.744,1.914c-0.182,0.253-0.363,0.505-0.546,0.759
			C65.238,189.156,65.331,188.592,65.402,188.023z"/>
		<path fill="#AE785B" d="M41.083,198.973c-0.007-0.042-0.013-0.083-0.019-0.124C41.07,198.891,41.076,198.931,41.083,198.973z"/>
		<path fill="#AE785B" d="M89.09,184.958c0.117-0.168,0.231-0.333,0.348-0.503C89.322,184.624,89.208,184.789,89.09,184.958z"/>
		<path fill="#AE785B" d="M86.57,188.371c0.063-0.08,0.126-0.161,0.189-0.242C86.696,188.209,86.633,188.291,86.57,188.371z"/>
		<path fill="#AE785B" d="M84.713,190.527c0.039-0.041,0.078-0.08,0.116-0.121C84.791,190.447,84.751,190.487,84.713,190.527z"/>
		<path fill="#AE785B" d="M84.204,191.034c0.023-0.021,0.044-0.045,0.068-0.066C84.248,190.989,84.227,191.013,84.204,191.034z"/>
		<path fill="#AE785B" d="M41.439,201.571c0.008,0.084,0.018,0.169,0.026,0.252C41.457,201.74,41.447,201.654,41.439,201.571z"/>
		<path fill="#AE785B" d="M83.646,191.513c0.033-0.026,0.068-0.053,0.101-0.081C83.714,191.46,83.681,191.486,83.646,191.513z"/>
		<path fill="#AE785B" d="M85.913,189.177c0.044-0.05,0.087-0.101,0.13-0.155C86,189.076,85.957,189.127,85.913,189.177z"/>
		<path fill="#AE785B" d="M85.338,189.85c0.043-0.047,0.085-0.098,0.127-0.146C85.423,189.751,85.381,189.802,85.338,189.85z"/>
		<path fill="#FBC09B" d="M52.026,197.342c4.272-0.176,8.386-2.036,11.324-5.145c0.775-1.08,1.551-2.16,2.326-3.238
			c6.289,4.437,16.813,4.728,21.744-1.914c0.653-0.878,1.329-1.741,2.018-2.591l0,0l0,0c-0.116,0.169-0.231,0.334-0.348,0.503
			c-0.072,0.101-0.142,0.203-0.213,0.303c-0.15,0.213-0.301,0.425-0.451,0.636c-0.109,0.152-0.217,0.302-0.324,0.452
			c-0.086,0.117-0.174,0.236-0.26,0.353c-0.147,0.2-0.293,0.397-0.44,0.593c-0.074,0.097-0.147,0.194-0.221,0.291
			c-0.142,0.185-0.281,0.366-0.421,0.545c-0.063,0.081-0.126,0.162-0.189,0.242c-0.177,0.224-0.353,0.442-0.527,0.652
			c-0.043,0.054-0.086,0.104-0.13,0.155c-0.15,0.182-0.3,0.359-0.447,0.526c-0.042,0.048-0.084,0.099-0.127,0.146
			c-0.173,0.196-0.343,0.382-0.509,0.557c-0.039,0.041-0.078,0.081-0.116,0.121c-0.151,0.156-0.297,0.305-0.441,0.44
			c-0.023,0.021-0.045,0.046-0.068,0.066c-0.159,0.148-0.309,0.278-0.456,0.398c-0.033,0.028-0.068,0.055-0.101,0.081
			c-0.147,0.115-0.29,0.222-0.423,0.301c-1.846,1.14,13.374,150.381,24.684,256.149l-50.012,7.698
			c-4.893-82.415-16.265-251.651-16.378-253.224c-0.013-0.185-0.032-0.395-0.052-0.615c-0.008-0.083-0.018-0.167-0.026-0.252
			c-0.017-0.163-0.036-0.335-0.056-0.513c-0.009-0.084-0.022-0.166-0.034-0.256c-0.033-0.268-0.069-0.546-0.114-0.84
			c-0.004-0.03-0.009-0.061-0.014-0.09c-0.044-0.289-0.091-0.591-0.138-0.899c-0.007-0.042-0.013-0.082-0.019-0.124
			c-0.217-1.41-0.529-2.979-0.932-4.495c0,0,0.005-0.002,0.006-0.002c0.267-0.241,0.529-0.488,0.788-0.739
			C44.031,196.142,48.012,197.505,52.026,197.342z"/>
	</g>
	<path fill="#8DC641" d="M53.979,456.266c-1.593-33.417-13.188-211.408-13.188-211.408l50.073-1.882
		c2.862,12.052,17.077,178.509,19.395,204.624L53.979,456.266z"/>
	<g>
		<defs>
			<path id="XMLID_12_" d="M73.333,230.956c6.456-0.55,16.332-5.521,19.304-2.297c2.974,3.222,1.801,15.633,1.905,19.694
				c0.102,4.063-13.735,1.968-19.859,2.54c-6.123,0.571-17.536,2.533-24.813,2.423c-7.275-0.107-12.684,0.604-12.398-5.784
				c0.285-6.392-3.041-17.704,6.477-16.622C53.466,231.991,57.664,232.288,73.333,230.956z"/>
		</defs>
		<use xlink:href="#XMLID_12_"  overflow="visible" fill="#079247"/>
		<clipPath id="XMLID_3_">
			<use xlink:href="#XMLID_12_"  overflow="visible"/>
		</clipPath>
	</g>
</g>
</svg>
