<?xml version="1.0" encoding="utf-8"?>
<!-- Generator: Adobe Illustrator 16.0.0, SVG Export Plug-In . SVG Version: 6.00 Build 0)  -->
<!DOCTYPE svg PUBLIC "-//W3C//DTD SVG 1.1//EN" "http://www.w3.org/Graphics/SVG/1.1/DTD/svg11.dtd">
<svg version="1.1" id="Layer_1" xmlns="http://www.w3.org/2000/svg" xmlns:xlink="http://www.w3.org/1999/xlink" x="0px" y="0px"
	 width="503.196px" height="588.264px" viewBox="0 0 503.196 588.264" enable-background="new 0 0 503.196 588.264"
	 xml:space="preserve">
<g>
	<path opacity="0.27" fill="#030303" d="M27.322,0v18.852H2.036C0.912,18.852,0,19.872,0,21.128c0,1.257,0.912,2.277,2.036,2.277
		h25.286v21.788H2.036C0.912,45.193,0,46.212,0,47.47s0.912,2.277,2.036,2.277h25.286v22.666H2.036C0.912,72.412,0,73.432,0,74.689
		c0,1.257,0.912,2.277,2.036,2.277h25.286v21.788H2.036C0.912,98.753,0,99.773,0,101.03c0,1.258,0.912,2.277,2.036,2.277h25.286
		v23.543H2.036c-1.124,0-2.036,1.02-2.036,2.276c0,1.258,0.912,2.277,2.036,2.277h25.286v21.788H2.036
		c-1.124,0-2.036,1.02-2.036,2.276s0.912,2.276,2.036,2.276h25.286v22.666H2.036c-1.124,0-2.036,1.02-2.036,2.277
		c0,1.256,0.912,2.275,2.036,2.275h25.286v21.787H2.036c-1.124,0-2.036,1.02-2.036,2.277c0,1.256,0.912,2.277,2.036,2.277h25.286
		v23.545H2.036c-1.124,0-2.036,1.018-2.036,2.273c0,1.26,0.912,2.279,2.036,2.279h25.286v21.787H2.036
		c-1.124,0-2.036,1.02-2.036,2.275c0,1.26,0.912,2.279,2.036,2.279h25.286v22.664H2.036c-1.124,0-2.036,1.02-2.036,2.277
		c0,1.256,0.912,2.275,2.036,2.275h25.286v21.789H2.036c-1.124,0-2.036,1.018-2.036,2.275s0.912,2.277,2.036,2.277h25.286v23.545
		H2.036c-1.124,0-2.036,1.02-2.036,2.275c0,1.258,0.912,2.277,2.036,2.277h25.286v21.789H2.036c-1.124,0-2.036,1.018-2.036,2.273
		c0,1.26,0.912,2.279,2.036,2.279h25.286v22.684H2.036c-1.124,0-2.036,1.02-2.036,2.275c0,1.26,0.912,2.279,2.036,2.279h25.286
		v23.543H2.036c-1.124,0-2.036,1.018-2.036,2.277c0,1.256,0.912,2.275,2.036,2.275h25.286v21.789H2.036
		c-1.124,0-2.036,1.018-2.036,2.275s0.912,2.277,2.036,2.277h25.286v22.666H2.036c-1.124,0-2.036,1.02-2.036,2.275
		c0,1.258,0.912,2.277,2.036,2.277h25.286v21.789H2.036C0.912,504.426,0,505.444,0,506.7c0,1.26,0.912,2.279,2.036,2.279h25.286
		v23.543H2.036c-1.124,0-2.036,1.02-2.036,2.277c0,1.256,0.912,2.275,2.036,2.275h25.286v21.789H2.036
		c-1.124,0-2.036,1.018-2.036,2.277c0,1.256,0.912,2.275,2.036,2.275h25.286v9.848h462.253V0H27.322z M47.979,567.526
		c-2.956,0-5.52-1.664-6.811-4.109h7.017c1.124,0,2.036-1.02,2.036-2.275c0-1.26-0.912-2.277-2.036-2.277h-7.844
		c0.473-3.801,3.708-6.746,7.638-6.746c4.255,0,7.705,3.451,7.705,7.705S52.233,567.526,47.979,567.526z M47.979,540.77
		c-2.784,0-5.216-1.48-6.57-3.695h6.776c1.124,0,2.036-1.02,2.036-2.275c0-1.258-0.912-2.277-2.036-2.277h-7.882
		c0.281-3.998,3.605-7.158,7.676-7.158c4.255,0,7.705,3.447,7.705,7.703S52.233,540.77,47.979,540.77z M47.979,514.016
		c-3.316,0-6.134-2.098-7.219-5.037h7.425c1.124,0,2.036-1.02,2.036-2.279c0-1.256-0.912-2.273-2.036-2.273h-7.667
		c0.841-3.342,3.857-5.818,7.461-5.818c4.255,0,7.705,3.447,7.705,7.703S52.233,514.016,47.979,514.016z M47.979,486.424
		c-2.823,0-5.284-1.521-6.625-3.787h6.832c1.124,0,2.036-1.02,2.036-2.277c0-1.256-0.912-2.275-2.036-2.275h-7.877
		c0.323-3.957,3.631-7.068,7.671-7.068c4.255,0,7.705,3.447,7.705,7.703C55.684,482.977,52.233,486.424,47.979,486.424z
		 M47.979,459.668c-3.011,0-5.612-1.732-6.879-4.25h7.085c1.124,0,2.036-1.02,2.036-2.277s-0.912-2.275-2.036-2.275h-7.822
		c0.534-3.732,3.735-6.604,7.616-6.604c4.255,0,7.705,3.447,7.705,7.703C55.684,456.219,52.233,459.668,47.979,459.668z
		 M47.979,432.915c-2.844,0-5.32-1.547-6.655-3.838h6.861c1.124,0,2.036-1.02,2.036-2.275c0-1.26-0.912-2.277-2.036-2.277H40.31
		c0.347-3.932,3.644-7.02,7.668-7.02c4.255,0,7.705,3.451,7.705,7.703C55.684,429.463,52.233,432.915,47.979,432.915z
		 M47.979,406.157c-3.369,0-6.224-2.164-7.271-5.176h7.477c1.124,0,2.036-1.02,2.036-2.279c0-1.256-0.912-2.275-2.036-2.275H40.55
		c0.557-2.047,1.931-3.756,3.756-4.746c1.092-0.594,2.343-0.93,3.672-0.93c1.33,0,2.582,0.336,3.672,0.93
		c2.402,1.303,4.033,3.85,4.033,6.773C55.684,402.709,52.233,406.157,47.979,406.157z M47.979,379.403
		c-3.546,0-6.524-2.398-7.421-5.66h7.627c1.124,0,2.036-1.02,2.036-2.279c0-1.256-0.912-2.273-2.036-2.273h-7.484
		c1.042-3.021,3.903-5.195,7.278-5.195c4.255,0,7.705,3.449,7.705,7.703S52.233,379.403,47.979,379.403z M47.979,352.647
		c-3.395,0-6.271-2.197-7.296-5.246h7.502c1.124,0,2.036-1.02,2.036-2.277c0-1.256-0.912-2.275-2.036-2.275h-7.614
		c0.914-3.236,3.88-5.611,7.408-5.611c4.255,0,7.705,3.451,7.705,7.707C55.684,349.198,52.233,352.647,47.979,352.647z
		 M47.979,325.891c-3.875,0-7.071-2.861-7.613-6.588h7.819c1.124,0,2.036-1.02,2.036-2.277s-0.912-2.275-2.036-2.275h-7.094
		c1.264-2.525,3.869-4.268,6.888-4.268c4.255,0,7.705,3.451,7.705,7.703C55.684,322.442,52.233,325.891,47.979,325.891z
		 M47.979,298.301c-3.429,0-6.331-2.242-7.33-5.34h7.536c1.124,0,2.036-1.02,2.036-2.275c0-1.258-0.912-2.277-2.036-2.277h-7.59
		c0.942-3.188,3.89-5.518,7.384-5.518c4.255,0,7.705,3.449,7.705,7.705C55.684,294.85,52.233,298.301,47.979,298.301z
		 M47.979,271.543c-3.597,0-6.609-2.467-7.457-5.799h7.663c1.124,0,2.036-1.02,2.036-2.279c0-1.256-0.912-2.275-2.036-2.275h-7.432
		c1.082-2.947,3.903-5.055,7.226-5.055c4.255,0,7.705,3.451,7.705,7.705C55.684,268.096,52.233,271.543,47.979,271.543z
		 M47.979,244.79c-3.448,0-6.365-2.266-7.347-5.387h7.553c1.124,0,2.036-1.02,2.036-2.279c0-1.256-0.912-2.273-2.036-2.273h-7.577
		c0.958-3.164,3.894-5.469,7.371-5.469c4.255,0,7.705,3.449,7.705,7.705C55.684,241.338,52.233,244.79,47.979,244.79z
		 M47.979,216.84c-3.501,0-6.451-2.336-7.389-5.535h7.595c1.124,0,2.036-1.021,2.036-2.277c0-1.258-0.912-2.277-2.036-2.277h-7.529
		c1.005-3.084,3.9-5.316,7.323-5.316c4.255,0,7.705,3.447,7.705,7.703C55.684,213.391,52.233,216.84,47.979,216.84z M47.979,190.086
		c-3.348,0-6.188-2.139-7.25-5.123h7.457c1.124,0,2.036-1.02,2.036-2.275c0-1.258-0.912-2.277-2.036-2.277h-7.646
		c0.872-3.297,3.868-5.732,7.439-5.732c4.255,0,7.705,3.449,7.705,7.705C55.684,186.637,52.233,190.086,47.979,190.086z
		 M47.979,163.333c-3.52,0-6.481-2.363-7.402-5.588h7.608c1.124,0,2.036-1.02,2.036-2.276s-0.912-2.276-2.036-2.276h-7.51
		c1.02-3.06,3.901-5.269,7.304-5.269c4.255,0,7.705,3.448,7.705,7.704C55.684,159.881,52.233,163.333,47.979,163.333z
		 M47.979,136.576c-3.367,0-6.221-2.163-7.269-5.171h7.475c1.124,0,2.036-1.02,2.036-2.277c0-1.257-0.912-2.276-2.036-2.276h-7.632
		c0.888-3.272,3.872-5.683,7.426-5.683c4.255,0,7.705,3.449,7.705,7.704C55.684,133.127,52.233,136.576,47.979,136.576z
		 M47.979,108.985c-3.552,0-6.534-2.408-7.425-5.678h7.631c1.124,0,2.036-1.02,2.036-2.277c0-1.257-0.912-2.276-2.036-2.276h-7.477
		c1.047-3.012,3.902-5.177,7.271-5.177c4.255,0,7.705,3.449,7.705,7.704S52.233,108.985,47.979,108.985z M47.979,82.229
		c-3.401,0-6.281-2.207-7.302-5.264h7.508c1.124,0,2.036-1.02,2.036-2.277c0-1.257-0.912-2.277-2.036-2.277h-7.609
		c0.919-3.226,3.882-5.591,7.403-5.591c4.255,0,7.705,3.449,7.705,7.704C55.684,78.78,52.233,82.229,47.979,82.229z M47.979,55.474
		c-3.57,0-6.564-2.432-7.438-5.727h7.644c1.124,0,2.036-1.02,2.036-2.277s-0.912-2.277-2.036-2.277h-7.458
		c1.061-2.986,3.902-5.127,7.252-5.127c4.255,0,7.705,3.45,7.705,7.705C55.684,52.024,52.233,55.474,47.979,55.474z M47.979,28.718
		c-3.419,0-6.314-2.229-7.321-5.313h7.527c1.124,0,2.036-1.02,2.036-2.277c0-1.257-0.912-2.276-2.036-2.276h-7.597
		c0.936-3.202,3.887-5.542,7.391-5.542c4.255,0,7.705,3.45,7.705,7.705C55.684,25.269,52.233,28.718,47.979,28.718z"/>
	<rect x="86.333" y="16.477" fill="#C4C4C4" width="416.863" height="571.787"/>
	<rect x="75.978" y="11.86" fill="#E5E5E5" width="423.621" height="576.404"/>
	<g>
		<g>
			<path fill="#FDFEFF" d="M33.314,7.535v580.729h462.255V7.535H33.314z M53.972,575.063c-4.255,0-7.704-3.451-7.704-7.705
				s3.449-7.703,7.704-7.703s7.704,3.449,7.704,7.703S58.227,575.063,53.972,575.063z M53.972,548.307
				c-4.255,0-7.704-3.449-7.704-7.705c0-4.254,3.449-7.703,7.704-7.703s7.704,3.449,7.704,7.703
				C61.676,544.858,58.227,548.307,53.972,548.307z M53.972,521.551c-4.255,0-7.704-3.449-7.704-7.705
				c0-4.254,3.449-7.703,7.704-7.703s7.704,3.449,7.704,7.703C61.676,518.102,58.227,521.551,53.972,521.551z M53.972,493.961
				c-4.255,0-7.704-3.451-7.704-7.707c0-4.254,3.449-7.703,7.704-7.703s7.704,3.449,7.704,7.703
				C61.676,490.51,58.227,493.961,53.972,493.961z M53.972,467.204c-4.255,0-7.704-3.447-7.704-7.703
				c0-4.254,3.449-7.705,7.704-7.705s7.704,3.451,7.704,7.705C61.676,463.756,58.227,467.204,53.972,467.204z M53.972,440.45
				c-4.255,0-7.704-3.451-7.704-7.705s3.449-7.703,7.704-7.703s7.704,3.449,7.704,7.703S58.227,440.45,53.972,440.45z
				 M61.676,405.991c0,4.254-3.449,7.703-7.704,7.703s-7.704-3.449-7.704-7.703l0,0l0,0c0-2.926,1.63-5.471,4.031-6.775
				c1.092-0.594,2.343-0.93,3.672-0.93c1.33,0,2.581,0.336,3.672,0.93C60.045,400.52,61.676,403.065,61.676,405.991L61.676,405.991
				L61.676,405.991z M53.972,386.938c-4.255,0-7.704-3.449-7.704-7.705c0-4.254,3.449-7.703,7.704-7.703s7.704,3.449,7.704,7.703
				C61.676,383.489,58.227,386.938,53.972,386.938z M53.972,360.182c-4.255,0-7.704-3.449-7.704-7.703
				c0-4.256,3.449-7.705,7.704-7.705s7.704,3.449,7.704,7.705C61.676,356.733,58.227,360.182,53.972,360.182z M53.972,333.426
				c-4.255,0-7.704-3.449-7.704-7.703s3.449-7.703,7.704-7.703s7.704,3.449,7.704,7.703S58.227,333.426,53.972,333.426z
				 M53.972,305.836c-4.255,0-7.704-3.451-7.704-7.705c0-4.256,3.449-7.703,7.704-7.703s7.704,3.447,7.704,7.703
				C61.676,302.385,58.227,305.836,53.972,305.836z M53.972,279.081c-4.255,0-7.704-3.449-7.704-7.705
				c0-4.254,3.449-7.703,7.704-7.703s7.704,3.449,7.704,7.703C61.676,275.631,58.227,279.081,53.972,279.081z M53.972,252.325
				c-4.255,0-7.704-3.449-7.704-7.703c0-4.256,3.449-7.705,7.704-7.705s7.704,3.449,7.704,7.705
				C61.676,248.875,58.227,252.325,53.972,252.325z M53.972,224.375c-4.255,0-7.704-3.447-7.704-7.703
				c0-4.254,3.449-7.703,7.704-7.703s7.704,3.449,7.704,7.703C61.676,220.928,58.227,224.375,53.972,224.375z M53.972,197.622
				c-4.255,0-7.704-3.449-7.704-7.703c0-4.256,3.449-7.705,7.704-7.705s7.704,3.449,7.704,7.705
				C61.676,194.172,58.227,197.622,53.972,197.622z M53.972,170.866c-4.255,0-7.704-3.449-7.704-7.703
				c0-4.256,3.449-7.705,7.704-7.705s7.704,3.449,7.704,7.705C61.676,167.417,58.227,170.866,53.972,170.866z M53.972,144.111
				c-4.255,0-7.704-3.449-7.704-7.704c0-4.254,3.449-7.704,7.704-7.704s7.704,3.45,7.704,7.704
				C61.676,140.662,58.227,144.111,53.972,144.111z M53.972,116.52c-4.255,0-7.704-3.449-7.704-7.704s3.449-7.704,7.704-7.704
				s7.704,3.449,7.704,7.704S58.227,116.52,53.972,116.52z M53.972,89.764c-4.255,0-7.704-3.449-7.704-7.704
				c0-4.254,3.449-7.704,7.704-7.704s7.704,3.45,7.704,7.704C61.676,86.315,58.227,89.764,53.972,89.764z M53.972,63.009
				c-4.255,0-7.704-3.449-7.704-7.704c0-4.255,3.449-7.705,7.704-7.705s7.704,3.449,7.704,7.705
				C61.676,59.56,58.227,63.009,53.972,63.009z M53.972,36.253c-4.255,0-7.704-3.449-7.704-7.704s3.449-7.704,7.704-7.704
				s7.704,3.449,7.704,7.704S58.227,36.253,53.972,36.253z"/>
			<path fill="#E5E5E5" d="M50.299,399.215c-2.401,1.305-4.031,3.85-4.031,6.775l0,0C46.268,403.065,47.898,400.52,50.299,399.215z"
				/>
			<path fill="#E5E5E5" d="M57.644,399.215c2.401,1.305,4.032,3.85,4.032,6.775l0,0C61.676,403.065,60.045,400.52,57.644,399.215z"
				/>
			<path fill="#E5E5E5" d="M53.972,413.694c-4.255,0-7.703-3.449-7.704-7.703l0,0C46.268,410.245,49.717,413.694,53.972,413.694
				s7.704-3.449,7.704-7.703l0,0C61.676,410.245,58.227,413.694,53.972,413.694z"/>
			<g>
				<g>
					
						<line fill="none" stroke="#70A6AA" stroke-width="0.5" stroke-miterlimit="10" x1="79.398" y1="11.923" x2="79.398" y2="13.923"/>
					
						<line fill="none" stroke="#70A6AA" stroke-width="0.5" stroke-miterlimit="10" stroke-dasharray="4.0024,4.0024" x1="79.398" y1="17.926" x2="79.398" y2="584.264"/>
					
						<line fill="none" stroke="#70A6AA" stroke-width="0.5" stroke-miterlimit="10" x1="79.398" y1="586.264" x2="79.398" y2="588.264"/>
				</g>
			</g>
			<line fill="#70A6AA" x1="103.017" y1="84.5" x2="468.28" y2="84.5"/>
			<line fill="#70A6AA" x1="103.017" y1="99.525" x2="468.28" y2="99.525"/>
			<line fill="#70A6AA" x1="103.017" y1="114.549" x2="468.28" y2="114.549"/>
			<line fill="#70A6AA" x1="103.017" y1="129.573" x2="468.28" y2="129.573"/>
			<line fill="#70A6AA" x1="103.017" y1="144.598" x2="468.28" y2="144.598"/>
			<line fill="#70A6AA" x1="103.017" y1="159.622" x2="468.28" y2="159.622"/>
			<line fill="#70A6AA" x1="103.017" y1="174.646" x2="468.28" y2="174.646"/>
			<line fill="#70A6AA" x1="103.017" y1="189.67" x2="468.28" y2="189.67"/>
			<line fill="#70A6AA" x1="103.017" y1="204.694" x2="468.28" y2="204.694"/>
			<line fill="#70A6AA" x1="103.017" y1="219.717" x2="468.28" y2="219.717"/>
			<line fill="#70A6AA" x1="103.017" y1="234.743" x2="468.28" y2="234.743"/>
			<line fill="#70A6AA" x1="103.017" y1="249.768" x2="468.28" y2="249.768"/>
			<line fill="#70A6AA" x1="103.017" y1="264.792" x2="468.28" y2="264.792"/>
			<line fill="#70A6AA" x1="103.017" y1="279.815" x2="468.28" y2="279.815"/>
			<line fill="#70A6AA" x1="103.017" y1="294.838" x2="468.28" y2="294.838"/>
			<line fill="#70A6AA" x1="103.017" y1="309.864" x2="468.28" y2="309.864"/>
			<line fill="#70A6AA" x1="103.017" y1="324.887" x2="468.28" y2="324.887"/>
			<line fill="#70A6AA" x1="103.017" y1="339.913" x2="468.28" y2="339.913"/>
			<line fill="#70A6AA" x1="103.017" y1="354.936" x2="468.28" y2="354.936"/>
			<line fill="#70A6AA" x1="103.017" y1="369.959" x2="468.28" y2="369.959"/>
			<line fill="#70A6AA" x1="103.017" y1="384.985" x2="468.28" y2="384.985"/>
			<line fill="#70A6AA" x1="103.017" y1="400.008" x2="468.28" y2="400.008"/>
			<line fill="#70A6AA" x1="103.017" y1="415.034" x2="468.28" y2="415.034"/>
			<line fill="#70A6AA" x1="103.017" y1="430.057" x2="468.28" y2="430.057"/>
			<line fill="#70A6AA" x1="103.017" y1="445.081" x2="468.28" y2="445.081"/>
			<line fill="#70A6AA" x1="103.017" y1="460.106" x2="468.28" y2="460.106"/>
			<line fill="#70A6AA" x1="103.017" y1="475.129" x2="468.28" y2="475.129"/>
			<line fill="#70A6AA" x1="103.017" y1="490.155" x2="468.28" y2="490.155"/>
			<line fill="#70A6AA" x1="103.017" y1="505.178" x2="468.28" y2="505.178"/>
			<line fill="#70A6AA" x1="103.017" y1="520.202" x2="468.28" y2="520.202"/>
			<line fill="#70A6AA" x1="103.017" y1="535.227" x2="468.28" y2="535.227"/>
			<line fill="#70A6AA" x1="103.017" y1="550.25" x2="468.28" y2="550.25"/>
			<line fill="#70A6AA" x1="103.017" y1="565.276" x2="468.28" y2="565.276"/>
		</g>
		<g>
			<path fill="#B7B7B8" d="M56.213,28.664c0,1.257-0.911,2.277-2.036,2.277H8.029c-1.124,0-2.036-1.02-2.036-2.277l0,0
				c0-1.257,0.912-2.276,2.036-2.276h46.149C55.302,26.387,56.213,27.407,56.213,28.664L56.213,28.664z"/>
			<path fill="#E5E5E5" d="M53.737,28.488c0,0.409-0.332,0.741-0.741,0.741H21.441c-0.409,0-0.74-0.332-0.74-0.741l0,0
				c0-0.409,0.332-0.741,0.74-0.741h31.555C53.405,27.747,53.737,28.079,53.737,28.488L53.737,28.488z"/>
		</g>
		<g>
			<path fill="#B7B7B8" d="M56.213,55.005c0,1.257-0.911,2.277-2.036,2.277H8.029c-1.124,0-2.036-1.02-2.036-2.277l0,0
				c0-1.257,0.912-2.277,2.036-2.277h46.149C55.302,52.728,56.213,53.748,56.213,55.005L56.213,55.005z"/>
			<path fill="#E5E5E5" d="M53.737,54.829c0,0.41-0.332,0.741-0.741,0.741H21.441c-0.409,0-0.74-0.332-0.74-0.741l0,0
				c0-0.409,0.332-0.741,0.74-0.741h31.555C53.405,54.088,53.737,54.42,53.737,54.829L53.737,54.829z"/>
		</g>
		<g>
			<path fill="#B7B7B8" d="M56.213,82.224c0,1.257-0.911,2.276-2.036,2.276H8.029c-1.124,0-2.036-1.019-2.036-2.276l0,0
				c0-1.257,0.912-2.277,2.036-2.277h46.149C55.302,79.947,56.213,80.967,56.213,82.224L56.213,82.224z"/>
			<path fill="#E5E5E5" d="M53.737,82.049c0,0.409-0.332,0.74-0.741,0.74H21.441c-0.409,0-0.74-0.332-0.74-0.74l0,0
				c0-0.41,0.332-0.741,0.74-0.741h31.555C53.405,81.308,53.737,81.639,53.737,82.049L53.737,82.049z"/>
		</g>
		<g>
			<path fill="#B7B7B8" d="M56.213,108.565c0,1.258-0.911,2.277-2.036,2.277H8.029c-1.124,0-2.036-1.02-2.036-2.277l0,0
				c0-1.257,0.912-2.276,2.036-2.276h46.149C55.302,106.289,56.213,107.308,56.213,108.565L56.213,108.565z"/>
			<path fill="#E5E5E5" d="M53.737,108.39c0,0.409-0.332,0.741-0.741,0.741H21.441c-0.409,0-0.74-0.332-0.74-0.741l0,0
				c0-0.409,0.332-0.741,0.74-0.741h31.555C53.405,107.649,53.737,107.98,53.737,108.39L53.737,108.39z"/>
		</g>
		<g>
			<path fill="#B7B7B8" d="M56.213,136.662c0,1.258-0.911,2.277-2.036,2.277H8.029c-1.124,0-2.036-1.02-2.036-2.277l0,0
				c0-1.257,0.912-2.276,2.036-2.276h46.149C55.302,134.386,56.213,135.405,56.213,136.662L56.213,136.662z"/>
			<path fill="#E5E5E5" d="M53.737,136.487c0,0.409-0.332,0.741-0.741,0.741H21.441c-0.409,0-0.74-0.332-0.74-0.741l0,0
				c0-0.409,0.332-0.741,0.74-0.741h31.555C53.405,135.746,53.737,136.078,53.737,136.487L53.737,136.487z"/>
		</g>
		<g>
			<path fill="#B7B7B8" d="M56.213,163.003c0,1.257-0.911,2.276-2.036,2.276H8.029c-1.124,0-2.036-1.02-2.036-2.276l0,0
				c0-1.257,0.912-2.276,2.036-2.276h46.149C55.302,160.727,56.213,161.747,56.213,163.003L56.213,163.003z"/>
			<path fill="#E5E5E5" d="M53.737,162.829c0,0.408-0.332,0.74-0.741,0.74H21.441c-0.409,0-0.74-0.332-0.74-0.74l0,0
				c0-0.41,0.332-0.742,0.74-0.742h31.555C53.405,162.086,53.737,162.418,53.737,162.829L53.737,162.829z"/>
		</g>
		<g>
			<path fill="#B7B7B8" d="M56.213,190.223c0,1.256-0.911,2.277-2.036,2.277H8.029c-1.124,0-2.036-1.021-2.036-2.277l0,0
				c0-1.258,0.912-2.277,2.036-2.277h46.149C55.302,187.946,56.213,188.965,56.213,190.223L56.213,190.223z"/>
			<path fill="#E5E5E5" d="M53.737,190.047c0,0.408-0.332,0.74-0.741,0.74H21.441c-0.409,0-0.74-0.332-0.74-0.74l0,0
				c0-0.41,0.332-0.742,0.74-0.742h31.555C53.405,189.305,53.737,189.637,53.737,190.047L53.737,190.047z"/>
		</g>
		<g>
			<path fill="#B7B7B8" d="M56.213,216.563c0,1.258-0.911,2.277-2.036,2.277H8.029c-1.124,0-2.036-1.02-2.036-2.277l0,0
				c0-1.256,0.912-2.275,2.036-2.275h46.149C55.302,214.288,56.213,215.307,56.213,216.563L56.213,216.563z"/>
			<path fill="#E5E5E5" d="M53.737,216.389c0,0.408-0.332,0.74-0.741,0.74H21.441c-0.409,0-0.74-0.332-0.74-0.74l0,0
				c0-0.41,0.332-0.742,0.74-0.742h31.555C53.405,215.647,53.737,215.979,53.737,216.389L53.737,216.389z"/>
		</g>
		<g>
			<path fill="#B7B7B8" d="M56.213,244.661c0,1.258-0.911,2.277-2.036,2.277H8.029c-1.124,0-2.036-1.02-2.036-2.277l0,0
				c0-1.258,0.912-2.275,2.036-2.275h46.149C55.302,242.385,56.213,243.403,56.213,244.661L56.213,244.661z"/>
			<path fill="#E5E5E5" d="M53.737,244.485c0,0.41-0.332,0.742-0.741,0.742H21.441c-0.409,0-0.74-0.332-0.74-0.742l0,0
				c0-0.408,0.332-0.74,0.74-0.74h31.555C53.405,243.745,53.737,244.077,53.737,244.485L53.737,244.485z"/>
		</g>
		<g>
			<path fill="#B7B7B8" d="M56.213,271.002c0,1.258-0.911,2.277-2.036,2.277H8.029c-1.124,0-2.036-1.02-2.036-2.277l0,0
				c0-1.258,0.912-2.277,2.036-2.277h46.149C55.302,268.725,56.213,269.745,56.213,271.002L56.213,271.002z"/>
			<path fill="#E5E5E5" d="M53.737,270.827c0,0.408-0.332,0.74-0.741,0.74H21.441c-0.409,0-0.74-0.332-0.74-0.74l0,0
				c0-0.408,0.332-0.74,0.74-0.74h31.555C53.405,270.086,53.737,270.418,53.737,270.827L53.737,270.827z"/>
		</g>
		<g>
			<path fill="#B7B7B8" d="M56.213,298.221c0,1.258-0.911,2.277-2.036,2.277H8.029c-1.124,0-2.036-1.02-2.036-2.277l0,0
				c0-1.258,0.912-2.275,2.036-2.275h46.149C55.302,295.946,56.213,296.963,56.213,298.221L56.213,298.221z"/>
			<path fill="#E5E5E5" d="M53.737,298.045c0,0.408-0.332,0.742-0.741,0.742H21.441c-0.409,0-0.74-0.334-0.74-0.742l0,0
				c0-0.408,0.332-0.74,0.74-0.74h31.555C53.405,297.305,53.737,297.637,53.737,298.045L53.737,298.045z"/>
		</g>
		<g>
			<path fill="#B7B7B8" d="M56.213,324.561c0,1.258-0.911,2.277-2.036,2.277H8.029c-1.124,0-2.036-1.02-2.036-2.277l0,0
				c0-1.256,0.912-2.275,2.036-2.275h46.149C55.302,322.286,56.213,323.305,56.213,324.561L56.213,324.561z"/>
			<path fill="#E5E5E5" d="M53.737,324.387c0,0.408-0.332,0.74-0.741,0.74H21.441c-0.409,0-0.74-0.332-0.74-0.74l0,0
				c0-0.41,0.332-0.742,0.74-0.742h31.555C53.405,323.645,53.737,323.977,53.737,324.387L53.737,324.387z"/>
		</g>
		<g>
			<path fill="#B7B7B8" d="M56.213,352.659c0,1.258-0.911,2.277-2.036,2.277H8.029c-1.124,0-2.036-1.02-2.036-2.277l0,0
				c0-1.256,0.912-2.275,2.036-2.275h46.149C55.302,350.383,56.213,351.403,56.213,352.659L56.213,352.659z"/>
			<path fill="#E5E5E5" d="M53.737,352.485c0,0.408-0.332,0.74-0.741,0.74H21.441c-0.409,0-0.74-0.332-0.74-0.74l0,0
				c0-0.41,0.332-0.742,0.74-0.742h31.555C53.405,351.743,53.737,352.075,53.737,352.485L53.737,352.485z"/>
		</g>
		<g>
			<path fill="#B7B7B8" d="M56.213,379c0,1.258-0.911,2.277-2.036,2.277H8.029c-1.124,0-2.036-1.02-2.036-2.277l0,0
				c0-1.258,0.912-2.275,2.036-2.275h46.149C55.302,376.725,56.213,377.743,56.213,379L56.213,379z"/>
			<path fill="#E5E5E5" d="M53.737,378.825c0,0.41-0.332,0.742-0.741,0.742H21.441c-0.409,0-0.74-0.332-0.74-0.742l0,0
				c0-0.408,0.332-0.74,0.74-0.74h31.555C53.405,378.084,53.737,378.417,53.737,378.825L53.737,378.825z"/>
		</g>
		<g>
			<path fill="#B7B7B8" d="M56.213,406.239c0,1.258-0.911,2.277-2.036,2.277H8.029c-1.124,0-2.036-1.02-2.036-2.277l0,0
				c0-1.258,0.912-2.277,2.036-2.277h46.149C55.302,403.961,56.213,404.981,56.213,406.239L56.213,406.239z"/>
			<path fill="#E5E5E5" d="M53.737,406.063c0,0.408-0.332,0.74-0.741,0.74H21.441c-0.409,0-0.74-0.332-0.74-0.74l0,0
				c0-0.408,0.332-0.74,0.74-0.74h31.555C53.405,405.323,53.737,405.655,53.737,406.063L53.737,406.063z"/>
		</g>
		<g>
			<path fill="#B7B7B8" d="M56.213,434.336c0,1.258-0.911,2.277-2.036,2.277H8.029c-1.124,0-2.036-1.02-2.036-2.277l0,0
				c0-1.258,0.912-2.277,2.036-2.277h46.149C55.302,432.059,56.213,433.079,56.213,434.336L56.213,434.336z"/>
			<path fill="#E5E5E5" d="M53.737,434.161c0,0.408-0.332,0.74-0.741,0.74H21.441c-0.409,0-0.74-0.332-0.74-0.74l0,0
				c0-0.408,0.332-0.74,0.74-0.74h31.555C53.405,433.42,53.737,433.752,53.737,434.161L53.737,434.161z"/>
		</g>
		<g>
			<path fill="#B7B7B8" d="M56.213,460.676c0,1.258-0.911,2.277-2.036,2.277H8.029c-1.124,0-2.036-1.02-2.036-2.277l0,0
				c0-1.256,0.912-2.275,2.036-2.275h46.149C55.302,458.401,56.213,459.42,56.213,460.676L56.213,460.676z"/>
			<path fill="#E5E5E5" d="M53.737,460.5c0,0.41-0.332,0.742-0.741,0.742H21.441c-0.409,0-0.74-0.332-0.74-0.742l0,0
				c0-0.408,0.332-0.74,0.74-0.74h31.555C53.405,459.76,53.737,460.092,53.737,460.5L53.737,460.5z"/>
		</g>
		<g>
			<path fill="#B7B7B8" d="M56.213,487.895c0,1.258-0.911,2.277-2.036,2.277H8.029c-1.124,0-2.036-1.02-2.036-2.277l0,0
				c0-1.256,0.912-2.275,2.036-2.275h46.149C55.302,485.62,56.213,486.639,56.213,487.895L56.213,487.895z"/>
			<path fill="#E5E5E5" d="M53.737,487.721c0,0.408-0.332,0.74-0.741,0.74H21.441c-0.409,0-0.74-0.332-0.74-0.74l0,0
				c0-0.41,0.332-0.742,0.74-0.742h31.555C53.405,486.979,53.737,487.311,53.737,487.721L53.737,487.721z"/>
		</g>
		<g>
			<path fill="#B7B7B8" d="M56.213,514.237c0,1.258-0.911,2.277-2.036,2.277H8.029c-1.124,0-2.036-1.02-2.036-2.277l0,0
				c0-1.258,0.912-2.275,2.036-2.275h46.149C55.302,511.961,56.213,512.979,56.213,514.237L56.213,514.237z"/>
			<path fill="#E5E5E5" d="M53.737,514.063c0,0.408-0.332,0.74-0.741,0.74H21.441c-0.409,0-0.74-0.332-0.74-0.74l0,0
				c0-0.41,0.332-0.742,0.74-0.742h31.555C53.405,513.321,53.737,513.653,53.737,514.063L53.737,514.063z"/>
		</g>
		<g>
			<path fill="#B7B7B8" d="M56.213,542.334c0,1.258-0.911,2.277-2.036,2.277H8.029c-1.124,0-2.036-1.02-2.036-2.277l0,0
				c0-1.258,0.912-2.275,2.036-2.275h46.149C55.302,540.059,56.213,541.077,56.213,542.334L56.213,542.334z"/>
			<path fill="#E5E5E5" d="M53.737,542.159c0,0.41-0.332,0.74-0.741,0.74H21.441c-0.409,0-0.74-0.33-0.74-0.74l0,0
				c0-0.408,0.332-0.74,0.74-0.74h31.555C53.405,541.418,53.737,541.75,53.737,542.159L53.737,542.159z"/>
		</g>
		<g>
			<path fill="#B7B7B8" d="M56.213,568.676c0,1.258-0.911,2.277-2.036,2.277H8.029c-1.124,0-2.036-1.02-2.036-2.277l0,0
				c0-1.258,0.912-2.277,2.036-2.277h46.149C55.302,566.399,56.213,567.418,56.213,568.676L56.213,568.676z"/>
			<path fill="#E5E5E5" d="M53.737,568.5c0,0.408-0.332,0.74-0.741,0.74H21.441c-0.409,0-0.74-0.332-0.74-0.74l0,0
				c0-0.41,0.332-0.74,0.74-0.74h31.555C53.405,567.76,53.737,568.09,53.737,568.5L53.737,568.5z"/>
		</g>
	</g>
</g>
</svg>
