<?xml version="1.0" encoding="utf-8"?>
<!-- Generator: Adobe Illustrator 16.0.0, SVG Export Plug-In . SVG Version: 6.00 Build 0)  -->
<!DOCTYPE svg PUBLIC "-//W3C//DTD SVG 1.1//EN" "http://www.w3.org/Graphics/SVG/1.1/DTD/svg11.dtd">
<svg version="1.1" id="Layer_1" xmlns="http://www.w3.org/2000/svg" xmlns:xlink="http://www.w3.org/1999/xlink" x="0px" y="0px"
	 width="461.13px" height="337.714px" viewBox="0 0 461.13 337.714" enable-background="new 0 0 461.13 337.714"
	 xml:space="preserve">
<g>
	
		<radialGradient id="SVGID_1_" cx="172.103" cy="64.6572" r="177.2634" gradientTransform="matrix(1.0842 -0.0208 0.0166 0.9258 14.5565 123.6243)" gradientUnits="userSpaceOnUse">
		<stop  offset="0" style="stop-color:#231F20"/>
		<stop  offset="1" style="stop-color:#231F20;stop-opacity:0"/>
	</radialGradient>
	<path fill="url(#SVGID_1_)" d="M404.439,176.017c1.579,87.125-87.689,159.499-199.365,161.648
		C93.396,339.804,1.592,270.897,0.021,183.778C-1.544,96.654,87.721,24.275,199.401,22.13
		C311.081,19.985,402.886,88.89,404.439,176.017z"/>
	<g>
		
			<radialGradient id="SVGID_2_" cx="140.4644" cy="76.792" r="117.7019" gradientTransform="matrix(0.9609 0.2813 -0.2562 0.8753 72.6053 124.3815)" gradientUnits="userSpaceOnUse">
			<stop  offset="0" style="stop-color:#231F20"/>
			<stop  offset="1" style="stop-color:#231F20;stop-opacity:0"/>
		</radialGradient>
		<path fill="url(#SVGID_2_)" d="M306.888,265.939c-16.011,54.696-82.272,83.452-147.988,64.216
			C93.182,310.917,52.894,250.97,68.905,196.273c16.012-54.696,82.269-83.455,147.984-64.219
			C282.605,151.293,322.899,211.24,306.888,265.939z"/>
		<g>
			<g>
				
					<linearGradient id="SVGID_3_" gradientUnits="userSpaceOnUse" x1="58.0244" y1="192.2676" x2="282.542" y2="192.2676" gradientTransform="matrix(0.9597 0.2809 -0.2809 0.9597 50.2263 -66.5902)">
					<stop  offset="0" style="stop-color:#FFFFFF"/>
					<stop  offset="1" style="stop-color:#E6E6E5"/>
				</linearGradient>
				<path fill-rule="evenodd" clip-rule="evenodd" fill="url(#SVGID_3_)" d="M82.202,30.716l178.806,16.747l-23.942,253.38
					L58.263,284.086L82.202,30.716z"/>
				<g>
					<path fill="#A7DAE9" d="M179.355,174.209c-1.244,2.888-3.047,5.42-5.33,7.471L187.604,205
						c8.547-6.086,15.099-14.88,18.246-25.321L179.355,174.209z"/>
					<path fill="#F99B1F" d="M166,144.984c8.929,2.749,15.108,11.087,15.127,20.621l26.466,5.444
						c0.032-0.304,0.098-0.595,0.123-0.907c2.357-25.109-14.906-47.505-39.195-52.002L166,144.984z"/>
					<path fill="#19B0BF" d="M145.175,149.755c3.289-3.029,7.455-5.062,12.093-5.586l2.521-26.85
						c-14.399-0.037-27.517,6.344-36.493,16.616L145.175,149.755z"/>
					<path fill="#4E8EB4" d="M166.473,186.143c-2.771,0.937-5.76,1.345-8.854,1.057c-11.856-1.106-20.575-11.65-19.458-23.528
						c0.23-2.432,0.932-4.673,1.873-6.776l-21.872-15.832c-3.532,5.972-5.898,12.759-6.591,20.129
						c-2.498,26.604,16.993,50.162,43.547,52.628c8.864,0.832,17.377-0.831,24.9-4.382L166.473,186.143z"/>
				</g>
				<g>
					<polygon fill="#F99B1F" points="120.843,58.125 98.466,56.039 99.079,49.512 121.457,51.596 					"/>
					<polygon fill="#19B0BF" points="119.446,72.989 97.067,70.906 97.681,64.385 120.058,66.466 					"/>
					<polygon fill="#A7DAE9" points="118.047,87.861 95.678,85.776 96.288,79.254 118.664,81.334 					"/>
					<polygon fill="#4E8EB4" points="116.65,102.728 94.275,100.647 94.891,94.118 117.265,96.203 					"/>
					<polygon fill="#CDCCCC" points="135.886,60.672 240.066,70.373 240.758,63.034 136.579,53.338 					"/>
					<polygon fill="#CDCCCC" points="133.827,82.603 238.002,92.309 238.695,84.973 134.52,75.271 					"/>
					<polygon fill="#CDCCCC" points="131.767,104.54 235.948,114.242 236.636,106.913 132.457,97.21 					"/>
					<polygon fill="#CDCCCC" points="132.8,93.569 236.975,103.274 237.664,95.941 133.487,86.241 					"/>
					<polygon fill="#CDCCCC" points="134.857,71.632 239.035,81.335 239.725,74.005 135.548,64.309 					"/>
				</g>
				<g>
					<polygon fill="#CDCCCC" points="83.641,264.771 78.905,264.337 83.638,213.928 88.373,214.368 					"/>
					
						<rect x="147.152" y="202.148" transform="matrix(-0.093 0.9957 -0.9957 -0.093 435.559 149.8375)" fill="#CDCCCC" width="4.762" height="142.312"/>
					<g>
						<polygon fill="#19B0BF" points="110.861,244.702 98.178,243.515 96.071,265.937 108.755,267.113 						"/>
						<polygon fill="#A7DAE9" points="111.915,233.489 99.222,232.308 98.178,243.515 110.861,244.702 						"/>
					</g>
					<g>
						<polygon fill="#19B0BF" points="135.437,237.195 122.747,236.013 119.728,268.135 132.417,269.322 						"/>
						
							<rect x="123.02" y="230.163" transform="matrix(0.9957 0.0925 -0.0925 0.9957 22.1488 -10.9704)" fill="#A7DAE9" width="12.74" height="6.453"/>
					</g>
					<g>
						<polygon fill="#19B0BF" points="157.604,255.211 144.911,254.031 143.386,270.347 156.072,271.52 						"/>
						<polygon fill="#A7DAE9" points="158.702,243.504 146.017,242.316 144.911,254.031 157.604,255.211 						"/>
					</g>
					<g>
						<polygon fill="#19B0BF" points="180.602,264.383 167.918,263.204 167.043,272.544 179.723,273.726 						"/>
						<polygon fill="#A7DAE9" points="181.479,255.045 168.79,253.86 167.918,263.204 180.602,264.383 						"/>
					</g>
				</g>
			</g>
			<g>
				<polygon opacity="0.1" fill-rule="evenodd" clip-rule="evenodd" fill="#010101" points="119.492,227.623 238.34,287.414 
					261.008,47.462 212.248,42.897 				"/>
				
					<linearGradient id="SVGID_4_" gradientUnits="userSpaceOnUse" x1="328.1582" y1="150.7764" x2="-40.6365" y2="126.4026" gradientTransform="matrix(0.9597 0.2809 -0.2809 0.9597 50.2263 -66.5902)">
					<stop  offset="0" style="stop-color:#FFFFFF"/>
					<stop  offset="1" style="stop-color:#E6E6E5"/>
				</linearGradient>
				<path fill-rule="evenodd" clip-rule="evenodd" fill="url(#SVGID_4_)" d="M251.621,0l158.938,79.96l-113.14,225.317
					L138.48,225.314L251.621,0z"/>
				<g>
					<polygon fill-rule="evenodd" clip-rule="evenodd" fill="#4E8EB4" points="213.149,126.531 226.877,133.435 220.578,145.94 
						206.847,139.037 					"/>
					<polygon fill-rule="evenodd" clip-rule="evenodd" fill="#609DC1" points="231.721,129.112 245.449,136.019 236.448,153.925 
						222.726,147.03 					"/>
					<polygon fill-rule="evenodd" clip-rule="evenodd" fill="#74ACCD" points="253.884,124.539 267.618,131.435 252.32,161.91 
						238.594,155.009 					"/>
					<polygon fill-rule="evenodd" clip-rule="evenodd" fill="#88BBDA" points="267.643,136.747 281.371,143.65 268.192,169.895 
						254.468,162.994 					"/>
					
						<rect x="272.816" y="160.512" transform="matrix(-0.8934 -0.4493 0.4493 -0.8934 455.6625 443.8581)" fill-rule="evenodd" clip-rule="evenodd" fill="#9BCAE6" width="15.364" height="14.699"/>
					<polygon fill-rule="evenodd" clip-rule="evenodd" fill="#74ACCD" points="294.902,160.644 308.629,167.548 299.545,185.634 
						285.819,178.733 					"/>
					<polygon fill-rule="evenodd" clip-rule="evenodd" fill="#88BBDA" points="314.868,160.468 328.598,167.376 315.417,193.616 
						301.688,186.716 					"/>
					<polygon fill-rule="evenodd" clip-rule="evenodd" fill="#9BCAE6" points="339.433,151.108 353.158,158.009 331.288,201.612 
						317.561,194.703 					"/>
				</g>
				<polygon fill-rule="evenodd" clip-rule="evenodd" fill="#CDCCCC" points="192.131,154.863 251.678,184.819 249.689,188.786 
					190.135,158.827 				"/>
				<polygon fill-rule="evenodd" clip-rule="evenodd" fill="#CDCCCC" points="188.641,161.802 248.196,191.764 246.205,195.725 
					186.652,165.768 				"/>
				<polygon fill-rule="evenodd" clip-rule="evenodd" fill="#CDCCCC" points="185.156,168.741 244.711,198.702 242.721,202.666 
					183.165,172.712 				"/>
				
					<rect x="177.12" y="190.428" transform="matrix(-0.8934 -0.4493 0.4493 -0.8934 311.8964 459.3193)" fill-rule="evenodd" clip-rule="evenodd" fill="#CDCCCC" width="66.666" height="4.442"/>
				<polygon fill-rule="evenodd" clip-rule="evenodd" fill="#CDCCCC" points="178.189,182.621 237.737,212.583 235.752,216.544 
					176.196,186.591 				"/>
				<polygon fill-rule="evenodd" clip-rule="evenodd" fill="#CDCCCC" points="174.7,189.563 234.257,219.527 232.269,223.491 
					172.713,193.532 				"/>
				
					<rect x="166.663" y="211.248" transform="matrix(-0.8933 -0.4495 0.4495 -0.8933 282.6999 494.0543)" fill-rule="evenodd" clip-rule="evenodd" fill="#CDCCCC" width="66.668" height="4.441"/>
				<polygon fill-rule="evenodd" clip-rule="evenodd" fill="#CDCCCC" points="167.728,203.451 197.508,218.43 195.519,222.394 
					165.739,207.418 				"/>
				<polygon fill-rule="evenodd" clip-rule="evenodd" fill="#CDCCCC" points="262.339,190.18 321.893,220.142 319.902,224.107 
					260.344,194.151 				"/>
				<polygon fill-rule="evenodd" clip-rule="evenodd" fill="#CDCCCC" points="258.854,197.121 318.41,227.083 316.411,231.047 
					256.863,201.088 				"/>
				<polygon fill-rule="evenodd" clip-rule="evenodd" fill="#CDCCCC" points="255.367,204.063 314.923,234.027 312.929,237.991 
					253.377,208.032 				"/>
				<polygon fill-rule="evenodd" clip-rule="evenodd" fill="#CDCCCC" points="251.886,211.004 311.441,240.963 309.445,244.936 
					249.893,214.968 				"/>
				<polygon fill-rule="evenodd" clip-rule="evenodd" fill="#CDCCCC" points="248.398,217.946 307.95,247.905 305.958,251.866 
					246.41,221.91 				"/>
				<polygon fill-rule="evenodd" clip-rule="evenodd" fill="#CDCCCC" points="244.911,224.888 304.466,254.844 302.476,258.811 
					242.913,228.854 				"/>
				<polygon fill-rule="evenodd" clip-rule="evenodd" fill="#CDCCCC" points="241.427,231.829 300.979,261.782 298.989,265.749 
					239.436,235.796 				"/>
				<polygon fill-rule="evenodd" clip-rule="evenodd" fill="#CDCCCC" points="237.941,238.768 279.857,259.856 277.871,263.826 
					235.95,242.734 				"/>
				<g>
					<g>
						<polygon fill="#FDC015" points="236.993,86.764 235.833,79.969 297.971,69.229 317.313,104.219 380.565,95.561 
							381.49,102.387 313.565,111.691 294.318,76.853 						"/>
					</g>
					<g>
						<polygon fill="#FDC015" points="376.499,113.412 371.582,110.937 377.032,100.057 366.182,94.607 368.651,89.67 
							384.432,97.601 						"/>
					</g>
				</g>
				<path fill="#19B0BF" d="M322.393,110.004c1.882-3.752,0.374-8.314-3.36-10.187c-3.738-1.877-8.292-0.363-10.168,3.382
					c-1.878,3.748-0.368,8.306,3.364,10.184C315.963,115.258,320.521,113.746,322.393,110.004z"/>
				<path fill="#19B0BF" d="M303.016,76.485c1.872-3.748,0.368-8.303-3.373-10.177c-3.729-1.878-8.285-0.364-10.161,3.381
					c-1.883,3.748-0.372,8.307,3.361,10.184C296.582,81.751,301.136,80.235,303.016,76.485z"/>
			</g>
		</g>
	</g>
	<g>
		
			<radialGradient id="SVGID_5_" cx="123.3789" cy="54.9751" r="53.1855" gradientTransform="matrix(2.0819 0.0444 -0.0204 0.9117 88.8904 41.3723)" gradientUnits="userSpaceOnUse">
			<stop  offset="0" style="stop-color:#231F20"/>
			<stop  offset="1" style="stop-color:#231F20;stop-opacity:0"/>
		</radialGradient>
		<path opacity="0.2" fill="url(#SVGID_5_)" d="M461.125,99.451c-0.575,25.743-53.201,45.503-117.541,44.134
			c-64.342-1.372-116.029-23.355-115.453-49.097c0.574-25.747,53.2-45.505,117.54-44.133
			C410.014,51.727,461.705,73.713,461.125,99.451z"/>
		<g id="glasses_1_">
			<g>
				<g>
					<g>
						<path fill="#51677F" d="M230.459,37.365c0.493,0.049,0.996,0.217,1.438,0.53l24.861,16.69
							c4.777,3.208,9.953,5.819,15.373,7.762c5.42,1.951,11.074,3.219,16.81,3.776L404.33,77.37l-0.618,6.274L288.327,72.396
							c-6.246-0.608-12.409-2.005-18.317-4.116c-5.9-2.115-11.54-4.968-16.755-8.474l-24.856-16.691
							c-1.445-0.969-1.827-2.922-0.858-4.362C228.207,37.755,229.344,37.252,230.459,37.365z"/>
						<path fill="#51677F" d="M409.873,54.851c-0.494-0.046-1.019,0.027-1.515,0.239l-27.632,11.577
							c-5.319,2.225-10.906,3.79-16.599,4.648c-5.691,0.869-11.487,1.016-17.221,0.457L231.515,60.527l-0.615,6.271L346.29,78.045
							c6.245,0.613,12.564,0.431,18.768-0.497c6.208-0.938,12.285-2.646,18.087-5.079l27.637-11.575
							c1.603-0.672,2.359-2.516,1.692-4.115C412.009,55.671,410.988,54.957,409.873,54.851z"/>
					</g>
				</g>
				<path fill="#21374D" d="M326.019,71.027L326.019,71.027c-0.445,4.537-4.492,7.874-9.027,7.427c-4.54-0.44-7.863-4.49-7.419-9.03
					l0,0l-6.249-0.611l0,0c-0.788,8.015,5.055,15.133,13.05,15.913c7.992,0.784,15.113-5.082,15.899-13.09l0,0L326.019,71.027z"/>
				<g>
					<path fill="#E1EFFA" d="M333.235,61.83c0.649-6.598,6.565-11.478,13.161-10.836l41.721,4.067
						c6.585,0.644,11.444,6.57,10.795,13.168L396.7,90.767c-0.647,6.604-6.57,11.475-13.157,10.838l-41.725-4.07
						c-6.59-0.646-11.446-6.568-10.794-13.167L333.235,61.83z"/>
					<path fill="#CEE2F1" d="M341.818,97.535l22.955,2.237l4.579-46.543l-22.956-2.236c-6.596-0.641-12.512,4.238-13.161,10.836
						l-2.211,22.538C330.372,90.967,335.229,96.889,341.818,97.535z"/>
				</g>
				<g>
					<path fill="#E1EFFA" d="M238.79,52.619c0.648-6.592,6.568-11.476,13.158-10.831l41.725,4.068
						c6.588,0.638,11.439,6.568,10.795,13.165l-2.213,22.541c-0.65,6.598-6.567,11.475-13.155,10.832l-41.724-4.065
						c-6.589-0.643-11.449-6.572-10.803-13.173L238.79,52.619z"/>
					<path fill="#CEE2F1" d="M247.376,88.329l22.95,2.236l4.574-46.543l-22.952-2.233c-6.59-0.646-12.51,4.238-13.158,10.831
						l-2.217,22.537C235.927,81.756,240.787,87.686,247.376,88.329z"/>
				</g>
				<path fill="#2B455F" d="M338.112,103.343l47.935,4.672c8.32,0.81,15.8-5.344,16.616-13.676l2.797-28.458
					c0.815-8.329-5.321-15.818-13.639-16.625l-47.934-4.673c-8.322-0.81-15.798,5.347-16.618,13.677l-2.794,28.455
					C323.654,95.053,329.792,102.532,338.112,103.343z M333.235,61.83c0.649-6.598,6.565-11.478,13.161-10.836l41.721,4.067
					c6.585,0.644,11.444,6.57,10.795,13.168L396.7,90.767c-0.647,6.604-6.57,11.475-13.157,10.838l-41.725-4.07
					c-6.59-0.646-11.446-6.568-10.794-13.167L333.235,61.83z"/>
				<path fill="#2B455F" d="M243.666,94.137l47.937,4.67c8.32,0.813,15.796-5.342,16.616-13.671l2.797-28.461
					c0.815-8.329-5.321-15.811-13.639-16.627l-47.937-4.67c-8.321-0.808-15.797,5.348-16.616,13.678l-2.796,28.455
					C229.212,85.842,235.344,93.325,243.666,94.137z M238.79,52.619c0.648-6.592,6.568-11.476,13.158-10.831l41.725,4.068
					c6.588,0.638,11.439,6.568,10.795,13.165l-2.213,22.541c-0.65,6.598-6.567,11.475-13.155,10.832l-41.724-4.065
					c-6.589-0.643-11.449-6.572-10.803-13.173L238.79,52.619z"/>
			</g>
		</g>
	</g>
</g>
</svg>
