<?xml version="1.0" encoding="utf-8"?>
<!-- Generator: Adobe Illustrator 16.0.0, SVG Export Plug-In . SVG Version: 6.00 Build 0)  -->
<!DOCTYPE svg PUBLIC "-//W3C//DTD SVG 1.1//EN" "http://www.w3.org/Graphics/SVG/1.1/DTD/svg11.dtd">
<svg version="1.1" id="Layer_1" xmlns="http://www.w3.org/2000/svg" xmlns:xlink="http://www.w3.org/1999/xlink" x="0px" y="0px"
	 width="114.682px" height="458.447px" viewBox="0 0 114.682 458.447" enable-background="new 0 0 114.682 458.447"
	 xml:space="preserve">
<g>
	<path fill="#CB7D7E" d="M18.71,321.345l4.154-12.172l-19.5-7.096c0,0-3.845,13.012-3.314,14.596
		c0.533,1.58,6.712,6.906,11.745,6.701C16.826,323.173,18.71,321.345,18.71,321.345"/>
	<path fill="#DEA7A7" d="M3.253,314.021c-1.567-2.119-2.145,1.244-1.187,2.912c0.958,1.67,7.488,4.041,11.546,4.428
		c-1.801-0.828-3.562-1.744-5.262-2.883C6.461,317.212,4.822,316.142,3.253,314.021"/>
	<path fill="#FAD568" d="M29.222,288.009L99.907,53.934c-0.631-0.055-1.237-0.277-1.776-0.616l-2.481,0.273L24.785,288.992
		L29.222,288.009z"/>
	<polygon fill="#FEE9AB" points="85.271,50.906 16.33,283.884 24.785,288.992 95.65,53.59 	"/>
	<polygon fill="#E7C051" points="80.086,45.954 10.292,279.572 16.396,285.853 85.271,50.906 	"/>
	<path fill="#ECDBBC" d="M106.611,0l-6.877,54.052c0,0-2.385,2.688-9.123,1.465c-6.74-1.222-10.953-8.604-10.953-8.604L106.611,0z"
		/>
	<path fill="#454545" d="M103.85,21.697L106.611,0l-9.744,16.96C98.603,19.203,101.126,20.608,103.85,21.697z"/>
	<path fill="#D2DBDD" d="M30.945,285.621l-8.142,24.271c0,0-5.898,1.939-11.833-0.473c-5.937-2.412-8.324-5.279-8.324-5.279
		l7.411-26.156c0,0,4.931,5.184,10.27,6.982C25.667,286.761,30.945,285.621,30.945,285.621"/>
	<g>
		<g>
			<defs>
				
					<rect id="SVGID_1_" x="12.262" y="273.171" transform="matrix(0.7172 -0.6969 0.6969 0.7172 -192.4023 93.8189)" width="14.266" height="21.605"/>
			</defs>
			<clipPath id="SVGID_2_">
				<use xlink:href="#SVGID_1_"  overflow="visible"/>
			</clipPath>
			<path clip-path="url(#SVGID_2_)" fill="#D2DBDD" d="M18.016,288.25c2.161,0.605,6.581,2.432,9.478,1.996
				c0.698-0.584,1.474-1.053,2.361-1.373l1.09-3.25c0,0-5.278,1.139-10.616-0.658c-5.34-1.797-10.272-6.98-10.272-6.98l-1.45,5.121
				c1.479,1.074,2.982,2.111,4.505,3.119C14.715,287.08,16.364,287.789,18.016,288.25"/>
		</g>
	</g>
	<g>
		<g>
			<defs>
				
					<rect id="SVGID_3_" x="8.366" y="286.731" transform="matrix(0.7173 -0.6968 0.6968 0.7173 -202.9374 94.8198)" width="14.018" height="21.506"/>
			</defs>
			<clipPath id="SVGID_4_">
				<use xlink:href="#SVGID_3_"  overflow="visible"/>
			</clipPath>
			<path clip-path="url(#SVGID_4_)" fill="#D2DBDD" d="M13.545,295.796c-2.415-1.254-4.732-2.721-6.993-4.287
				c-0.094-0.057-0.184-0.117-0.277-0.176l-1.5,5.299c1.994,1.506,4.033,2.932,6.396,3.787c4.336,1.574,9.256,3.203,13.939,2.598
				l1.39-4.145C22.1,299.455,17.43,297.814,13.545,295.796"/>
		</g>
	</g>
</g>
<path opacity="0.17" fill="#030303" d="M110.392,437.14l-24.384-59.117h0.001l-13.09-31.736c0-0.002,0-0.004-0.001-0.004
	l-2.123-5.148h0l-0.875-2.119h0l-1.248-3.025c-0.438-1.066-1.661-1.576-2.728-1.137l-3.859,1.592c-0.001,0-0.002,0-0.004,0.002
	l-28.847,11.898l-5.676,2.342c-1.067,0.439-1.575,1.662-1.134,2.729l1.248,3.025l0,0l0.307,0.744l0.036,0.086
	c0,0.002,0.001,0.004,0.002,0.006l15.744,38.172l0,0l24.384,59.119c1.321,3.199,4.985,4.725,8.185,3.404l30.66-12.646
	C110.189,444.007,111.712,440.339,110.392,437.14z"/>
<path fill="#4A799C" d="M114.207,432.843c1.32,3.199-0.203,6.865-3.404,8.184l-30.66,12.646c-3.2,1.32-6.865-0.205-8.185-3.404
	L31.829,352.98c-1.32-3.199,0.205-6.865,3.405-8.186l30.66-12.646c3.201-1.32,6.865,0.205,8.185,3.404L114.207,432.843z"/>
<path fill="#B83F3F" d="M89.824,373.724l-15.745-38.172c-1.32-3.199-4.984-4.725-8.185-3.404l-30.66,12.646
	c-3.2,1.32-4.725,4.986-3.405,8.186l15.744,38.172L89.824,373.724z"/>
<path fill="#C75555" d="M76.732,341.984c0.439,1.066-0.069,2.289-1.135,2.729L37.21,360.544c-1.066,0.441-2.288-0.066-2.728-1.133
	l-4.245-10.295c-0.44-1.066,0.067-2.289,1.134-2.729l38.386-15.834c1.067-0.439,2.289,0.07,2.728,1.137L76.732,341.984z"/>
<rect x="30.195" y="343.343" transform="matrix(0.9245 -0.3813 0.3813 0.9245 -127.3409 46.2493)" fill="#F2C7C8" width="45.703" height="2.294"/>
<path opacity="0.37" fill="#FDFEFF" d="M79.167,444.873c0.543,1.316-0.084,2.826-1.401,3.369l0,0
	c-1.317,0.541-2.826-0.086-3.369-1.402l-30.183-73.178c-0.543-1.318,0.084-2.826,1.401-3.369l0,0
	c1.317-0.543,2.825,0.084,3.369,1.402L79.167,444.873z"/>
</svg>
