<?xml version="1.0" encoding="utf-8"?>
<!-- Generator: Adobe Illustrator 16.0.0, SVG Export Plug-In . SVG Version: 6.00 Build 0)  -->
<!DOCTYPE svg PUBLIC "-//W3C//DTD SVG 1.1//EN" "http://www.w3.org/Graphics/SVG/1.1/DTD/svg11.dtd">
<svg version="1.1" id="Layer_1" xmlns="http://www.w3.org/2000/svg" xmlns:xlink="http://www.w3.org/1999/xlink" x="0px" y="0px"
	 width="801.714px" height="474.5px" viewBox="0 0 801.714 474.5" enable-background="new 0 0 801.714 474.5" xml:space="preserve">
<g>
	<g id="wood_table">
		<rect y="236.579" fill="#E9CFAC" width="800" height="237.921"/>
		<g opacity="0.15">
			<g>
				<path fill="#BF864F" d="M0,362.977c0,0,71.349,0,171.844,0c3.238,0,6.514,0,9.81,0c50.821,0,101.359,0,151.198,0
					c3.817,0,7.636,0,11.46,0c49.665,0,100.425,0,149.07,0c4.009,0,8,0,11.959,0c34.093,0,69.319,0,104.66,0
					c5.052,0,10.103,0,15.153,0c4.745,0,9.561,0,14.416,0c4.858,0,9.833,0,14.822,0c10.476,0,18.897,0,29.332,0
					c4.885,0,9.733,0,14.525,0c4.79,0,9.522,0,14.173,0c3.233,0,6.386,0,9.455,0c43.027,0,78.122,0,78.122,0v2.339
					c0,0-38.987,0-87.6,0c-3.23,0-6.55-0.004-9.901-0.008c-20.785,0.005-43.248,0.008-62.189,0.008c-5.054,0-10.105,0-15.155,0
					c-40.406,0-80.858-0.003-119.843-0.004c-3.93,0.001-7.921,0.004-11.93,0.004c-48.646,0-99.405,0-149.07,0
					c-3.826,0-7.647,0-11.462,0c-49.837,0-100.375,0-151.193,0c-3.298,0-6.574,0-9.812,0c-100.495,0-171.844,0-171.844,0V362.977z"
					/>
				<path fill="#BF864F" d="M0,356.866c0,0,75.239,0,181.675,0c3.323,0,6.675,0,10.049,0c44.002,0,86.453,0.594,130.838,0.006
					c3.84-0.006,7.681-0.006,11.54-0.006c26.854,0,54.099,0,81.23,0c4.521,0,9.047,0,13.562,0c16.269,0,36.081,0,53.747,0
					c4.435,0,8.851,0,13.249,0c4.043,0,8.066,0,12.062,0c31.063,0,63.271,0.284,95.278,0.293c4.57,0.003,9.14,0.147,13.706,0.147
					c29.173-0.015,54.645,0.058,83.964,0.011c4.285,0.035,8.879,0.072,13.472,0.069c4.599-0.003,9.194-0.271,13.789-0.274
					c3.453,0.018,6.853-0.246,10.127-0.246c36.171,0,61.712,0,61.712,0v1.169c0,0-23.371,0-56.257,0c-5.481,0-11.328,0-17.516,0
					c-4.001,0-8.033,0-12.082,0c-4.058,0-8.131,0-12.218,0c-24.685,0-47.327,0.294-73.107,0.313
					c-5.183-0.016-10.282-0.163-15.373-0.164c-35.622-0.002-71.129-0.149-105.492-0.149c-3.998,0-8.021,0-12.064,0
					c-9.804,0-19.697,0-29.646,0c-9.954,0-19.963,0-30.009,0c-10.043,0-20.119,0-30.204,0c-20.176,0-40.376,0-60.399,0
					c-3.858,0-7.705,0-11.55,0c-50.241,1.169-101.188,1.169-152.407,0c-3.326,0-6.628,0-9.894,0c-101.296,0-171.782,0-171.782,0
					V356.866z"/>
				<path fill="#BF864F" d="M0,350.358c0,0,45.863,0,118.168,0c3.451,0,7.292,0.313,11.136,0.325
					c13.025-0.037,30.005-0.182,44.705-0.205c3.587,0.022,7.557-0.12,11.563-0.12c4.019,0,8.074,0,12.167,0
					c3.473,0,6.975,0,10.499,0c35.981,0,75.604,0,111.921,0c3.885,0,7.78,0,11.681,0c14.633,0,29.383,0,44.172,0
					c4.933,0,9.866,0,14.803,0c40.199,1.17,76.991,0.594,117.184,0.008c3.987-0.008,7.979-0.008,11.95-0.008
					c24.875,0,50.046,0,75.346,0c5.063,0,10.39,0.388,15.873,0.537c37.775,2.13,71.734-2.176,109.731-0.553
					c4.302,0.097,8.731,0.016,13.284,0.016c4.562,0,9.1,0,13.608,0c6.079,0,11.666,0,16.706,0c20.158,0,35.503,0,35.503,0v2.339
					c0,0-21.784,0-52.215,0c-3.037,0-6.199,0.006-9.425-0.019c-4.127,0.002-8.299,0.012-12.497,0.012
					c-37.3-0.571-76.921,0.025-115.06,0.11c-5.396-0.083-10.459-0.092-15.518-0.092c-25.3-0.003-50.473-0.012-75.36-0.012
					c-3.955,0-7.944,0-11.951,0c-34.511,0-68.473-0.001-102.305,0.012c-4.982-0.013-9.919-0.012-14.855-0.012
					c-19.744,0-39.467,0-58.975,0c-3.9,0-7.796,0-11.681,0c-36.317,0-75.94,0-111.939,0.004c-3.515-0.003-7.012-0.004-10.48-0.004
					c-114.638,0-197.739,0-197.739,0V350.358z"/>
				<path fill="#BF864F" d="M0,343.843c0,0,33.881,0,90.447,0c3.327,0,6.73,0,10.199,0c30.362,0,64.322,0,94.772-0.004
					c4.356,0,8.762,0.004,13.2,0.004c4.446,0,8.935,0,13.457,0c3.427,0,6.874,0,10.34,0c23.123,0,42.934,0,64.276,0
					c3.66,0,7.333,0,11.015,0c19.987,0,40.288,0,60.696,0c5.099,0,10.206,0,15.316,0c44.463,1.169,89.745,0,136.238,0
					c3.972,0,7.931,0,11.87,0c13.566,0,27.015,0,40.395,0c6.69,0,13.364,0,20.031,0c3.787,0,7.789,0.355,11.892,0.463
					c41.965,2.184,87.248-2.441,129.517-0.068c4.813,0,9.636-0.199,14.461-0.199c6.038,0.002,11.588-0.195,16.596-0.195
					c20.024,0,35.282,0,35.282,0v1.169c0,0-15.345,0-35.503,0c-5.04,0-10.627,0-16.706,0c-4.509,0-8.988,0-13.447,0
					c-42.951-1.169-88.234,1.786-132.082,0.089c-4.087-0.086-8.001-0.089-11.921-0.089c-19.584,0-39.21,0-58.535,0
					c-3.92,0-7.877,0-11.852,0c-40.826,1.169-80.452,1.19-120.731,0.056c-5.25-0.046-10.394-0.056-15.504-0.056
					c-25.549,0-51.026,0-76.012,0c-3.689,0-7.362,0-11.027,0c-26.99,0-55.293,0-84.811,0c-3.376,0-6.739,0-10.069,0
					c-31.167,0-59.469,0-91.432,0c-3.4,0-6.735,0-10.008,0c-62.25,0-100.358,0-100.358,0V343.843z"/>
				<path fill="#BF864F" d="M0,336.956c0,0,27.334,0,74.783,0c5.273,0,10.772,0.004,17.134,0.238
					c39.091,2.141,81.546-1.408,121.1-0.238c3.823,0,7.671,0,11.545,0c42.646,0,88.542,0,135.125,0
					c4.141,0,8.286,0.294,12.436,0.295c47.57,1.186,98.514,1.635,147.847-0.14c3.962-0.007,7.919-0.155,11.858-0.155
					c17.595,0,35.106,0,52.535,0c3.485,0,6.965,0.294,10.442,0.373c45.646,2.297,90.93-2.315,136.655-0.089
					c4.535,0.124,9.051-0.095,13.566-0.099c4.033,0.027,7.841-0.186,11.435-0.186c25.128,0,43.539,0,43.539,0v1.17
					c0,0-20.558,0-49.087,0c-3.171,0-6.496,0.271-9.979,0.23c-46.711-1.715-97.654,1.703-146.137-0.002
					c-3.534-0.077-7.044-0.229-10.553-0.229c-17.542,0-35.08,0-52.417,0c-3.939,0-7.898,0.303-11.864,0.309
					c-46.499,1.182-88.949,1.625-135.317-0.122c-4.22-0.026-8.374-0.187-12.522-0.187c-51.698,0-102.835,0-149.926,0
					c-3.62,0-7.211-0.003-10.782-0.004c-43.613-1.779-88.897,1.172-130.688,0.004c-5.092,0-9.996,0-14.691,0
					c-42.278,0-66.037,0-66.037,0V336.956z"/>
				<path fill="#BF864F" d="M0,314.099c0,0,34.371-0.445,75.787,0c5.271,0.057,17.09,0.797,23.178,1.041
					c41.873,1.834,71.919-3.366,114.621-1.297c3.621,0.192,7.11,0.365,10.976,0.365c42.646,0,88.542,0,135.125,0
					c4.141,0,8.286-0.051,12.436-0.049c50.402,1.184,85.272,3.375,134.601,1.007c7.781-0.742,21.189-0.993,25.236-0.976
					c17.07-0.007,34.089,0.018,51.063,0.018c3.397,0,6.792,0,10.184,0c44.415,2.339,92.529-1.789,138.164-0.094
					c4.647,0.088,9.166,0.094,13.686,0.094c4.011,0,7.817,0,11.406,0c3.591,0,6.963,0,10.108,0c18.873,0,33.431,0,33.431,0v2.339
					c0,0-18.411,0-43.539,0c-3.589,0-7.396,0-11.406,0c-4.52,0-9.038-0.037-13.626-0.158c-45.694-2.255-90.979,2.521-136.656,0.219
					c-3.445-0.075-6.925-0.061-10.41-0.061c-17.429,0-34.94,0-52.535,0c-3.939,0-7.896-0.03-11.856-0.022
					c-52.165,1.771-97.446,1.194-147.849,0.011c-4.15-0.003-8.295,0.012-12.436,0.012c-46.583,0-92.478,0-135.125,0
					c-3.86,0-7.704-0.042-11.228-0.194c-39.871-1.623-82.326,1.926-121.271,0.501c-6.295-0.243-11.022-0.265-16.277-0.368
					C30.127,315.595,0,316.477,0,316.477V314.099z"/>
				<path fill="#BF864F" d="M0,321.954c0,0,23.759,0,66.037,0c4.695,0,9.595,0.465,14.581,0.649c7.936,1,17.135,1.067,25.626,1.067
					c42.452,0.595,53.066-2.886,126.888-1.717c3.673,0,7.361,0,11.075,0c40.828,0,84.171,0,127.916,0
					c4.15,0,8.304,0.469,12.47,0.482c34.814,1.322,67.398,1.547,101.126,0.961c6.747-0.116,13.539-0.141,20.402-0.299
					c30.838-0.584,61.899-0.627,92.907-0.564c4.424,0.011,8.838,0.057,12.926,0.152c34.156,0.159,70.948,0.173,105.253,0.135
					c5.5,0.114,10.496,0.115,15.448,0.093c4.938-0.023,9.868-0.507,14.79-0.548c10.095,0.042,18.928-0.412,26.164-0.412
					c14.464,0,26.392,0,26.392,0v2.339c0,0-11.928,0-26.392,0c-7.236,0-16.073,0-26.302,0c-5.408,0-10.822,0-16.247,0
					c-42.496-2.339-87.78,1.074-130.102-0.099c-4.509,0.001-9.016-0.055-13.52-0.055c-22.521,0.01-44.975-0.009-67.311,0.008
					c-5.072,0.139-10.056,0.26-15.017,0.383c-44.632,1.099-90.177,0.189-132.989-0.342c-4.15,0-8.295,0.104-12.436,0.104
					c-46.583,0-92.478,0-135.125,0c-3.875,0-7.774-0.313-11.671-0.505c-28.108-1.395-56.412-0.262-84.715,1.521
					c-16.979,1.189-36.788-0.51-53.393-1.102c-5.278-0.001-10.322,0.085-15.132,0.085c-38.473,0-59.65,0-59.65,0V321.954z"/>
				<path fill="#BF864F" d="M800,245.345c0,0-31.829,0-79.275,0c-5.275,0-10.776-0.003-17.138-0.274
					c-39.093-2.457-81.545,2.613-121.101,0.274c-3.822,0-7.669,0-11.547,0c-42.644,0-88.541,0-135.121,0
					c-4.143,0-8.288-0.631-12.437-0.632c-47.571-1.36-98.516-1.73-147.847,0.307c-3.961,0.007-7.918,0.325-11.857,0.325
					c-17.593,0-35.106,0-52.536,0c-3.483,0-6.968-0.631-10.442-0.721c-45.645-2.639-90.932,2.508-136.654-0.045
					c-4.536-0.143-9.052,0.329-13.563,0.332c-4.039-0.031-7.846,0.434-11.442,0.434c-25.125,0-39.04,0-39.04,0v-2.339
					c0,0,16.064,0,44.59,0c3.172,0,6.5-0.107,9.98-0.06c46.708,1.966,97.654-2.059,146.137-0.102
					c3.535,0.089,7.044,0.161,10.551,0.161c17.545,0,35.078,0,52.419,0c3.939,0,7.898-0.143,11.864-0.15
					c46.497-1.356,88.95-1.969,135.315,0.037c4.218,0.031,8.372,0.113,12.521,0.113c51.699,0,102.838,0,149.929,0
					c3.616,0,7.21,0.003,10.778,0.004c43.616,2.044,88.9-1.173,130.691-0.004c5.097,0,9.996,0,14.692,0c42.278,0,70.531,0,70.531,0
					V245.345z"/>
				<path fill="#BF864F" d="M800,254.626c0,0-38.468,0.513-79.885,0c-5.268-0.065-17.292-0.916-23.38-1.194
					c-41.87-2.105-72.015,4.443-114.719,2.069c-3.622-0.219-7.209,0.164-11.077,0.164c-42.644,0-88.541,0-135.121,0
					c-4.143,0-8.288-0.522-12.437-0.526c-50.401-1.359-85.272-4.166-134.599-1.448c-7.784,0.854-21.192,1.58-25.236,1.558
					c-17.073,0.008-34.091,0.416-51.064,0.416c-3.398,0-6.792,0-10.184,0c-44.415-4.677-92.533,2.053-138.165,0.106
					c-4.65-0.099-9.167-0.106-13.688-0.106c-4.008,0-7.816,0-11.407,0c-3.587,0-6.96,0-10.105,0c-18.873,0-28.935,0-28.935,0v-4.677
					c0,0,13.915,0,39.04,0c3.591,0,7.399,0,11.407,0c4.521,0,9.038,0.457,13.626,0.595c45.694,2.588,90.981-3.099,136.656-0.458
					c3.444,0.087,6.929-0.137,10.412-0.137c17.43,0,34.943,0,52.536,0c3.939,0,7.896,0.45,11.857,0.44
					c52.163-2.034,97.446-1.579,147.847-0.219c4.148,0.002,8.294-0.221,12.437-0.221c46.58,0,92.478,0,135.121,0
					c3.862,0,7.707,0.462,11.231,0.638c39.871,1.863,82.323-2.005,121.269-0.368c6.294,0.279,11.422,0.407,16.676,0.525
					c45.663,1.023,79.885,0.114,79.885,0.114V254.626z"/>
				<path fill="#BF864F" d="M800,265.074c0,0-28.253,0-70.531,0c-4.696,0-9.594-0.743-14.581-0.958
					c-7.939-1.147-17.141-1.117-25.629-1.117c-42.451-0.685-53.065,3.245-126.89,2.075c-3.669,0-7.359,0-11.072,0
					c-40.827,0-84.173,0-127.915,0c-4.153,0-8.308-0.75-12.473-0.765c-34.814-1.517-67.397-1.882-101.122-1.211
					c-6.75,0.134-13.54,0.111-20.405,0.29c-30.837,0.673-61.899,0.695-92.906,0.622c-4.426-0.013-8.84-0.076-12.928-0.186
					c-34.155-0.184-70.947-0.207-105.25-0.162c-5.498-0.132-10.496-0.137-15.447-0.112c-4.939,0.025-9.87,0.794-14.792,0.842
					c-10.094-0.049-18.928,0.682-26.162,0.682c-14.467,0-21.898,0-21.898,0v-3.507c0,0,7.431,0,21.898,0c7.234,0,16.068,0,26.3,0
					c5.407,0,10.822,0,16.242,0c42.501,3.507,87.784-1.036,130.104,0.313c4.51-0.002,9.017,0.162,13.521,0.16
					c22.521-0.009,44.977,0.06,67.307,0.042c5.078-0.159,10.058-0.273,15.019-0.416c44.632-1.263,90.175-0.404,132.991,0.206
					c4.148,0.002,8.294-0.305,12.437-0.305c46.58,0,92.478,0,135.121,0c3.878,0,7.773,0.56,11.675,0.778
					c28.106,1.601,56.408,0.4,84.709-1.648c16.983-1.365,36.796,0.436,53.401,1.114c5.273,0.002,10.318-0.244,15.128-0.244
					c38.476,0,64.147,0,64.147,0V265.074z"/>
				<path fill="#BF864F" d="M0,307.444c0,0,23.759,0,66.037,0c4.695,0,9.599,0,14.691,0c13.486,1.169,24.81,1.043,38.959,1.043
					c31.133-1.783,59.437-1.71,91.214-1.418c3.875,0.167,7.666,0.375,11.297,0.375c47.086,0,98.228,0,149.924,0
					c4.15,0,8.304-0.141,12.459-0.137c35.671,0.512,72.636,0.504,108.229,0.123c5.084-0.055,10.14-0.154,15.274-0.184
					c30.532-0.021,60.76-0.055,91.008-0.064c5.04-0.003,10.082-0.012,15.114-0.012c31.902-0.008,60.204-0.012,90.753-0.131
					c5.609,0.068,10.854,0.082,16,0.079c10.293-0.004,20.634,0.134,31.042,0.126c9.178,0.052,17.192,0.199,23.748,0.199
					c13.115,0,24.25,0,24.25,0v1.169c0,0-10.693,0-23.047,0c-6.177,0-13.738,0-22.521,0c-5.175,0-10.354,0-15.523,0
					c-5.177,0-10.343,0-15.513,0c-37.662,0-71.626-0.134-108.729-0.036c-4.205-0.064-8.727-0.131-13.244-0.127
					c-31.652,0.025-63.383,0.027-95.303,0.091c-6.863,0.069-13.655,0.112-20.402,0.155c-33.728,0.223-66.313,0.24-101.136-0.195
					c-4.156-0.008-8.309,0.112-12.458,0.112c-43.745,0-87.089,0-127.917,0c-3.714,0-7.402,0-11.075,0
					c-45.519-2.339-85.142,1.056-130.424,0.459c-5.665,0-16.983,0.663-22.143-0.365c-4.933-0.158-9.833-0.094-14.528-0.094
					c-42.278,0-66.037,0-66.037,0V307.444z"/>
				<path fill="#BF864F" d="M0,300.999c0,0,24.893,0,68.813,0c4.882,0,9.974,0,15.261,0c44.101,1.17,89.389-1.783,135.288-0.002
					c3.69,0,7.403,0.002,11.147,0.002c4.857,0,9.758,0,14.689,0c4.936,0,9.911,0,14.914,0c15.238,0,32.22,0,45.819,0
					c5.163,0,10.35,0,15.558,0c20.827,0,41.935,0,63.093,0c4.152,0,8.309-0.158,12.468-0.154c29.716-0.009,57.27-0.092,86.302-0.08
					c4.15,0.001,8.328-0.039,12.547-0.037c37.237-0.008,74.978-0.033,112.718-0.041c5.392-0.002,10.784-0.015,16.173-0.015
					c21.32,0.007,41.134,0.001,64.193-0.05c5.646,0.017,11.018,0.013,16.359,0.01c16.02-0.01,31.953,0.144,47.772,0.129
					c8.938,0.07,16.758,0.238,23.152,0.238c12.791,0,23.733,0,23.733,0v1.17c0,0-11.135,0-24.25,0c-6.556,0-14.57-0.16-23.731-0.222
					c-11.709,0.094-23.34,0.06-34.909,0.07c-3.853,0.005-7.702-0.034-11.545-0.038c-28.321-0.083-59.455-0.103-88.313-0.382
					c-4.543-0.021-9.078-0.052-13.616-0.067c-31.758-0.112-63.473-0.093-95.523,0.403c-4.746,0.036-9.467,0.071-14.116,0.126
					c-32.56,0.389-64.751,0.479-96.934-0.018c-4.171-0.015-8.328,0.127-12.48,0.127c-52.893,0-105.492,0-154.076,0
					c-3.74,0-7.453-0.158-11.146-0.16c-45.897-2.374-91.185,2.461-135.581,0.232c-4.998-0.148-10.087-0.072-14.965-0.072
					c-43.921,0-68.813,0-68.813,0V300.999z"/>
				<path fill="#BF864F" d="M0.032,289.503c40.579,0.06,81.22,0.109,121.903,0.149c5.086,0.006,10.17,0.012,15.364,0.013
					c88.542-0.541,173.205,0.596,261.781,0.398c4.894-0.027,9.777-0.062,14.647-0.105c4.87-0.041,9.725-0.091,14.572-0.146
					c5.336-0.02,10.421-0.025,15.485-0.03c14.93-0.003,29.861-0.006,44.792-0.013c5.427-0.002,10.901,0.007,16.294,0.01
					c28.591,0.103,53.99,0.103,81.605-0.07c5.411-0.018,10.81-0.035,16.203-0.052c48.529-0.166,96.461-0.433,145.772-0.161
					c10.8-0.014,40.771-0.094,51.548-0.094c4.908,0-2.547,0,0,0c2.551,0,0,0,0,0l0,0c0,0,2.356,0,0,0c-2.359,0,4.562,0.431,0,0.432
					c-10.823,0.016-39.725,0.244-50.57,0.256c-48.124-0.27-96.801,0.053-145.935,0.22c-5.478,0.021-11.095,0.114-16.562,0.134
					c-28.072,0.143-53.472,0.172-81.7,0.084c-5.508-0.023-10.954-0.013-16.382-0.013c-9.791,0.005-19.58,0.013-29.371,0.015
					c-4.893,0.002-9.789,0.008-14.69,0.008c-14.038,0.029-28.185,0.053-42.363,0.066c-4.761,0.005-9.607,0.005-14.333,0.009
					c-83.231-0.351-167.896-0.351-250.724-0.191c-5.076-0.005-10.367-0.005-15.453-0.009c-40.691-0.043-81.34-0.092-121.917-0.15
					L0.032,289.503z"/>
				<path fill="#BF864F" d="M0,467.196c0,0,45.863,0,118.168,0c3.451,0,7.292,0.42,11.136,0.432
					c13.025-0.037,30.005-0.234,44.705-0.258c3.587,0.021,7.557-0.174,11.563-0.174c4.019,0,8.074,0,12.167,0
					c3.473,0,6.975,0,10.499,0c35.981,0,75.604,0,111.921,0c3.885,0,7.78,0,11.681,0c14.633,0,29.383,0,44.172,0
					c4.933,0,9.866,0,14.803,0c40.199,1.172,76.991,0.598,117.184,0.012c3.987-0.01,7.979-0.012,11.95-0.012
					c24.875,0,50.046,0,75.346,0c5.063,0,10.39,0.494,15.873,0.643c37.775,2.128,71.734-2.229,109.731-0.604
					c4.302,0.096,8.731-0.039,13.284-0.039c4.562,0,9.1,0,13.608,0c6.079,0,11.666,0,16.706,0c20.158,0,35.503,0,35.503,0v2.339
					c0,0-21.784,0-52.215,0c-3.037,0-6.199,0.111-9.425,0.084c-4.127,0.006-8.299,0.066-12.497,0.066
					c-37.3-0.572-76.921,0.049-115.06,0.137c-5.396-0.082-10.459-0.07-15.518-0.07c-25.3,0-50.473,0.006-75.36,0.006
					c-3.955,0-7.944,0.004-11.951,0.004c-34.511,0-68.473-0.115-102.305-0.102c-4.982-0.014-9.919-0.125-14.855-0.125
					c-19.744,0-39.467,0-58.975,0c-3.9,0-7.796,0-11.681,0c-36.317,0-75.94,0-111.939,0.006c-3.515-0.006-7.012-0.006-10.48-0.006
					c-114.638,0-197.739,0-197.739,0V467.196z"/>
				<path fill="#BF864F" d="M0,459.274c0,0,33.881,0,90.447,0c3.327,0,6.73,0,10.199,0c30.362,0,64.322,0,94.772-0.002
					c4.356,0,8.762,0.002,13.2,0.002c4.446,0,8.935,0,13.457,0c3.427,0,6.874,0,10.34,0c23.123,0,42.934,0,64.276,0
					c3.66,0,7.333,0,11.015,0c19.987,0,40.288,0,60.696,0c5.099,0,10.206,0,15.316,0c44.463,1.17,89.745,0,136.238,0
					c3.972,0,7.931,0,11.87,0c13.566,0,27.015,0,40.395,0c6.69,0,13.364,0,20.031,0c3.787,0,7.789,0.459,11.892,0.568
					c41.965,2.18,87.248-2.389,129.517-0.018c4.813,0.002,9.636-0.277,14.461-0.277c6.038,0.006,11.588-0.273,16.596-0.273
					c20.024,0,35.282,0,35.282,0v1.17c0,0-15.345,0-35.503,0c-5.04,0-10.627,0-16.706,0c-4.509,0-8.988,0-13.447,0
					c-42.951-1.17-88.234,1.785-132.082,0.088c-4.087-0.086-8.001-0.088-11.921-0.088c-19.584,0-39.21,0-58.535,0
					c-3.92,0-7.877,0-11.852,0c-40.826,1.17-80.452,1.189-120.731,0.057c-5.25-0.047-10.394-0.057-15.504-0.057
					c-25.549,0-51.026,0-76.012,0c-3.689,0-7.362,0-11.027,0c-26.99,0-55.293,0-84.811,0c-3.376,0-6.739,0-10.069,0
					c-31.167,0-59.469,0-91.432,0c-3.4,0-6.735,0-10.008,0c-62.25,0-100.358,0-100.358,0V459.274z"/>
				<path fill="#BF864F" d="M0,428.422c0,0,34.371-0.447,75.787,0c5.271,0.055,17.09,0.797,23.178,1.039
					c41.873,1.834,71.919-3.373,114.621-1.303c3.621,0.189,7.11,0.355,10.976,0.355c42.646,0,88.542,0,135.125,0
					c4.141,0,8.286-0.043,12.436-0.041c50.402,1.182,85.272,3.379,134.601,1.012c7.781-0.742,21.189-1.004,25.236-0.982
					c17.07-0.008,34.089,0.012,51.063,0.012c3.397,0,6.792,0,10.184,0c44.415,2.338,92.529-1.791,138.164-0.094
					c4.647,0.086,9.166,0.094,13.686,0.094c4.011,0,7.817,0,11.406,0c3.591,0,6.963,0,10.108,0c18.873,0,33.431,0,33.431,0v2.338
					c0,0-18.411,0-43.539,0c-3.589,0-7.396,0-11.406,0c-4.52,0-9.038-0.027-13.626-0.148c-45.694-2.256-90.979,2.515-136.656,0.215
					c-3.445-0.074-6.925-0.066-10.41-0.066c-17.429,0-34.94,0-52.535,0c-3.939,0-7.896-0.021-11.856-0.014
					c-52.165,1.771-97.446,1.191-147.849,0.006c-4.15,0-8.295,0.008-12.436,0.008c-46.583,0-92.478,0-135.125,0
					c-3.86,0-7.704-0.035-11.228-0.188c-39.871-1.621-82.326,1.934-121.271,0.506c-6.295-0.242-11.022-0.26-16.277-0.363
					C30.127,429.914,0,430.801,0,430.801V428.422z"/>
				<path fill="#BF864F" d="M0,419.657c0,0,23.759,0,66.037,0c4.695,0,9.595-0.207,14.581-0.02
					c7.936,0.998,17.135,1.401,25.626,1.401c42.452,0.594,53.066-3.722,126.888-1.382c3.673,0,7.361,0,11.075,0
					c40.828,0,84.171,0,127.916,0c4.15,0,8.304-0.203,12.47-0.189c34.814,1.322,67.398,1.211,101.126,0.627
					c6.747-0.117,13.539-0.311,20.402-0.467c30.838-0.588,61.899-0.715,92.907-0.652c4.424,0.014,8.838,0.016,12.926,0.113
					c34.156,0.158,70.948,0.152,105.253,0.113c5.5,0.115,10.496,0.104,15.448,0.082c4.938-0.023,9.868,0.158,14.79,0.119
					c10.095,0.041,18.928,0.254,26.164,0.254c14.464,0,26.392,0,26.392,0v1.17c0,0-11.928,0-26.392,0c-7.236,0-16.073,0-26.302,0
					c-5.408,0-10.822,0-16.247,0c-42.496-1.17-87.78,0.985-130.102-0.188c-4.509,0.002-9.016-0.098-13.52-0.096
					c-22.521,0.008-44.975-0.029-67.311-0.014c-5.072,0.137-10.056,0.25-15.017,0.371c-44.632,1.099-90.177,0.269-132.989-0.26
					c-4.15-0.002-8.295,0.186-12.436,0.186c-46.583,0-92.478,0-135.125,0c-3.875,0-7.774-0.404-11.671-0.592
					c-28.108-1.396-56.412-0.307-84.715,1.476c-16.979,1.191-36.788-0.441-53.393-1.032c-5.278-0.004-10.322,0.148-15.132,0.148
					c-38.473,0-59.65,0-59.65,0V419.657z"/>
				<path fill="#BF864F" d="M0,410.503c0,0,23.759,0,66.037,0c4.695,0,9.599,0,14.691,0c13.486,2.34,24.81,1.51,38.959,1.51
					c31.133-1.783,59.437-1.943,91.214-1.65c3.875,0.166,7.666,0.141,11.297,0.141c47.086,0,98.228,0,149.924,0
					c4.15,0,8.304,0.326,12.459,0.33c35.671,0.51,72.636,0.736,108.229,0.355c5.084-0.055,10.14-0.037,15.274-0.066
					c30.532-0.021,60.76,0.004,91.008-0.008c5.04,0,10.082,0.02,15.114,0.018c31.902-0.008,60.204,0.004,90.753-0.115
					c5.609,0.068,10.854,0.088,16,0.088c10.293-0.006,20.634-0.33,31.042-0.338c9.178,0.053,17.192-0.264,23.748-0.264
					c13.115,0,24.25,0,24.25,0v2.34c0,0-10.693,0-23.047,0c-6.177,0-13.738,0-22.521,0c-5.175,0-10.354,0-15.523,0
					c-5.177,0-10.343,0-15.513,0c-37.662,0-71.626-0.254-108.729-0.158c-4.205-0.063-8.727-0.189-13.244-0.184
					c-31.652,0.023-63.383-0.002-95.303,0.061c-6.863,0.07-13.655,0.096-20.402,0.141c-33.728,0.223-66.313,0.352-101.136-0.084
					c-4.156-0.006-8.309,0.225-12.458,0.225c-43.745,0-87.089,0-127.917,0c-3.714,0-7.402,0-11.075,0
					c-45.519-2.34-85.142,0.936-130.424,0.34c-5.665,0-16.983,0.723-22.143-0.307c-4.933-0.158-9.833-0.033-14.528-0.033
					c-42.278,0-66.037,0-66.037,0V410.503z"/>
				<path fill="#BF864F" d="M0,403.049c0,0,29.559,0,80.146,0c5.615,0,11.464,0.07,16.811,0.25
					c34.052,2.199,70.847-2.594,105.478-0.339c4.397,0.12,8.351,0.089,12.337,0.089c6.621,0,13.323,0,20.104,0
					c3.39,0,6.839,0.059,10.263,0.059c27.381,0.01,52.852-0.023,79.841-0.037c4.099,0,8.249-0.021,12.324-0.021
					c16.295,0,32.286,0,47.278,0c4.152,0,8.309,0,12.468,0c29.716,0,57.27,0,86.297,0c4.151,0,8.329,0.068,12.573,0.09
					c5.201-0.066,10.399-0.092,15.599-0.145c5.199-0.055,10.397-0.084,15.602-0.131c14.271-0.289,31.255-0.279,46.75-0.193
					c5.191-0.009,10.386-0.078,15.581-0.078c62.317-0.008,124.573,0.457,186.815,0.457c12.791,0,23.733,0,23.733,0v1.17
					c0,0-10.942,0-23.733,0c-6.395,0-14.202,0.068-23.143-0.008c-84.371-0.508-172.111-0.469-257.226,0.133
					c-4.223-0.004-8.4-0.063-12.552-0.063c-29.027-0.004-56.581-0.063-86.297-0.063c-4.159,0-8.315,0-12.468,0
					c-4.069,0-8.138,0-12.199,0c-4.072,0-8.137,0-12.2,0c-9.866,0-19.756,0-29.757,0c-3.336,0-6.686,0-10.049,0
					c-25.215,0-50.688,0-75.222,0c-3.514,0-7.007,0-10.484,0c-3.476,0-6.935,0-10.37,0c-4.129,0-8.227,0.076-12.289,0.074
					c-41.381-2.377-86.667,1.748-127.942-0.035c-5.871,0-11.502-0.039-16.876-0.039c-42.965,0-67.194,0-67.194,0V403.049z"/>
				<path fill="#BF864F" d="M0,394.477c0,0,28.059,0,76.529,0c5.387,0,10.999,0,16.822,0c34.824,0,65.958,0,100.84-0.055
					c4.097,0.052,7.906,0.055,11.748,0.055c3.193,0,6.405,0,9.64,0c3.235,0,6.487,0,9.762,0c35.856,0,69.82-1.189,106.261-0.039
					c4.555,0.026,9.023,0.039,13.49,0.039c13.311,0,26.63,0,40.303,0c4.112,0,8.215,0,12.375,0c12.233,0,24.463,0,36.644,0
					c4.142,0,8.275,0,12.4,0c4.13,0,8.254,0,12.364,0c8.033,0,16.04,0,23.994,0c3.979,0,7.944,0.286,11.91,0.322
					c32.155-0.028,63.292-1.071,94.155-0.139c5.221-0.001,10.437-0.22,15.657-0.219c57.394,0.032,114.696,0.035,172.349,0.035
					c12.17,0,22.756,0,22.756,0v2.338c0,0-10.942,0-23.733,0c-57.056,0-114.124-0.727-171.238-0.792
					c-5.189-0.004-10.386-0.15-15.577-0.148c-25.418-0.078-53.719-0.146-77.899,0.287c-5.19,0.055-10.429,0.094-15.628,0.16
					c-4.24-0.036-8.376-0.053-12.47-0.053c-20.459,0-39.799,0.273-61.476,0.275c-4.15,0-8.304,0.271-12.459,0.271
					c-3.914,0-7.832,0-11.749,0c-3.93,0-7.86,0-11.788,0c-12.831,0-26.025,0-39.258,0c-4.421,0-8.887-0.013-13.293-0.013
					c-32.61,0.013-69.402,0.013-103.709,0.013c-3.326,0-6.637,0-9.926,0c-3.286,0-6.555,0-9.803,0
					c-3.907,0-7.781-0.005-12.099-0.096c-32.925-1.688-69.719,0.096-102.548,0.096c-5.941,0-11.667,0-17.159,0
					c-49.44,0-78.187,0-78.187,0V394.477z"/>
				<path fill="#BF864F" d="M0,379.622c0,0,5.257,0,18.4,0c3.29,0,6.944,0,10.94,0c59.777,0,119.084,0,178.404,0
					c5.456,0,10.867-0.005,16.479-0.025c42.634-1.164,87.918,0.025,129.403,0.025c5.424,0,10.854,0,16.281,0
					c27.15,0,54.395,0,81.77,0c3.313,0,6.625,0,9.923,0c3.299,0,6.598,0,9.882,0c4.097,0,8.421,0.225,12.253,0.252
					c43.503-1.188,88.79-1.061,130.361-0.558c5.442,0.002,10.887-0.181,16.324-0.173c48.967,0.074,97.807,0.479,145.963,0.479
					c12.713,0,23.616,0,23.616,0v1.17c0,0-10.903,0-23.616,0c-48.156,0-96.996-0.035-145.963-0.183
					c-5.438-0.019-10.882-0.164-16.324-0.177c-41.571-0.699-86.858-0.811-130.369,0.359c-4.071,0-8.148,0-12.245,0
					c-19.728,0-39.709,0-59.738,0c-4.058,0-8.103,0-12.166,0c-4.215,0-8.461,0-12.733,0c-4.273,0-8.572,0-12.899,0
					c-5.388,0-10.755,0-16.115,0c-5.421,0-10.825-0.014-16.412-0.044c-43.429-1.146-85.881,0.044-127.877,0.044
					c-5.432,0-10.888,0-16.367,0c-5.476,0-10.979,0-16.511,0c-4.074,0-8.103,0-12.086,0c-3.988,0-7.927,0-11.822,0
					c-37.069,0-76.692,0-114.393,0c-4.674,0-9.017,0-13.018,0c-20.003,0-29.345,0-29.345,0V379.622z"/>
				<path fill="#BF864F" d="M0.006,371.511c65.479-0.16,138.295-0.276,207.75-0.353c5.438-0.005,10.352-0.01,16.033-0.013
					c26.148-0.139,51.639-0.192,76.941-0.182c4.219,0.002,8.297,0.008,12.491,0.011c35.849-0.059,69.747-0.059,107.001,0.067
					c4.435,0,8.99,0.025,13.461,0.031c4.446,0,8.88,0.002,13.331,0.004c5.335,0,10.668,0.005,16.008,0.007
					c5.339,0.004,11.076-0.003,16.152,0.008c42.415,1.015,84.866-0.176,127.864,0.476c5.649-0.027,11.033-0.07,16.456-0.111
					c48.161-0.396,96.339-1.061,144.582-0.178c4.495,0.02,35.395-0.193,31.924-0.193c-5.133,0,0,0,0,0v2.209
					c0,0-13.886,0-31.831-0.061c-49.497-0.634-98.957-0.35-148.512-0.101c-5.588,0.022-11.214,0.044-17.076,0.04
					c-41.348-0.473-86.644-1.066-130.136-0.139c-5.589,0.001-11.182,0.002-16.771,0.004c-8.982,0.002-17.964,0.005-26.95,0.01
					c-4.49,0.002-8.983,0.002-13.479,0.004c-29.51-0.352-57.812-0.352-85.994-0.174c-4.933-0.007-9.833-0.021-14.713-0.033
					c-34.094-0.101-67.787,0.004-101.507,0.349c-5.401,0.005-10.794,0.073-16.186,0.077c-64.692,0.051-129.331,0.152-193.822,0.152
					c-3.298,0-3.017,0-3.017,0V371.511z"/>
				<path fill="#BF864F" d="M0,283.62c0,0,46.82,0,121.434,0c4.144,0,8.377,0.113,12.679,0.105
					c18.179,0.01,37.935,0.071,55.017,0.071c4.966,0.003,9.93,0.032,14.902,0.032c49.668-0.004,99.801,0.012,149.319,0.012
					c4.953,0,9.921,0,14.864-0.002c29.612,0.01,60.651,0.012,89.476,0.012c5.362,0,10.705-0.005,16.03-0.02
					c58.641-0.158,115.714-1.187,174.536-0.108c3.121,0.005,6.234-0.103,9.341-0.103c9.293,0,18.72,0,29.104,0
					c5.854,0,11.527,0,16.995,0c54.695,0,96.304,0,96.304,0v1.169c0,0-35.047,0-80.515,0c-5.051,0-10.318,0-15.789,0
					c-15.221,0-29.888,0-44.387,0c-4.846,0-9.712,0.112-14.51,0.112c-57.888,0.017-117.154,0.079-175.558,0.076
					c-3.749,0-7.522,0.035-11.287,0.035c-4.395,0-8.806,0.014-13.219,0.014c-21.512,0.002-44.088,0.01-66.513,0.01
					c-4.334-0.01-8.826,0.029-13.16,0.029c-56.306,0.448-111.925,0.18-167.9,0.047c-5.091-0.012-10.182-0.151-15.274-0.161
					c-15.488-0.034-29.597-0.162-42.874-0.162c-4.216,0-8.366,0-12.442,0c-77.458,0-126.572,0-126.572,0V283.62z"/>
				<path fill="#BF864F" d="M0,386.651c0,0,48.438,0,123.264,0c4.155,0,8.404,0.154,12.718,0.146
					c18.23,0.011,38.043,0.09,55.172,0.09c4.974,0.004,9.957,0.045,14.94,0.043c49.814-0.004,100.086,0.016,149.746,0.016
					c4.97,0,9.953,0.004,14.907,0.002c29.694,0.008,60.829,0.014,89.73,0.014c5.378,0,10.735-0.006,16.081-0.021
					c58.807-0.156,116.041-1.223,175.03-0.147c3.13,0.007,6.253-0.142,9.371-0.142c9.317,0,18.768,0,29.179,0
					c5.873,0,11.563,0,17.046,0c54.851,0,92.815,0,92.815,0l0,0c0,0-31.384,0-76.981,0c-5.065,0-10.345,0-15.834,0
					c-15.263,0-29.977,0-44.512,0c-4.856,0-9.741,0.737-14.551,0.737c-58.056,0.017-117.487,0.392-176.059,0.388
					c-3.757,0-7.544,0.192-11.323,0.192c-4.403,0-8.829,0.092-13.252,0.091c-21.574,0.004-44.218,0.051-66.705,0.049
					c-4.346-0.008-8.85,0.051-13.194,0.051c-56.468,0.447-112.247,0.187-168.38,0.055c-5.103-0.014-10.21-0.771-15.319-0.779
					c-15.526-0.037-29.679-0.783-42.998-0.783c-4.227,0-8.386,0-12.474,0C50.739,386.651,0,386.651,0,386.651L0,386.651z"/>
				<path fill="#BF864F" d="M0,276.806c0,0,27.088,0,75.457,0c3.026,0,6.117,0,9.282,0c132.465-1.17,267.93-1.17,400.612,0
					c4.891,0,9.777,0,14.674,0c58.729,0,118.195,0,178.264,0c5.454,0,10.914,0,16.384,0c27.333,0,54.808,0,82.597,0
					c5.071,0,20.083,0,22.731,0c2.65,0,0,0,0,0v2.338c0,0-12.596,0-22.731,0c-2.531,0-5.35,0-8.446,0c-27.013,0-53.709,0-80.259,0
					c-5.31,0-10.61,0-15.913,0c-57.951-1.169-116.89-0.175-174.3-0.035c-4.788,0.012-9.563,0.047-14.328,0.057
					c-128.533-1.139-258.352,0.014-389.494,0.006c-3.371,0.008-6.627-0.027-9.79-0.027c-53.787,0-84.739,0-84.739,0V276.806z"/>
				<path fill="#BF864F" d="M0,269.495c0,0,28.015,0,77.689,0c3.114,0,6.363,0,9.609,0c129.905,0,259.726-0.597,388.263,0.693
					c5.112,0.027,10.504,0.355,15.696,0.391c56.432,0.419,113.674,1.416,169.42,0.235c5.634-0.013,11.104-0.535,16.528-0.538
					c37.325,0.008,85.683-0.781,122.794-0.781c2.65,0,0,0,0,0v2.339c0,0,2.65,0,0,0c-2.648,0-17.66,0.019-22.783,0.021
					c-30.848-0.002-61.835,0.007-92.826,0.007c-5.167,0-10.577-0.01-15.735-0.008c-57.575-0.006-116.953-0.021-175.583-0.021
					c-5.392,0-10.985,0-16.277,0c-129.771-2.339-256.771-0.001-385.481-0.005c-3.945,0.002-7.726,0.005-11.373,0.005
					c-50.995,0-79.941,0-79.941,0V269.495z"/>
				<path fill="#BF864F" d="M800,441.983c0,0-38.468,0.514-79.885,0c-5.268-0.063-17.292-0.914-23.38-1.191
					c-41.87-2.105-72.015,4.511-114.719,2.135c-3.622-0.219-7.209,0.232-11.077,0.232c-42.644,0-88.541,0-135.121,0
					c-4.143,0-8.288-0.59-12.437-0.592c-50.401-1.361-85.272-4.203-134.599-1.482c-7.784,0.854-21.192,1.631-25.236,1.607
					c-17.073,0.006-34.091,0.467-51.064,0.467c-3.398,0-6.792,0-10.184,0c-44.415-4.68-92.533,2.052-138.165,0.105
					c-4.65-0.098-9.167-0.105-13.688-0.105c-4.008,0-7.816,0-11.407,0c-3.587,0-6.96,0-10.105,0c-18.873,0-28.935,0-28.935,0v-4.68
					c0,0,13.915,0,39.04,0c3.591,0,7.399,0,11.407,0c4.521,0,9.038,0.391,13.626,0.529c45.694,2.592,90.981-3.064,136.656-0.424
					c3.444,0.086,6.929-0.105,10.412-0.105c17.43,0,34.943,0,52.536,0c3.939,0,7.896,0.385,11.857,0.373
					c52.163-2.031,97.446-1.543,147.847-0.184c4.148,0.002,8.294-0.189,12.437-0.189c46.58,0,92.478,0,135.121,0
					c3.862,0,7.707,0.398,11.231,0.572c39.871,1.863,82.323-2.037,121.269-0.402c6.294,0.277,11.422,0.391,16.676,0.51
					c45.663,1.023,79.885,0.096,79.885,0.096V441.983z"/>
				<path fill="#BF864F" d="M800,452.955c0,0-28.253,0-70.531,0c-4.696,0-9.594-0.229-14.581-0.443
					c-7.939-1.146-17.141-1.377-25.629-1.377c-42.451-0.682-53.065,4.156-126.89,1.82c-3.669,0-7.359,0-11.072,0
					c-40.827,0-84.173,0-127.915,0c-4.153,0-8.308-0.234-12.473-0.25c-34.814-1.518-67.397-1.623-101.122-0.953
					c-6.75,0.135-13.54,0.24-20.405,0.422c-30.837,0.672-61.899,0.758-92.906,0.686c-4.426-0.014-8.84-0.045-12.928-0.154
					c-34.155-0.182-70.947-0.191-105.25-0.145c-5.498-0.133-10.496-0.131-15.447-0.105c-4.939,0.025-9.87,0.285-14.792,0.328
					c-10.094-0.047-18.928,0.172-26.162,0.172c-14.467,0-21.898,0-21.898,0v-2.342c0,0,7.431,0,21.898,0c7.234,0,16.068,0,26.3,0
					c5.407,0,10.822,0,16.242,0c42.501,2.342,87.784-1.102,130.104,0.248c4.51-0.002,9.017,0.127,13.521,0.125
					c22.521-0.008,44.977,0.043,67.307,0.025c5.078-0.156,10.058-0.283,15.019-0.424c44.632-1.264,90.175-0.342,132.991,0.27
					c4.148,0.002,8.294-0.244,12.437-0.244c46.58,0,92.478,0,135.121,0c3.878,0,7.773,0.494,11.675,0.711
					c28.106,1.604,56.408,0.367,84.709-1.68c16.983-1.365,36.796,0.484,53.401,1.164c5.273,0.002,10.318-0.195,15.128-0.195
					c38.476,0,64.147,0,64.147,0V452.955z"/>
			</g>
		</g>
	</g>
	<g id="wood_table_1_">
		<rect fill="#E9CFAC" width="800" height="236.764"/>
		<g opacity="0.15">
			<g>
				<path fill="#BF864F" d="M0,126.398c0,0,71.349,0,171.844,0c3.238,0,6.514,0,9.81,0c50.821,0,101.358,0,151.197,0
					c3.817,0,7.637,0,11.46,0c49.665,0,100.425,0,149.071,0c4.008,0,8,0,11.959,0c34.093,0,69.319,0,104.659,0
					c5.053,0,10.104,0,15.153,0c4.746,0,9.562,0,14.417,0c4.857,0,9.832,0,14.821,0c10.476,0,18.898,0,29.333,0
					c4.885,0,9.732,0,14.524,0c4.791,0,9.522,0,14.174,0c3.232,0,6.385,0,9.454,0c43.027,0,78.123,0,78.123,0v2.338
					c0,0-38.988,0-87.6,0c-3.231,0-6.55-0.003-9.901-0.007c-20.786,0.005-43.248,0.007-62.19,0.007c-5.053,0-10.104,0-15.155,0
					c-40.406,0-80.858-0.002-119.842-0.003c-3.93,0.001-7.922,0.003-11.93,0.003c-48.646,0-99.406,0-149.071,0
					c-3.826,0-7.647,0-11.462,0c-49.837,0-100.374,0-151.193,0c-3.298,0-6.574,0-9.812,0c-100.495,0-171.844,0-171.844,0V126.398z"
					/>
				<path fill="#BF864F" d="M0,120.287c0,0,75.239,0,181.675,0c3.323,0,6.674,0,10.049,0c44.002,0,86.453,0.594,130.838,0.006
					c3.84-0.006,7.68-0.006,11.54-0.006c26.854,0,54.099,0,81.23,0c4.521,0,9.046,0,13.562,0c16.268,0,36.08,0,53.747,0
					c4.435,0,8.851,0,13.249,0c4.042,0,8.066,0,12.062,0c31.063,0,63.27,0.285,95.277,0.294c4.571,0.001,9.14,0.146,13.707,0.146
					c29.173-0.014,54.644,0.058,83.964,0.01c4.284,0.036,8.879,0.072,13.471,0.07c4.599-0.002,9.195-0.272,13.79-0.274
					c3.452,0.017,6.852-0.247,10.126-0.247c36.172,0,61.713,0,61.713,0v1.169c0,0-23.372,0-56.257,0c-5.481,0-11.329,0-17.516,0
					c-4.002,0-8.033,0-12.083,0c-4.057,0-8.131,0-12.217,0c-24.685,0-47.328,0.294-73.108,0.313
					c-5.183-0.016-10.281-0.163-15.373-0.164c-35.621-0.001-71.128-0.149-105.491-0.149c-3.998,0-8.022,0-12.064,0
					c-9.804,0-19.698,0-29.646,0c-9.954,0-19.964,0-30.009,0c-10.044,0-20.119,0-30.205,0c-20.175,0-40.375,0-60.398,0
					c-3.857,0-7.705,0-11.549,0c-50.241,1.169-101.188,1.169-152.407,0c-3.326,0-6.629,0-9.895,0c-101.296,0-171.781,0-171.781,0
					V120.287z"/>
				<path fill="#BF864F" d="M0,113.78c0,0,45.863,0,118.168,0c3.451,0,7.292,0.313,11.136,0.324
					c13.025-0.036,30.005-0.182,44.705-0.205c3.587,0.022,7.558-0.12,11.564-0.12c4.019,0,8.074,0,12.167,0
					c3.474,0,6.976,0,10.499,0c35.981,0,75.604,0,111.921,0c3.885,0,7.78,0,11.68,0c14.634,0,29.383,0,44.172,0
					c4.933,0,9.866,0,14.803,0c40.199,1.17,76.991,0.593,117.184,0.008c3.986-0.008,7.979-0.008,11.95-0.008
					c24.874,0,50.046,0,75.346,0c5.063,0,10.39,0.387,15.873,0.536c37.774,2.13,71.734-2.175,109.73-0.551
					c4.303,0.096,8.732,0.016,13.284,0.016c4.563,0,9.1,0,13.608,0c6.08,0,11.666,0,16.706,0c20.159,0,35.504,0,35.504,0v2.337
					c0,0-21.785,0-52.216,0c-3.036,0-6.198,0.006-9.425-0.018c-4.127,0.002-8.299,0.011-12.497,0.012
					c-37.3-0.572-76.921,0.024-115.059,0.11c-5.396-0.083-10.459-0.093-15.518-0.093c-25.3-0.003-50.474-0.012-75.36-0.012
					c-3.955,0-7.945,0-11.951,0c-34.511,0-68.474,0-102.305,0.012c-4.982-0.012-9.919-0.012-14.855-0.012
					c-19.745,0-39.468,0-58.976,0c-3.9,0-7.795,0-11.68,0c-36.317,0-75.94,0-111.939,0.004c-3.515-0.002-7.012-0.004-10.481-0.004
					c-114.638,0-197.739,0-197.739,0V113.78z"/>
				<path fill="#BF864F" d="M0,107.263c0,0,33.881,0,90.447,0c3.327,0,6.731,0,10.2,0c30.361,0,64.322,0,94.772-0.003
					c4.356,0,8.763,0.003,13.201,0.003c4.446,0,8.935,0,13.457,0c3.427,0,6.874,0,10.34,0c23.122,0,42.934,0,64.276,0
					c3.66,0,7.333,0,11.014,0c19.987,0,40.288,0,60.696,0c5.099,0,10.205,0,15.316,0c44.463,1.169,89.746,0,136.239,0
					c3.972,0,7.93,0,11.869,0c13.566,0,27.016,0,40.395,0c6.691,0,13.364,0,20.031,0c3.788,0,7.79,0.355,11.893,0.463
					c41.965,2.183,87.247-2.441,129.516-0.068c4.813,0,9.636-0.199,14.462-0.199c6.038,0.002,11.587-0.196,16.595-0.196
					c20.024,0,35.283,0,35.283,0v1.169c0,0-15.345,0-35.504,0c-5.04,0-10.626,0-16.706,0c-4.509,0-8.988,0-13.446,0
					c-42.952-1.169-88.234,1.786-132.083,0.089c-4.086-0.085-8-0.089-11.92-0.089c-19.584,0-39.211,0-58.536,0
					c-3.92,0-7.876,0-11.851,0c-40.827,1.169-80.453,1.19-120.731,0.056c-5.25-0.045-10.395-0.056-15.504-0.056
					c-25.549,0-51.026,0-76.012,0c-3.689,0-7.362,0-11.027,0c-26.99,0-55.293,0-84.811,0c-3.376,0-6.739,0-10.07,0
					c-31.167,0-59.469,0-91.432,0c-3.4,0-6.734,0-10.008,0c-62.25,0-100.358,0-100.358,0V107.263z"/>
				<path fill="#BF864F" d="M0,100.377c0,0,27.334,0,74.782,0c5.273,0,10.772,0.004,17.135,0.239
					c39.091,2.14,81.546-1.408,121.099-0.239c3.824,0,7.671,0,11.546,0c42.646,0,88.542,0,135.124,0
					c4.141,0,8.286,0.294,12.436,0.295c47.57,1.185,98.514,1.636,147.847-0.14c3.962-0.006,7.918-0.155,11.857-0.155
					c17.596,0,35.107,0,52.536,0c3.484,0,6.964,0.294,10.442,0.373c45.646,2.297,90.929-2.314,136.655-0.088
					c4.534,0.123,9.05-0.095,13.566-0.098c4.032,0.026,7.841-0.187,11.435-0.187c25.127,0,43.539,0,43.539,0v1.17
					c0,0-20.558,0-49.088,0c-3.171,0-6.496,0.271-9.979,0.23c-46.711-1.714-97.653,1.704-146.136-0.001
					c-3.536-0.077-7.044-0.229-10.554-0.229c-17.541,0-35.079,0-52.417,0c-3.939,0-7.897,0.303-11.863,0.309
					c-46.499,1.181-88.949,1.625-135.317-0.122c-4.221-0.027-8.374-0.187-12.522-0.187c-51.698,0-102.835,0-149.925,0
					c-3.62,0-7.211-0.002-10.782-0.003c-43.613-1.78-88.897,1.172-130.688,0.003c-5.092,0-9.997,0-14.692,0
					c-42.277,0-66.036,0-66.036,0V100.377z"/>
				<path fill="#BF864F" d="M0,77.52c0,0,34.37-0.446,75.787,0c5.27,0.057,17.09,0.798,23.178,1.04
					c41.873,1.834,71.918-3.365,114.621-1.296c3.62,0.192,7.109,0.366,10.976,0.366c42.646,0,88.542,0,135.124,0
					c4.141,0,8.286-0.052,12.436-0.05c50.402,1.184,85.273,3.375,134.6,1.007c7.782-0.742,21.189-0.994,25.237-0.976
					c17.069-0.007,34.089,0.019,51.063,0.019c3.397,0,6.792,0,10.184,0c44.414,2.338,92.528-1.79,138.163-0.094
					c4.647,0.087,9.167,0.094,13.686,0.094c4.011,0,7.817,0,11.407,0s6.962,0,10.107,0c18.874,0,33.432,0,33.432,0v2.338
					c0,0-18.412,0-43.539,0c-3.59,0-7.396,0-11.407,0c-4.519,0-9.038-0.037-13.625-0.158c-45.695-2.255-90.979,2.52-136.656,0.218
					c-3.446-0.075-6.926-0.06-10.41-0.06c-17.429,0-34.94,0-52.536,0c-3.939,0-7.896-0.031-11.855-0.022
					c-52.165,1.771-97.447,1.194-147.849,0.01c-4.15-0.002-8.294,0.012-12.436,0.012c-46.582,0-92.478,0-135.124,0
					c-3.861,0-7.704-0.042-11.228-0.195c-39.871-1.623-82.326,1.926-121.271,0.501c-6.295-0.244-11.022-0.264-16.277-0.367
					C30.127,79.016,0,79.897,0,79.897V77.52z"/>
				<path fill="#BF864F" d="M0,85.376c0,0,23.759,0,66.036,0c4.695,0,9.596,0.463,14.582,0.648c7.936,1,17.134,1.067,25.626,1.067
					c42.452,0.595,53.065-2.885,126.888-1.716c3.673,0,7.361,0,11.075,0c40.829,0,84.171,0,127.916,0
					c4.15,0,8.304,0.468,12.47,0.482c34.814,1.322,67.398,1.546,101.126,0.961c6.747-0.117,13.539-0.141,20.402-0.299
					c30.837-0.584,61.898-0.627,92.906-0.564c4.425,0.01,8.839,0.056,12.927,0.151c34.156,0.159,70.948,0.173,105.252,0.134
					c5.499,0.115,10.497,0.117,15.448,0.093c4.938-0.023,9.868-0.506,14.79-0.547c10.096,0.042,18.929-0.411,26.164-0.411
					c14.465,0,26.393,0,26.393,0v2.338c0,0-11.928,0-26.393,0c-7.235,0-16.072,0-26.302,0c-5.407,0-10.822,0-16.247,0
					c-42.496-2.338-87.779,1.075-130.102-0.099c-4.509,0.001-9.015-0.055-13.519-0.054c-22.521,0.009-44.976-0.01-67.311,0.006
					c-5.073,0.14-10.056,0.26-15.017,0.384c-44.632,1.099-90.178,0.19-132.99-0.342c-4.15,0-8.294,0.104-12.436,0.104
					c-46.582,0-92.478,0-135.124,0c-3.875,0-7.775-0.314-11.672-0.505c-28.108-1.395-56.411-0.262-84.715,1.522
					c-16.979,1.189-36.788-0.51-53.393-1.101c-5.277-0.001-10.321,0.084-15.132,0.084c-38.473,0-59.65,0-59.65,0V85.376z"/>
				<path fill="#BF864F" d="M800,8.766c0,0-31.831,0-79.275,0c-5.276,0-10.777-0.004-17.138-0.274
					c-39.094-2.457-81.546,2.612-121.101,0.274c-3.822,0-7.67,0-11.548,0c-42.643,0-88.54,0-135.121,0
					c-4.143,0-8.287-0.632-12.436-0.633c-47.571-1.36-98.517-1.73-147.847,0.307c-3.961,0.007-7.918,0.326-11.857,0.326
					c-17.593,0-35.106,0-52.536,0c-3.483,0-6.969-0.632-10.442-0.721C155.054,5.406,109.767,10.554,64.045,8
					c-4.536-0.143-9.052,0.329-13.563,0.333c-4.039-0.031-7.846,0.434-11.442,0.434c-25.125,0-39.04,0-39.04,0V6.427
					c0,0,16.064,0,44.59,0c3.172,0,6.5-0.108,9.98-0.061c46.708,1.966,97.654-2.059,146.137-0.101
					c3.535,0.088,7.044,0.161,10.551,0.161c17.545,0,35.078,0,52.419,0c3.939,0,7.898-0.144,11.864-0.151
					c46.497-1.355,88.95-1.969,135.315,0.038c4.218,0.03,8.372,0.113,12.521,0.113c51.699,0,102.838,0,149.928,0
					c3.616,0,7.21,0.002,10.779,0.003c43.615,2.044,88.9-1.172,130.691-0.003c5.096,0,9.995,0,14.691,0c42.278,0,70.532,0,70.532,0
					V8.766z"/>
				<path fill="#BF864F" d="M800,18.047c0,0-38.469,0.513-79.886,0c-5.268-0.065-17.292-0.916-23.379-1.195
					c-41.871-2.105-72.015,4.443-114.719,2.069c-3.622-0.22-7.21,0.164-11.078,0.164c-42.643,0-88.54,0-135.121,0
					c-4.143,0-8.287-0.521-12.436-0.525c-50.401-1.359-85.272-4.166-134.599-1.449c-7.784,0.854-21.192,1.58-25.235,1.559
					c-17.073,0.008-34.091,0.416-51.064,0.416c-3.398,0-6.792,0-10.184,0c-44.415-4.677-92.532,2.053-138.164,0.106
					c-4.65-0.098-9.167-0.106-13.688-0.106c-4.008,0-7.816,0-11.407,0c-3.587,0-6.96,0-10.105,0c-18.873,0-28.935,0-28.935,0v-4.677
					c0,0,13.915,0,39.04,0c3.591,0,7.399,0,11.407,0c4.521,0,9.038,0.456,13.626,0.595c45.694,2.589,90.981-3.098,136.656-0.457
					c3.443,0.086,6.929-0.138,10.412-0.138c17.43,0,34.943,0,52.536,0c3.939,0,7.896,0.45,11.857,0.44
					c52.163-2.034,97.446-1.578,147.847-0.218c4.148,0.002,8.293-0.222,12.436-0.222c46.581,0,92.479,0,135.121,0
					c3.862,0,7.708,0.462,11.231,0.638c39.871,1.863,82.323-2.005,121.269-0.368c6.294,0.278,11.422,0.407,16.676,0.525
					C765.777,16.227,800,15.317,800,15.317V18.047z"/>
				<path fill="#BF864F" d="M800,28.495c0,0-28.254,0-70.532,0c-4.696,0-9.594-0.744-14.581-0.959
					c-7.938-1.146-17.141-1.116-25.629-1.116c-42.451-0.684-53.064,3.245-126.889,2.076c-3.67,0-7.36,0-11.072,0
					c-40.828,0-84.174,0-127.915,0c-4.153,0-8.308-0.75-12.473-0.766c-34.814-1.517-67.397-1.882-101.122-1.211
					c-6.75,0.134-13.54,0.111-20.404,0.291c-30.837,0.673-61.899,0.694-92.906,0.621c-4.426-0.012-8.839-0.076-12.928-0.186
					c-34.155-0.184-70.947-0.207-105.25-0.161c-5.498-0.133-10.496-0.137-15.447-0.112c-4.939,0.025-9.87,0.794-14.793,0.842
					c-10.093-0.049-18.927,0.683-26.161,0.683c-14.467,0-21.898,0-21.898,0v-3.507c0,0,7.431,0,21.898,0c7.234,0,16.068,0,26.3,0
					c5.407,0,10.822,0,16.242,0c42.501,3.507,87.784-1.036,130.104,0.313c4.51-0.002,9.017,0.163,13.521,0.16
					c22.521-0.009,44.977,0.061,67.307,0.042c5.078-0.158,10.058-0.273,15.019-0.415c44.632-1.263,90.175-0.405,132.991,0.206
					c4.148,0.002,8.293-0.305,12.436-0.305c46.581,0,92.479,0,135.121,0c3.878,0,7.773,0.559,11.676,0.778
					c28.106,1.601,56.408,0.4,84.709-1.648c16.982-1.365,36.795,0.436,53.401,1.114c5.273,0.003,10.317-0.244,15.128-0.244
					c38.475,0,64.147,0,64.147,0V28.495z"/>
				<path fill="#BF864F" d="M0,70.866c0,0,23.759,0,66.036,0c4.695,0,9.6,0,14.692,0c13.486,1.169,24.81,1.043,38.959,1.043
					c31.133-1.784,59.436-1.71,91.214-1.418c3.875,0.167,7.666,0.375,11.297,0.375c47.086,0,98.228,0,149.923,0
					c4.15,0,8.304-0.142,12.459-0.137c35.672,0.513,72.636,0.504,108.229,0.123c5.083-0.054,10.14-0.154,15.273-0.184
					c30.532-0.02,60.76-0.053,91.008-0.063c5.041-0.003,10.083-0.012,15.114-0.012c31.903-0.007,60.204-0.012,90.754-0.13
					c5.609,0.068,10.854,0.082,16,0.079c10.292-0.004,20.634,0.134,31.041,0.126c9.179,0.052,17.192,0.199,23.749,0.199
					c13.114,0,24.25,0,24.25,0v1.169c0,0-10.693,0-23.048,0c-6.177,0-13.737,0-22.52,0c-5.176,0-10.354,0-15.524,0
					c-5.177,0-10.342,0-15.512,0c-37.663,0-71.627-0.134-108.73-0.036c-4.204-0.065-8.726-0.13-13.244-0.128
					c-31.651,0.025-63.382,0.027-95.302,0.091c-6.863,0.07-13.655,0.112-20.402,0.155c-33.729,0.223-66.314,0.241-101.137-0.196
					c-4.156-0.007-8.309,0.113-12.458,0.113c-43.744,0-87.089,0-127.917,0c-3.713,0-7.402,0-11.075,0
					c-45.519-2.338-85.142,1.055-130.424,0.458c-5.664,0-16.983,0.663-22.143-0.365c-4.933-0.159-9.833-0.094-14.529-0.094
					c-42.277,0-66.036,0-66.036,0V70.866z"/>
				<path fill="#BF864F" d="M0,64.419c0,0,24.893,0,68.813,0c4.882,0,9.974,0,15.261,0c44.101,1.17,89.389-1.783,135.288-0.001
					c3.69,0,7.403,0.001,11.147,0.001c4.857,0,9.758,0,14.689,0c4.937,0,9.911,0,14.914,0c15.238,0,32.22,0,45.82,0
					c5.162,0,10.35,0,15.557,0c20.828,0,41.936,0,63.093,0c4.153,0,8.31-0.158,12.468-0.153c29.717-0.009,57.27-0.093,86.303-0.081
					c4.149,0.001,8.327-0.04,12.547-0.037c37.236-0.007,74.977-0.033,112.718-0.041c5.392-0.003,10.783-0.015,16.173-0.015
					c21.32,0.007,41.133,0.001,64.192-0.05c5.646,0.016,11.018,0.012,16.36,0.01c16.019-0.01,31.952,0.143,47.772,0.13
					c8.938,0.068,16.757,0.236,23.152,0.236c12.791,0,23.733,0,23.733,0v1.17c0,0-11.136,0-24.25,0
					c-6.557,0-14.57-0.159-23.731-0.221c-11.709,0.093-23.341,0.06-34.909,0.07c-3.854,0.005-7.703-0.034-11.546-0.039
					c-28.32-0.082-59.454-0.102-88.312-0.381c-4.544-0.021-9.079-0.05-13.616-0.067c-31.758-0.112-63.474-0.093-95.523,0.403
					c-4.747,0.037-9.468,0.072-14.117,0.126c-32.559,0.388-64.75,0.479-96.934-0.018c-4.171-0.015-8.328,0.127-12.48,0.127
					c-52.893,0-105.491,0-154.076,0c-3.74,0-7.453-0.158-11.145-0.159c-45.897-2.375-91.185,2.46-135.582,0.232
					c-4.998-0.148-10.087-0.073-14.965-0.073c-43.921,0-68.813,0-68.813,0V64.419z"/>
				<path fill="#BF864F" d="M800,53.254c-10.824,0.016-39.726,0.244-50.57,0.256c-48.125-0.27-96.801,0.052-145.936,0.22
					c-5.478,0.021-11.094,0.114-16.561,0.133c-28.072,0.143-53.472,0.172-81.701,0.083c-5.508-0.023-10.954-0.012-16.381-0.012
					c-9.792,0.004-19.58,0.013-29.371,0.016c-4.894,0.001-9.789,0.007-14.69,0.007c-14.038,0.03-28.185,0.053-42.364,0.066
					c-4.76,0.005-9.607,0.005-14.333,0.009c-83.231-0.351-167.897-0.351-250.724-0.191c-5.076-0.004-10.367-0.004-15.453-0.009
					C81.225,53.791,40.577,53.741,0,53.681l0.032-0.757c40.578,0.06,81.22,0.11,121.903,0.149c5.086,0.006,10.17,0.012,15.364,0.013
					c88.542-0.542,173.205,0.595,261.78,0.398c4.894-0.027,9.778-0.062,14.648-0.105c4.869-0.041,9.725-0.091,14.572-0.146
					c5.336-0.021,10.42-0.025,15.485-0.031c14.929-0.002,29.86-0.005,44.792-0.013c5.426-0.001,10.9,0.007,16.294,0.009
					c28.591,0.103,53.99,0.103,81.605-0.07c5.411-0.017,10.809-0.034,16.202-0.052c48.529-0.166,96.462-0.432,145.773-0.161
					c10.799-0.014,40.771-0.094,51.548-0.094l0,0c-2.551,0,0,0,0,0l0,0l0,0"/>
				<path fill="#BF864F" d="M0,230.618c0,0,45.863,0,118.168,0c3.451,0,7.292,0.419,11.136,0.43
					c13.025-0.037,30.005-0.233,44.705-0.259c3.587,0.024,7.558-0.171,11.564-0.171c4.019,0,8.074,0,12.167,0
					c3.474,0,6.976,0,10.499,0c35.981,0,75.604,0,111.921,0c3.885,0,7.78,0,11.68,0c14.634,0,29.383,0,44.172,0
					c4.933,0,9.866,0,14.803,0c40.199,1.17,76.991,0.596,117.184,0.01c3.986-0.008,7.979-0.01,11.95-0.01
					c24.874,0,50.046,0,75.346,0c5.063,0,10.39,0.493,15.873,0.64c37.774,2.131,71.734-2.228,109.73-0.603
					c4.303,0.097,8.732-0.037,13.284-0.037c4.563,0,9.1,0,13.608,0c6.08,0,11.666,0,16.706,0c20.159,0,35.504,0,35.504,0v2.339
					c0,0-21.785,0-52.216,0c-3.036,0-6.198,0.11-9.425,0.084c-4.127,0.004-8.299,0.064-12.497,0.065
					c-37.3-0.573-76.921,0.049-115.059,0.136c-5.396-0.082-10.459-0.069-15.518-0.069c-25.3-0.002-50.474,0.005-75.36,0.005
					c-3.955,0-7.945,0.004-11.951,0.005c-34.511-0.001-68.474-0.115-102.305-0.101c-4.982-0.014-9.919-0.125-14.855-0.125
					c-19.745,0-39.468,0-58.976,0c-3.9,0-7.795,0-11.68,0c-36.317,0-75.94,0-111.939,0.004c-3.515-0.004-7.012-0.004-10.481-0.004
					c-114.638,0-197.739,0-197.739,0V230.618z"/>
				<path fill="#BF864F" d="M0,222.695c0,0,33.881,0,90.447,0c3.327,0,6.731,0,10.2,0c30.361,0,64.322,0,94.772-0.002
					c4.356,0,8.763,0.002,13.201,0.002c4.446,0,8.935,0,13.457,0c3.427,0,6.874,0,10.34,0c23.122,0,42.934,0,64.276,0
					c3.66,0,7.333,0,11.014,0c19.987,0,40.288,0,60.696,0c5.099,0,10.205,0,15.316,0c44.463,1.17,89.746,0,136.239,0
					c3.972,0,7.93,0,11.869,0c13.566,0,27.016,0,40.395,0c6.691,0,13.364,0,20.031,0c3.788,0,7.79,0.46,11.893,0.569
					c41.965,2.181,87.247-2.388,129.516-0.017c4.813,0.003,9.636-0.278,14.462-0.278c6.038,0.006,11.587-0.274,16.595-0.274
					c20.024,0,35.283,0,35.283,0v1.17c0,0-15.345,0-35.504,0c-5.04,0-10.626,0-16.706,0c-4.509,0-8.988,0-13.446,0
					c-42.952-1.17-88.234,1.787-132.083,0.088c-4.086-0.084-8-0.088-11.92-0.088c-19.584,0-39.211,0-58.536,0
					c-3.92,0-7.876,0-11.851,0c-40.827,1.17-80.453,1.189-120.731,0.058c-5.25-0.048-10.395-0.058-15.504-0.058
					c-25.549,0-51.026,0-76.012,0c-3.689,0-7.362,0-11.027,0c-26.99,0-55.293,0-84.811,0c-3.376,0-6.739,0-10.07,0
					c-31.167,0-59.469,0-91.432,0c-3.4,0-6.734,0-10.008,0c-62.25,0-100.358,0-100.358,0V222.695z"/>
				<path fill="#BF864F" d="M0,191.844c0,0,34.37-0.448,75.787,0c5.27,0.055,17.09,0.796,23.178,1.039
					c41.873,1.834,71.918-3.373,114.621-1.303c3.62,0.189,7.109,0.356,10.976,0.356c42.646,0,88.542,0,135.124,0
					c4.141,0,8.286-0.043,12.436-0.042c50.402,1.182,85.273,3.378,134.6,1.011c7.782-0.742,21.189-1.003,25.237-0.982
					c17.069-0.006,34.089,0.013,51.063,0.013c3.397,0,6.792,0,10.184,0c44.414,2.337,92.528-1.791,138.163-0.095
					c4.647,0.087,9.167,0.095,13.686,0.095c4.011,0,7.817,0,11.407,0s6.962,0,10.107,0c18.874,0,33.432,0,33.432,0v2.337
					c0,0-18.412,0-43.539,0c-3.59,0-7.396,0-11.407,0c-4.519,0-9.038-0.028-13.625-0.148c-45.695-2.257-90.979,2.515-136.656,0.214
					c-3.446-0.076-6.926-0.066-10.41-0.066c-17.429,0-34.94,0-52.536,0c-3.939,0-7.896-0.021-11.855-0.014
					c-52.165,1.771-97.447,1.191-147.849,0.006c-4.15-0.002-8.294,0.008-12.436,0.008c-46.582,0-92.478,0-135.124,0
					c-3.861,0-7.704-0.035-11.228-0.188c-39.871-1.621-82.326,1.933-121.271,0.506c-6.295-0.242-11.022-0.261-16.277-0.364
					C30.127,193.335,0,194.22,0,194.22V191.844z"/>
				<path fill="#BF864F" d="M0,183.078c0,0,23.759,0,66.036,0c4.695,0,9.596-0.208,14.582-0.021
					c7.936,0.998,17.134,1.403,25.626,1.403c42.452,0.592,53.065-3.722,126.888-1.382c3.673,0,7.361,0,11.075,0
					c40.829,0,84.171,0,127.916,0c4.15,0,8.304-0.205,12.47-0.189c34.814,1.323,67.398,1.21,101.126,0.626
					c6.747-0.117,13.539-0.31,20.402-0.467c30.837-0.587,61.898-0.714,92.906-0.651c4.425,0.012,8.839,0.015,12.927,0.112
					c34.156,0.158,70.948,0.151,105.252,0.112c5.499,0.116,10.497,0.104,15.448,0.083c4.938-0.022,9.868,0.158,14.79,0.119
					c10.096,0.042,18.929,0.254,26.164,0.254c14.465,0,26.393,0,26.393,0v1.169c0,0-11.928,0-26.393,0c-7.235,0-16.072,0-26.302,0
					c-5.407,0-10.822,0-16.247,0c-42.496-1.169-87.779,0.987-130.102-0.187c-4.509,0.002-9.015-0.097-13.519-0.095
					c-22.521,0.009-44.976-0.03-67.311-0.015c-5.073,0.136-10.056,0.25-15.017,0.373c-44.632,1.099-90.178,0.27-132.99-0.262
					c-4.15-0.001-8.294,0.186-12.436,0.186c-46.582,0-92.478,0-135.124,0c-3.875,0-7.775-0.402-11.672-0.592
					c-28.108-1.395-56.411-0.306-84.715,1.479c-16.979,1.19-36.788-0.443-53.393-1.035c-5.277-0.002-10.321,0.148-15.132,0.148
					c-38.473,0-59.65,0-59.65,0V183.078z"/>
				<path fill="#BF864F" d="M0,173.925c0,0,23.759,0,66.036,0c4.695,0,9.6,0,14.692,0c13.486,2.339,24.81,1.51,38.959,1.51
					c31.133-1.784,59.436-1.944,91.214-1.651c3.875,0.166,7.666,0.141,11.297,0.141c47.086,0,98.228,0,149.923,0
					c4.15,0,8.304,0.326,12.459,0.33c35.672,0.511,72.636,0.737,108.229,0.355c5.083-0.054,10.14-0.038,15.273-0.066
					c30.532-0.022,60.76,0.005,91.008-0.007c5.041-0.002,10.083,0.02,15.114,0.017c31.903-0.007,60.204,0.004,90.754-0.115
					c5.609,0.069,10.854,0.088,16,0.087c10.292-0.005,20.634-0.329,31.041-0.336c9.179,0.05,17.192-0.264,23.749-0.264
					c13.114,0,24.25,0,24.25,0v2.339c0,0-10.693,0-23.048,0c-6.177,0-13.737,0-22.52,0c-5.176,0-10.354,0-15.524,0
					c-5.177,0-10.342,0-15.512,0c-37.663,0-71.627-0.255-108.73-0.158c-4.204-0.063-8.726-0.188-13.244-0.185
					c-31.651,0.023-63.382-0.002-95.302,0.061c-6.863,0.072-13.655,0.097-20.402,0.142c-33.729,0.222-66.314,0.351-101.137-0.085
					c-4.156-0.005-8.309,0.226-12.458,0.226c-43.744,0-87.089,0-127.917,0c-3.713,0-7.402,0-11.075,0
					c-45.519-2.339-85.142,0.935-130.424,0.341c-5.664,0-16.983,0.721-22.143-0.308c-4.933-0.157-9.833-0.033-14.529-0.033
					c-42.277,0-66.036,0-66.036,0V173.925z"/>
				<path fill="#BF864F" d="M0,166.471c0,0,29.559,0,80.145,0c5.615,0,11.464,0.07,16.811,0.25
					c34.052,2.199,70.847-2.595,105.478-0.339c4.397,0.119,8.351,0.089,12.338,0.089c6.621,0,13.323,0,20.104,0
					c3.39,0,6.839,0.059,10.263,0.059c27.381,0.008,52.852-0.024,79.841-0.038c4.099,0,8.248-0.021,12.324-0.021
					c16.295,0,32.286,0,47.278,0c4.153,0,8.31,0,12.468,0c29.717,0,57.27,0,86.298,0c4.15,0,8.328,0.067,12.573,0.088
					c5.201-0.065,10.399-0.09,15.599-0.144c5.198-0.056,10.396-0.085,15.602-0.131c14.271-0.289,31.254-0.28,46.75-0.194
					c5.191-0.009,10.385-0.078,15.58-0.078c62.317-0.008,124.573,0.458,186.816,0.458c12.791,0,23.733,0,23.733,0v1.169
					c0,0-10.942,0-23.733,0c-6.396,0-14.203,0.068-23.143-0.008c-84.372-0.507-172.111-0.468-257.226,0.133
					c-4.224-0.003-8.401-0.063-12.552-0.063c-29.028-0.003-56.581-0.063-86.298-0.063c-4.158,0-8.315,0-12.468,0
					c-4.068,0-8.138,0-12.199,0c-4.072,0-8.137,0-12.199,0c-9.866,0-19.756,0-29.757,0c-3.337,0-6.687,0-10.049,0
					c-25.215,0-50.687,0-75.221,0c-3.514,0-7.007,0-10.485,0c-3.476,0-6.935,0-10.369,0c-4.13,0-8.227,0.076-12.289,0.075
					c-41.382-2.376-86.667,1.747-127.942-0.035c-5.871-0.001-11.503-0.04-16.876-0.04c-42.965,0-67.194,0-67.194,0V166.471z"/>
				<path fill="#BF864F" d="M0,157.897c0,0,28.059,0,76.529,0c5.387,0,10.999,0,16.822,0c34.824,0,65.958,0,100.84-0.055
					c4.097,0.052,7.906,0.055,11.748,0.055c3.192,0,6.404,0,9.64,0s6.487,0,9.762,0c35.856,0,69.82-1.189,106.261-0.039
					c4.555,0.027,9.023,0.039,13.49,0.039c13.311,0,26.63,0,40.303,0c4.112,0,8.215,0,12.375,0c12.233,0,24.462,0,36.644,0
					c4.142,0,8.275,0,12.4,0c4.129,0,8.253,0,12.364,0c8.033,0,16.039,0,23.994,0c3.979,0,7.943,0.287,11.91,0.322
					c32.155-0.029,63.291-1.072,94.154-0.138c5.222-0.001,10.437-0.221,15.658-0.219c57.394,0.032,114.695,0.035,172.348,0.035
					c12.17,0,22.757,0,22.757,0v2.338c0,0-10.942,0-23.733,0c-57.056,0-114.125-0.726-171.239-0.792
					c-5.189-0.005-10.386-0.151-15.577-0.148c-25.417-0.078-53.719-0.146-77.898,0.287c-5.19,0.055-10.429,0.093-15.628,0.16
					c-4.241-0.035-8.376-0.053-12.47-0.053c-20.459,0-39.8,0.274-61.477,0.277c-4.15-0.001-8.304,0.27-12.458,0.27
					c-3.915,0-7.833,0-11.75,0c-3.93,0-7.859,0-11.788,0c-12.832,0-26.026,0-39.258,0c-4.421,0-8.887-0.013-13.293-0.013
					c-32.61,0.013-69.402,0.013-103.709,0.013c-3.325,0-6.637,0-9.926,0c-3.286,0-6.555,0-9.803,0
					c-3.907,0-7.781-0.004-12.099-0.096c-32.925-1.688-69.718,0.096-102.548,0.096c-5.941,0-11.667,0-17.159,0
					c-49.44,0-78.187,0-78.187,0V157.897z"/>
				<path fill="#BF864F" d="M0,143.043c0,0,5.257,0,18.4,0c3.29,0,6.944,0,10.94,0c59.777,0,119.084,0,178.404,0
					c5.456,0,10.866-0.005,16.479-0.025c42.634-1.164,87.918,0.025,129.403,0.025c5.424,0,10.854,0,16.281,0
					c27.15,0,54.394,0,81.769,0c3.314,0,6.626,0,9.923,0c3.3,0,6.598,0,9.883,0c4.097,0,8.42,0.225,12.253,0.251
					c43.503-1.188,88.789-1.06,130.361-0.557c5.442,0.002,10.887-0.181,16.323-0.172c48.967,0.074,97.807,0.479,145.963,0.479
					c12.714,0,23.617,0,23.617,0v1.17c0,0-10.903,0-23.617,0c-48.156,0-96.996-0.036-145.963-0.183
					c-5.437-0.018-10.881-0.164-16.323-0.176c-41.572-0.699-86.858-0.811-130.369,0.359c-4.072,0-8.148,0-12.245,0
					c-19.729,0-39.709,0-59.738,0c-4.059,0-8.103,0-12.166,0c-4.215,0-8.462,0-12.733,0c-4.273,0-8.573,0-12.899,0
					c-5.388,0-10.754,0-16.115,0c-5.421,0-10.825-0.013-16.412-0.044c-43.429-1.146-85.881,0.044-127.878,0.044
					c-5.431,0-10.888,0-16.367,0c-5.476,0-10.979,0-16.512,0c-4.073,0-8.102,0-12.085,0c-3.988,0-7.927,0-11.822,0
					c-37.069,0-76.692,0-114.393,0c-4.674,0-9.017,0-13.018,0c-20.003,0-29.345,0-29.345,0V143.043z"/>
				<path fill="#BF864F" d="M0.006,134.931c65.479-0.159,138.295-0.276,207.75-0.352c5.438-0.005,10.351-0.01,16.033-0.012
					c26.147-0.138,51.639-0.193,76.941-0.182c4.219,0.003,8.296,0.007,12.491,0.011c35.849-0.058,69.746-0.058,107.001,0.067
					c4.435,0.001,8.99,0.025,13.46,0.031c4.446,0.001,8.88,0.003,13.331,0.005c5.336,0,10.668,0.004,16.009,0.007
					c5.339,0.003,11.076-0.004,16.152,0.008c42.414,1.014,84.866-0.176,127.864,0.475c5.648-0.027,11.032-0.069,16.456-0.111
					c48.16-0.396,96.338-1.061,144.581-0.178c4.495,0.019,35.395-0.193,31.925-0.193c-5.134,0,0,0,0,0v2.208
					c0,0-13.887,0-31.833-0.061c-49.495-0.633-98.956-0.349-148.511-0.1c-5.587,0.022-11.214,0.044-17.075,0.04
					c-41.35-0.473-86.644-1.066-130.136-0.139c-5.59,0.001-11.182,0.002-16.771,0.004c-8.981,0.003-17.963,0.005-26.949,0.01
					c-4.49,0.002-8.983,0.002-13.48,0.004c-29.509-0.352-57.811-0.352-85.993-0.173c-4.933-0.007-9.833-0.021-14.713-0.034
					c-34.094-0.1-67.787,0.004-101.507,0.349c-5.401,0.004-10.794,0.072-16.186,0.078c-64.692,0.049-129.33,0.153-193.822,0.153
					c-3.298,0-3.017,0-3.017,0V134.931z"/>
				<path fill="#BF864F" d="M0,47.041c0,0,46.82,0,121.434,0c4.144,0,8.376,0.114,12.679,0.106
					c18.179,0.01,37.935,0.071,55.017,0.071c4.966,0.003,9.93,0.033,14.902,0.032c49.668-0.004,99.802,0.012,149.319,0.012
					c4.953,0,9.921,0,14.864-0.002c29.612,0.01,60.652,0.012,89.475,0.012c5.363,0,10.705-0.005,16.031-0.02
					c58.64-0.158,115.712-1.187,174.536-0.108c3.121,0.006,6.234-0.103,9.341-0.103c9.292,0,18.718,0,29.103,0
					c5.854,0,11.527,0,16.995,0c54.695,0,96.305,0,96.305,0v1.169c0,0-35.048,0-80.515,0c-5.052,0-10.319,0-15.79,0
					c-15.221,0-29.887,0-44.387,0c-4.845,0-9.711,0.112-14.509,0.112c-57.888,0.018-117.155,0.079-175.559,0.076
					c-3.748,0-7.521,0.036-11.287,0.036c-4.395,0-8.806,0.013-13.218,0.013c-21.512,0.002-44.088,0.011-66.514,0.01
					c-4.334-0.009-8.826,0.031-13.16,0.031c-56.306,0.448-111.925,0.179-167.9,0.045c-5.091-0.012-10.182-0.15-15.274-0.161
					c-15.488-0.034-29.597-0.162-42.874-0.162c-4.216,0-8.366,0-12.443,0C49.114,48.21,0,48.21,0,48.21V47.041z"/>
				<path fill="#BF864F" d="M0,150.073c0,0,48.438,0,123.264,0c4.155,0,8.404,0.154,12.718,0.146
					c18.229,0.012,38.043,0.091,55.172,0.09c4.974,0.003,9.957,0.045,14.94,0.043c49.814-0.003,100.087,0.016,149.746,0.016
					c4.97,0,9.954,0.004,14.907,0.003c29.694,0.007,60.829,0.012,89.73,0.012c5.378,0,10.735-0.005,16.081-0.021
					c58.807-0.157,116.04-1.223,175.03-0.148c3.13,0.006,6.253-0.141,9.371-0.141c9.316,0,18.767,0,29.178,0
					c5.874,0,11.563,0,17.047,0c54.85,0,92.815,0,92.815,0l0,0c0,0-31.385,0-76.982,0c-5.065,0-10.344,0-15.833,0
					c-15.264,0-29.977,0-44.512,0c-4.857,0-9.741,0.737-14.552,0.737c-58.055,0.017-117.486,0.392-176.059,0.388
					c-3.756,0-7.544,0.192-11.322,0.192c-4.403,0-8.829,0.092-13.252,0.091c-21.575,0.004-44.218,0.051-66.705,0.049
					c-4.347-0.008-8.85,0.05-13.194,0.05c-56.468,0.448-112.247,0.187-168.38,0.055c-5.103-0.013-10.21-0.77-15.318-0.779
					c-15.526-0.036-29.679-0.783-42.999-0.783c-4.227,0-8.386,0-12.474,0C50.739,150.073,0,150.073,0,150.073L0,150.073z"/>
				<path fill="#BF864F" d="M0,40.226c0,0,27.088,0,75.457,0c3.026,0,6.117,0,9.282,0c132.465-1.169,267.929-1.169,400.611,0
					c4.892,0,9.778,0,14.674,0c58.729,0,118.196,0,178.264,0c5.455,0,10.915,0,16.385,0c27.333,0,54.808,0,82.597,0
					c5.07,0,14.786,0,17.435,0c2.067,0,5.297,0,5.297,0v2.339c0,0-12.597,0-22.731,0c-2.531,0-5.35,0-8.447,0
					c-27.012,0-53.709,0-80.259,0c-5.31,0-10.609,0-15.913,0c-57.951-1.169-116.89-0.175-174.3-0.035
					c-4.787,0.012-9.563,0.046-14.328,0.056C355.49,41.448,225.67,42.601,94.529,42.592c-3.371,0.007-6.627-0.027-9.79-0.027
					c-53.787,0-84.739,0-84.739,0V40.226z"/>
				<path fill="#BF864F" d="M0,32.917c0,0,28.015,0,77.689,0c3.114,0,6.363,0,9.609,0c129.905,0,259.726-0.598,388.263,0.693
					c5.111,0.028,10.504,0.354,15.696,0.39c56.431,0.418,113.674,1.416,169.419,0.235c5.633-0.013,11.104-0.534,16.529-0.538
					c37.325,0.008,85.683-0.781,122.794-0.781l0,0v2.338c0,0-2.951,0,0,0c2.648,0-17.661,0.019-22.784,0.022
					c-30.848-0.002-61.835,0.008-92.826,0.008c-5.166,0-10.576-0.011-15.735-0.009c-57.575-0.005-116.952-0.021-175.582-0.021
					c-5.393,0-10.985,0-16.278,0c-129.77-2.338-256.77-0.001-385.48-0.004c-3.945,0.002-7.726,0.004-11.373,0.004
					c-50.995,0-79.941,0-79.941,0V32.917z"/>
				<path fill="#BF864F" d="M800,205.405c0,0-38.469,0.514-79.886,0c-5.268-0.064-17.292-0.914-23.379-1.192
					c-41.871-2.105-72.015,4.511-114.719,2.135c-3.622-0.219-7.21,0.231-11.078,0.231c-42.643,0-88.54,0-135.121,0
					c-4.143,0-8.287-0.59-12.436-0.592c-50.401-1.359-85.272-4.201-134.599-1.481c-7.784,0.854-21.192,1.629-25.235,1.607
					c-17.073,0.007-34.091,0.466-51.064,0.466c-3.398,0-6.792,0-10.184,0c-44.415-4.678-92.532,2.053-138.164,0.106
					c-4.65-0.097-9.167-0.106-13.688-0.106c-4.008,0-7.816,0-11.407,0c-3.587,0-6.96,0-10.105,0c-18.873,0-28.935,0-28.935,0v-4.678
					c0,0,13.915,0,39.04,0c3.591,0,7.399,0,11.407,0c4.521,0,9.038,0.39,13.626,0.527c45.694,2.591,90.981-3.063,136.656-0.423
					c3.443,0.086,6.929-0.104,10.412-0.104c17.43,0,34.943,0,52.536,0c3.939,0,7.896,0.384,11.857,0.373
					c52.163-2.033,97.446-1.544,147.847-0.184c4.148,0.001,8.293-0.188,12.436-0.188c46.581,0,92.479,0,135.121,0
					c3.862,0,7.708,0.397,11.231,0.571c39.871,1.864,82.323-2.038,121.269-0.402c6.294,0.278,11.422,0.391,16.676,0.509
					c45.663,1.023,79.886,0.096,79.886,0.096V205.405z"/>
				<path fill="#BF864F" d="M800,216.375c0,0-28.254,0-70.532,0c-4.696,0-9.594-0.226-14.581-0.441
					c-7.938-1.147-17.141-1.377-25.629-1.377c-42.451-0.683-53.064,4.155-126.889,1.818c-3.67,0-7.36,0-11.072,0
					c-40.828,0-84.174,0-127.915,0c-4.153,0-8.308-0.233-12.473-0.249c-34.814-1.517-67.397-1.622-101.122-0.952
					c-6.75,0.134-13.54,0.24-20.404,0.421c-30.837,0.672-61.899,0.759-92.906,0.687c-4.426-0.014-8.839-0.045-12.928-0.155
					c-34.155-0.182-70.947-0.191-105.25-0.145c-5.498-0.133-10.496-0.13-15.447-0.104c-4.939,0.024-9.87,0.284-14.793,0.328
					c-10.093-0.047-18.927,0.169-26.161,0.169c-14.467,0-21.898,0-21.898,0v-2.339c0,0,7.431,0,21.898,0c7.234,0,16.068,0,26.3,0
					c5.407,0,10.822,0,16.242,0c42.501,2.339,87.784-1.103,130.104,0.246c4.51-0.001,9.017,0.129,13.521,0.127
					c22.521-0.009,44.977,0.043,67.307,0.025c5.078-0.157,10.058-0.283,15.019-0.424c44.632-1.263,90.175-0.341,132.991,0.269
					c4.148,0.002,8.293-0.243,12.436-0.243c46.581,0,92.479,0,135.121,0c3.878,0,7.773,0.492,11.676,0.711
					c28.106,1.601,56.408,0.366,84.709-1.682c16.982-1.364,36.795,0.486,53.401,1.165c5.273,0.002,10.317-0.194,15.128-0.194
					c38.475,0,64.147,0,64.147,0V216.375z"/>
			</g>
		</g>
	</g>
</g>
</svg>
